<?xml version="1.0" encoding="UTF-8"?>
<svg width="448" height="162" fill="none" version="1.1" viewBox="0 0 448 162" xmlns="http://www.w3.org/2000/svg">
 <path d="M448 0H0V162H448V0Z" fill="none"/>
 <g fill="#BCBEC0">
  <path d="m55.419 133.78c0-0.512-0.0225-1.046-0.1325-1.559-0.1112-0.511-0.29-0.645-0.29-0.756l0.1113-0.156 0.9575-0.534 0.2-0.09c0.3337 0 0.5787 1.159 0.6 1.314 0.5787-0.534 1.96-1.314 2.895-1.314 1.4462 0 2.07 0.446 2.3587 1.336 0.6688-0.49 1.8688-1.336 2.9388-1.336 2.4712 0 2.6487 1.738 2.6487 3.34v7.389c0 0.179-0.0887 0.267-0.2675 0.267h-1.1575c-0.1775 0-0.2662-0.088-0.2662-0.267v-7.434c0-0.956-0.2463-1.802-1.425-1.802-1.07 0-1.7375 0.601-2.1813 0.912v8.324c0 0.179-0.0887 0.267-0.2675 0.267h-1.1575c-0.1775 0-0.2675-0.088-0.2675-0.267v-7.434c0-0.956-0.245-1.802-1.4462-1.802-1.0025 0-1.7813 0.622-2.1588 0.935v8.301c0 0.179-0.09 0.267-0.2675 0.267h-1.1575c-0.1787 0-0.2675-0.088-0.2675-0.267v-7.634z"/>
  <path d="m91.605 140.66 0.0663 0.178c0 0.244-1.8688 1.158-3.5175 1.158-2.96-0.023-4.6963-2.271-4.6963-5.655 0-3.271 1.6475-5.654 4.4075-5.654 3.7163 0 4.0513 3.606 4.0513 5.521 0 0.312 0 0.49-0.245 0.49h-6.3888c0 1.358 0.535 3.805 3.0713 3.805 1.4487 0 2.605-0.912 2.7387-0.912l0.1338 0.134 0.3787 0.935zm-1.5137-5.342c0-1.157-0.3788-3.251-2.315-3.251-2.0475 0-2.4938 2.138-2.4938 3.251h4.8088z"/>
  <path d="m115.46 138.17c0 1.001 0 1.669 0.244 2.226 0.111 0.266 0.402 0.69 0.402 0.823l-0.202 0.178-0.868 0.534-0.177 0.068c-0.311 0-0.713-0.958-0.801-1.314-0.535 0.379-1.625 1.314-3.272 1.314-2.383 0-3.473-2.671-3.473-5.431 0-3.205 1.136-5.877 3.717-5.877 1.381 0 2.138 0.378 2.738 0.756v-5.297c0-0.155 0.067-0.244 0.156-0.267l1.091-0.267c0.178-0.045 0.11-0.022 0.266-0.045 0.179 0 0.179 0.179 0.179 0.29v12.309zm-1.692-5.254c-0.713-0.377-1.424-0.733-2.538-0.733-1.914 0-2.092 2.181-2.092 4.339 0 1.87 0.156 3.985 1.96 3.985 1.157 0 2.136-0.98 2.67-1.313v-6.278z"/>
  <path d="m134.88 141.42c0 0.179-0.088 0.268-0.267 0.268h-1.158c-0.177 0-0.267-0.089-0.267-0.268v-9.036h-1.736c-0.178 0-0.267-0.09-0.267-0.267v-0.847c0-0.177 0.089-0.266 0.267-0.266h3.138c0.245 0 0.29 0.133 0.29 0.334v10.082zm-0.958-12.976c-0.757 0-1.358-0.601-1.358-1.357 0-0.758 0.601-1.359 1.358-1.359s1.358 0.624 1.358 1.359c0 0.733-0.601 1.357-1.358 1.357"/>
  <path d="m158.65 140.66 0.068 0.178c0 0.244-1.87 1.158-3.518 1.158-2.648 0-4.183-2.07-4.183-5.32 0-3.718 1.78-5.989 4.517-5.989 1.491 0 3.205 1.046 3.205 1.38l-0.065 0.179-0.514 0.935-0.132 0.134c-0.089 0-1.046-1.135-2.36-1.135-2.181 0-2.826 1.625-2.826 4.161 0 2.026 0.4 4.162 2.558 4.162 1.448 0 2.604-0.912 2.739-0.912l0.133 0.134 0.378 0.935z"/>
  <path d="m181.17 138.17c0 1.402 0.068 1.602 0.268 2.226 0.088 0.266 0.4 0.69 0.4 0.823l-0.2 0.178-0.868 0.534-0.179 0.068c-0.333 0-0.735-1.18-0.846-1.492-0.267 0.244-1.357 1.492-3.205 1.492-1.757 0-2.894-1.158-2.894-3.139 0-3.763 4.453-3.829 5.832-3.873v-0.802c0-1.29-0.4-2.002-1.98-2.002-1.492 0-2.515 0.712-2.715 0.712l-0.157-0.111-0.29-0.78-0.067-0.289c0-0.379 2.049-1.024 3.474-1.024 2.56 0 3.427 1.246 3.427 3.116v4.363zm-1.692-1.803c-0.979 0.022-4.163 0.022-4.163 2.359 0 0.89 0.491 1.891 1.625 1.891 1.159 0 2.181-1.067 2.538-1.38v-2.87z"/>
  <path d="m202.19 141.28 0.045 0.157c0 0.243-1.068 0.556-1.893 0.556-1.091 0-1.825-0.446-2.091-1.069-0.311-0.735-0.311-2.449-0.311-3.227v-11.553c0-0.155 0.065-0.245 0.155-0.267l1.112-0.267c0.179-0.045 0.111-0.022 0.268-0.045 0.155 0 0.155 0.178 0.155 0.29v11.885c0 0.692 0.023 1.825 0.067 2.093 0.045 0.245 0.245 0.779 0.89 0.779 0.58 0 1.003-0.289 1.159-0.289 0.132 0 0.132 0.067 0.155 0.134l0.289 0.823z"/>
  <path d="m280.85 141.64c-0.068 0.155-0.089 0.2-0.29 0.2h-0.869c-0.2 0-0.221-0.089-0.268-0.2l-3.738-10.15-0.044-0.156c0-0.089 0.044-0.11 0.2-0.155l1.09-0.29 0.224-0.044 0.155 0.178 2.471 7.233c0.156 0.468 0.289 0.98 0.4 1.403h0.045c0.111-0.534 0.2-0.845 0.4-1.38l2.627-7.256 0.155-0.178 0.224 0.044 1.09 0.29c0.156 0.045 0.2 0.066 0.2 0.155l-0.044 0.156-4.028 10.15z"/>
  <path d="m302.66 141.42c0 0.179-0.089 0.268-0.267 0.268h-1.159c-0.176 0-0.266-0.089-0.266-0.268v-9.036h-1.737c-0.177 0-0.266-0.09-0.266-0.267v-0.847c0-0.177 0.089-0.266 0.266-0.266h3.139c0.245 0 0.29 0.133 0.29 0.334v10.082zm-0.96-12.976c-0.755 0-1.357-0.601-1.357-1.357 0-0.758 0.602-1.359 1.357-1.359 0.759 0 1.359 0.624 1.359 1.359 0 0.733-0.6 1.357-1.359 1.357z"/>
  <path d="m326.65 140.66 0.066 0.178c0 0.244-1.869 1.158-3.517 1.158-2.96-0.023-4.698-2.271-4.698-5.655 0-3.271 1.649-5.654 4.409-5.654 3.715 0 4.051 3.606 4.051 5.521 0 0.312 0 0.49-0.245 0.49h-6.39c0 1.358 0.536 3.805 3.071 3.805 1.45 0 2.605-0.912 2.74-0.912l0.134 0.134 0.379 0.935zm-1.514-5.342c0-1.157-0.38-3.251-2.315-3.251-2.047 0-2.495 2.138-2.495 3.251h4.81z"/>
  <path d="m351.84 141.62c-0.045 0.089-0.069 0.223-0.268 0.223h-0.867c-0.224 0-0.268-0.134-0.291-0.223l-1.758-6.745c-0.111-0.445-0.2-1.179-0.244-1.691h-0.045c-0.066 0.646-0.155 1.112-0.333 1.669l-2.093 6.79c-0.022 0.088-0.066 0.2-0.245 0.2h-0.89c-0.18 0-0.225-0.134-0.245-0.223l-2.515-10.084-0.045-0.222 0.2-0.156 0.98-0.267 0.179-0.045c0.111 0 0.132 0.068 0.175 0.223l1.605 7.301c0.089 0.379 0.177 0.868 0.221 1.224h0.046c0.089-0.534 0.157-0.956 0.245-1.224l2.114-7.167c0.043-0.155 0.179-0.2 0.311-0.2h0.847c0.2 0 0.222 0.111 0.267 0.222l1.825 7.434c0.068 0.29 0.111 0.579 0.156 0.869h0.044c0.023-0.268 0.089-0.668 0.133-0.869l1.893-7.59c0.023-0.155 0.112-0.223 0.178-0.223l0.177 0.045 0.979 0.267 0.203 0.156-0.048 0.222-2.891 10.084z"/>
  <path d="m377.67 140.66 0.067 0.178c0 0.244-1.869 1.158-3.518 1.158-2.96-0.023-4.697-2.271-4.697-5.655 0-3.271 1.648-5.654 4.408-5.654 3.715 0 4.052 3.606 4.052 5.521 0 0.312 0 0.49-0.245 0.49h-6.39c0 1.358 0.536 3.805 3.071 3.805 1.45 0 2.605-0.912 2.74-0.912l0.134 0.134 0.378 0.935zm-1.513-5.342c0-1.157-0.38-3.251-2.315-3.251-2.048 0-2.495 2.138-2.495 3.251h4.81z"/>
  <path d="m395.82 141.42c0 0.179-0.089 0.268-0.268 0.268h-1.159c-0.176 0-0.266-0.089-0.266-0.268v-7.633c0-0.402-0.066-1.137-0.377-1.693-0.179-0.312-0.248-0.489-0.248-0.556 0.025-0.134 0.113-0.2 0.156-0.223l0.827-0.512 0.22-0.111c0.402 0 0.778 1.38 0.87 1.87 0.578-0.624 1.38-1.87 2.668-1.87 0.515 0 1.093 0.178 1.093 0.378l-0.066 0.178-0.49 1.136-0.134 0.155c-0.111 0-0.311-0.2-0.734-0.2-0.779 0-1.559 1.158-2.092 1.736v7.345z"/>
 </g>
 <g fill="#231F20">
  <path d="m240.06 139.8 3.782-7.55h-7.563l3.781 7.55z"/>
  <path d="m240.01 135.14c0.584 0 1.061-0.489 1.061-1.086 0-0.594-0.465-1.061-1.061-1.061-0.599 0-1.089 0.477-1.089 1.061 0 0.597 0.49 1.086 1.089 1.086z"/>
  <path d="m232.86 128.63 6.479 12.958c0.128 0.252 0.386 0.412 0.671 0.412 0.282 0 0.54-0.16 0.672-0.412l6.476-12.958c0.114-0.233 0.104-0.506-0.034-0.727-0.136-0.22-0.376-0.357-0.639-0.357h-0.23c-0.283 0-0.547 0.161-0.671 0.414l-5.574 11.128-5.576-11.128c-0.125-0.253-0.382-0.414-0.667-0.414h-0.234c-0.261 0-0.501 0.137-0.639 0.357-0.135 0.221-0.145 0.494-0.034 0.727z"/>
 </g>
 <path d="m241.73 40.339-20.041 39.995h40.078l-20.037-39.995z" fill="url(#paint0_radial_2_2)"/>
 <path d="m147.28 62.238v-0.5713c0.116 0.2025 0.095 0.3913 0 0.5713zm0-5.7538v-0.4987c0.082 0.1575 0.101 0.3237 0 0.4987z" fill="#009D4B"/>
 <path d="m123.04 18.915c-2.451 0.0012-4.69 1.3837-5.786 3.58l-27.14 54.384-9.1263-18.411 15.041-30.202c0.45-0.9125 0.675-1.8988 0.675-2.8813 0-1.1837-0.3251-2.3662-0.9688-3.405-1.1775-1.905-3.2587-3.0637-5.4987-3.0637h-34.449c-2.24 0-4.3188 1.1587-5.5 3.0625-0.6425 1.04-0.9675 2.2225-0.9675 3.4037 0 0.985 0.2225 1.9763 0.68 2.8863l15.03 30.188-9.2475 18.494-27.292-54.465c-1.0937-2.185-3.33-3.5687-5.7812-3.5687h-1.2325c-2.2463 0-4.3263 1.1625-5.5026 3.0662-0.6425 1.0388-0.9687 2.2188-0.9687 3.4025 0 0.9863 0.2262 1.9775 0.6837 2.8925l34.312 68.624c1.0988 2.1975 3.3425 3.5721 5.7863 3.5741 2.445 0 4.6925-1.3791 5.785-3.5791l11.371-22.738 11.371 22.742c1.0962 2.195 3.34 3.5741 5.7838 3.5741 2.445 0 4.6875-1.3766 5.7875-3.5704l34.313-68.629c0.456-0.9163 0.681-1.9075 0.681-2.8938 0-1.1812-0.324-2.3575-0.958-3.3925l-0.023-0.04 0.014 0.0263c-1.182-1.8975-3.257-3.0588-5.5-3.06h-1.373z" fill="url(#paint1_linear_2_2)"/>
 <path d="m400.69 18.915c-13.031 5e-3 -23.617 10.591-23.622 23.622 5e-3 13.034 10.588 23.621 23.622 23.625h8.649c2.613 0.0062 4.887 1.0625 6.576 2.84 1.68 1.78 2.737 4.2775 2.739 7.1625-2e-3 2.9325-1.066 5.4687-2.75 7.2712-1.69 1.7988-3.96 2.8638-6.565 2.8688h-25.802c-3.576 0.0012-6.469 2.8975-6.469 6.47v1.2337c0 3.5713 2.893 6.4674 6.469 6.4674h25.802c6.461 0 12.38-2.8161 16.652-7.2299 4.275-4.4175 6.97-10.48 6.973-17.081-3e-3 -6.5688-2.701-12.6-6.978-16.989-4.275-4.3862-10.191-7.1812-16.647-7.1825h-8.649c-2.775-0.0075-5.095-1.0287-6.765-2.6912-1.66-1.67-2.682-3.9888-2.687-6.765 7e-3 -2.8588 1.011-5.1613 2.646-6.8038 1.644-1.6362 3.946-2.6387 6.806-2.6475h18.394c3.572-0.0025 6.467-2.895 6.467-6.4687v-1.2363c0-3.5737-2.895-6.465-6.467-6.4662h-18.394z" fill="url(#paint2_linear_2_2)"/>
 <path d="m359.8 18.915c-3.573 0.0012-6.465 2.8962-6.465 6.4662v68.628c3e-3 3.5675 2.888 6.4634 6.465 6.4674h1.372c3.577-4e-3 6.464-2.8999 6.465-6.4674v-68.628c-1e-3 -3.57-2.891-6.4637-6.465-6.4662h-1.372z" fill="url(#paint3_linear_2_2)"/>
 <path d="m311.51 18.915c-13.034 5e-3 -23.619 10.591-23.624 23.622 5e-3 13.035 10.59 23.621 23.624 23.625h8.648c2.613 0.0062 4.888 1.0625 6.574 2.84 1.68 1.78 2.738 4.2762 2.74 7.1625 0 2.9325-1.066 5.4687-2.749 7.2712-1.691 1.7988-3.96 2.8638-6.565 2.8688h-25.805c-3.573 0.0025-6.465 2.895-6.467 6.47v1.2337c2e-3 3.5725 2.895 6.4654 6.467 6.4674h25.805c6.462 0 12.378-2.8161 16.65-7.2336 4.275-4.4138 6.968-10.478 6.97-17.078-2e-3 -6.5688-2.697-12.6-6.975-16.989-4.275-4.3862-10.187-7.1812-16.645-7.1825h-8.648c-2.775-0.0075-5.096-1.0287-6.764-2.6912-1.663-1.67-2.683-3.9888-2.687-6.765 7e-3 -2.8588 1.012-5.1613 2.646-6.8038 1.642-1.6362 3.947-2.6387 6.805-2.6475h18.393c3.573-0.0025 6.466-2.8975 6.469-6.4712v-1.2338c-5e-3 -3.5737-2.896-6.4612-6.469-6.4662h-18.393z" fill="url(#paint4_linear_2_2)"/>
 <path d="m236.27 22.764-34.313 68.63c-0.455 0.9088-0.684 1.9-0.684 2.89 0 1.1813 0.327 2.365 0.973 3.405 1.172 1.9013 3.252 3.0634 5.499 3.0634h1.233c2.453 0 4.689-1.3846 5.783-3.5746l27.292-54.472 27.298 54.475c1.095 2.1862 3.331 3.5721 5.781 3.5721h1.238c2.245 0 4.321-1.1634 5.5-3.0684 0.638-1.04 0.965-2.22 0.965-3.4025 0-0.9875-0.227-1.9787-0.682-2.8875l-34.312-68.629-2.235 1.1175 2.234-1.1188c-1.098-2.19-3.335-3.5737-5.787-3.5737-2.448 0.0025-4.683 1.3837-5.783 3.5737" fill="url(#paint5_linear_2_2)"/>
 <path d="m142.07 18.915c-3.575 0.0012-6.468 2.8925-6.471 6.4662v68.628c3e-3 3.5713 2.892 6.4634 6.471 6.4674h47.447c3.574-4e-3 6.468-2.8949 6.472-6.4674v-1.2362c-3e-3 -3.5738-2.9-6.465-6.472-6.4675h-39.742v-20.142h39.51c3.575-0.0025 6.466-2.8938 6.47-6.4675v-1.2338c-4e-3 -3.575-2.896-6.4662-6.47-6.4675h-39.51v-18.908h39.742c3.574-0.0025 6.469-2.895 6.472-6.4712v-1.2338c-3e-3 -3.5737-2.9-6.4637-6.472-6.4662h-47.447z" fill="url(#paint6_linear_2_2)"/>
 <path d="m61.682 28.151 10.648 21.25 10.646-21.25h-21.294z" fill="url(#paint7_radial_2_2)"/>
 <defs>
  <radialGradient id="paint0_radial_2_2" cx="0" cy="0" r="1" gradientTransform="translate(241.73 60.337) scale(20.019)" gradientUnits="userSpaceOnUse">
   <stop stop-color="#ED1C24" offset="0"/>
   <stop stop-color="#A00B0F" offset="1"/>
  </radialGradient>
  <linearGradient id="paint1_linear_2_2" x1="72.938" x2="72.938" y1="24.434" y2="123.97" gradientUnits="userSpaceOnUse">
   <stop stop-color="#006B2D" offset="0"/>
   <stop stop-color="#07A34A" offset="1"/>
  </linearGradient>
  <linearGradient id="paint2_linear_2_2" x1="405.02" x2="405.02" y1="24.434" y2="123.97" gradientUnits="userSpaceOnUse">
   <stop stop-color="#006B2D" offset="0"/>
   <stop stop-color="#07A34A" offset="1"/>
  </linearGradient>
  <linearGradient id="paint3_linear_2_2" x1="360.48" x2="360.48" y1="24.434" y2="123.97" gradientUnits="userSpaceOnUse">
   <stop stop-color="#006B2D" offset="0"/>
   <stop stop-color="#07A34A" offset="1"/>
  </linearGradient>
  <linearGradient id="paint4_linear_2_2" x1="315.83" x2="315.83" y1="24.434" y2="123.97" gradientUnits="userSpaceOnUse">
   <stop stop-color="#006B2D" offset="0"/>
   <stop stop-color="#07A34A" offset="1"/>
  </linearGradient>
  <linearGradient id="paint5_linear_2_2" x1="242.05" x2="242.05" y1="24.434" y2="123.97" gradientUnits="userSpaceOnUse">
   <stop stop-color="#006B2D" offset="0"/>
   <stop stop-color="#07A34A" offset="1"/>
  </linearGradient>
  <linearGradient id="paint6_linear_2_2" x1="165.8" x2="165.8" y1="24.434" y2="123.97" gradientUnits="userSpaceOnUse">
   <stop stop-color="#006B2D" offset="0"/>
   <stop stop-color="#07A34A" offset="1"/>
  </linearGradient>
  <radialGradient id="paint7_radial_2_2" cx="0" cy="0" r="1" gradientTransform="translate(72.33 38.776) scale(10.636)" gradientUnits="userSpaceOnUse">
   <stop stop-color="#ED1C24" offset="0"/>
   <stop stop-color="#A00B0F" offset="1"/>
  </radialGradient>
 </defs>
</svg>
