<svg width="448" height="162" viewBox="0 0 448 162" fill="none" xmlns="http://www.w3.org/2000/svg">
<path d="M448 0H0V162H448V0Z" fill="white"/>
<path d="M55.4186 133.783C55.4186 133.271 55.3961 132.737 55.2861 132.224C55.1749 131.713 54.9961 131.579 54.9961 131.468L55.1074 131.312L56.0649 130.778L56.2649 130.688C56.5986 130.688 56.8436 131.847 56.8649 132.002C57.4436 131.468 58.8249 130.688 59.7599 130.688C61.2061 130.688 61.8299 131.134 62.1186 132.024C62.7874 131.534 63.9874 130.688 65.0574 130.688C67.5286 130.688 67.7061 132.426 67.7061 134.028V141.417C67.7061 141.596 67.6174 141.684 67.4386 141.684H66.2811C66.1036 141.684 66.0149 141.596 66.0149 141.417V133.983C66.0149 133.027 65.7686 132.181 64.5899 132.181C63.5199 132.181 62.8524 132.782 62.4086 133.093V141.417C62.4086 141.596 62.3199 141.684 62.1411 141.684H60.9836C60.8061 141.684 60.7161 141.596 60.7161 141.417V133.983C60.7161 133.027 60.4711 132.181 59.2699 132.181C58.2674 132.181 57.4886 132.803 57.1111 133.116V141.417C57.1111 141.596 57.0211 141.684 56.8436 141.684H55.6861C55.5074 141.684 55.4186 141.596 55.4186 141.417V133.783Z" fill="#BCBEC0"/>
<path d="M91.6051 140.661L91.6714 140.839C91.6714 141.083 89.8026 141.997 88.1539 141.997C85.1939 141.974 83.4576 139.726 83.4576 136.342C83.4576 133.071 85.1051 130.688 87.8651 130.688C91.5814 130.688 91.9164 134.294 91.9164 136.209C91.9164 136.521 91.9164 136.699 91.6714 136.699H85.2826C85.2826 138.057 85.8176 140.504 88.3539 140.504C89.8026 140.504 90.9589 139.592 91.0926 139.592L91.2264 139.726L91.6051 140.661ZM90.0914 135.319C90.0914 134.162 89.7126 132.068 87.7764 132.068C85.7289 132.068 85.2826 134.206 85.2826 135.319H90.0914V135.319Z" fill="#BCBEC0"/>
<path d="M115.457 138.168C115.457 139.169 115.457 139.837 115.701 140.394C115.812 140.66 116.103 141.084 116.103 141.217L115.901 141.395L115.033 141.929L114.856 141.997C114.545 141.997 114.143 141.039 114.055 140.683C113.52 141.062 112.43 141.997 110.783 141.997C108.4 141.997 107.31 139.326 107.31 136.566C107.31 133.361 108.446 130.689 111.027 130.689C112.408 130.689 113.165 131.067 113.765 131.445V126.148C113.765 125.993 113.832 125.904 113.921 125.881L115.012 125.614C115.19 125.569 115.122 125.592 115.278 125.569C115.457 125.569 115.457 125.748 115.457 125.859V138.168ZM113.765 132.914C113.052 132.537 112.341 132.181 111.227 132.181C109.313 132.181 109.135 134.362 109.135 136.52C109.135 138.39 109.291 140.505 111.095 140.505C112.252 140.505 113.231 139.525 113.765 139.192V132.914V132.914Z" fill="#BCBEC0"/>
<path d="M134.881 141.417C134.881 141.596 134.793 141.685 134.614 141.685H133.456C133.279 141.685 133.189 141.596 133.189 141.417V132.381H131.453C131.275 132.381 131.186 132.291 131.186 132.114V131.267C131.186 131.09 131.275 131.001 131.453 131.001H134.591C134.836 131.001 134.881 131.134 134.881 131.335V141.417ZM133.923 128.441C133.166 128.441 132.565 127.84 132.565 127.084C132.565 126.326 133.166 125.725 133.923 125.725C134.68 125.725 135.281 126.349 135.281 127.084C135.281 127.817 134.68 128.441 133.923 128.441" fill="#BCBEC0"/>
<path d="M158.649 140.661L158.717 140.839C158.717 141.083 156.847 141.997 155.199 141.997C152.551 141.997 151.016 139.927 151.016 136.677C151.016 132.959 152.796 130.688 155.533 130.688C157.024 130.688 158.738 131.734 158.738 132.068L158.673 132.247L158.159 133.182L158.027 133.316C157.938 133.316 156.981 132.181 155.667 132.181C153.486 132.181 152.841 133.806 152.841 136.342C152.841 138.368 153.241 140.504 155.399 140.504C156.847 140.504 158.003 139.592 158.138 139.592L158.271 139.726L158.649 140.661Z" fill="#BCBEC0"/>
<path d="M181.168 138.168C181.168 139.57 181.236 139.77 181.436 140.394C181.524 140.66 181.836 141.084 181.836 141.217L181.636 141.395L180.768 141.929L180.589 141.997C180.256 141.997 179.854 140.817 179.743 140.505C179.476 140.749 178.386 141.997 176.538 141.997C174.781 141.997 173.644 140.839 173.644 138.858C173.644 135.095 178.097 135.029 179.476 134.985V134.183C179.476 132.893 179.076 132.181 177.496 132.181C176.004 132.181 174.981 132.893 174.781 132.893L174.624 132.782L174.334 132.002L174.267 131.713C174.267 131.334 176.316 130.689 177.741 130.689C180.301 130.689 181.168 131.935 181.168 133.805V138.168ZM179.476 136.365C178.497 136.387 175.313 136.387 175.313 138.724C175.313 139.614 175.804 140.615 176.938 140.615C178.097 140.615 179.119 139.548 179.476 139.235V136.365V136.365Z" fill="#BCBEC0"/>
<path d="M202.194 141.284L202.239 141.441C202.239 141.684 201.171 141.997 200.346 141.997C199.255 141.997 198.521 141.551 198.255 140.928C197.944 140.193 197.944 138.479 197.944 137.701V126.148C197.944 125.993 198.009 125.903 198.099 125.881L199.211 125.614C199.39 125.569 199.322 125.592 199.479 125.569C199.634 125.569 199.634 125.747 199.634 125.859V137.744C199.634 138.436 199.657 139.569 199.701 139.837C199.746 140.082 199.946 140.616 200.591 140.616C201.171 140.616 201.594 140.327 201.75 140.327C201.882 140.327 201.882 140.394 201.905 140.461L202.194 141.284Z" fill="#BCBEC0"/>
<path d="M280.851 141.64C280.783 141.795 280.762 141.84 280.561 141.84H279.692C279.492 141.84 279.471 141.751 279.424 141.64L275.686 131.49L275.642 131.334C275.642 131.245 275.686 131.224 275.842 131.179L276.932 130.889L277.156 130.845L277.311 131.023L279.782 138.256C279.938 138.724 280.071 139.236 280.182 139.659H280.227C280.338 139.125 280.427 138.814 280.627 138.279L283.254 131.023L283.409 130.845L283.633 130.889L284.723 131.179C284.879 131.224 284.923 131.245 284.923 131.334L284.879 131.49L280.851 141.64Z" fill="#BCBEC0"/>
<path d="M302.656 141.417C302.656 141.596 302.567 141.685 302.389 141.685H301.23C301.054 141.685 300.964 141.596 300.964 141.417V132.381H299.227C299.05 132.381 298.961 132.291 298.961 132.114V131.267C298.961 131.09 299.05 131.001 299.227 131.001H302.366C302.611 131.001 302.656 131.134 302.656 131.335V141.417ZM301.696 128.441C300.941 128.441 300.339 127.84 300.339 127.084C300.339 126.326 300.941 125.725 301.696 125.725C302.455 125.725 303.055 126.349 303.055 127.084C303.055 127.817 302.455 128.441 301.696 128.441Z" fill="#BCBEC0"/>
<path d="M326.648 140.661L326.714 140.839C326.714 141.083 324.845 141.997 323.197 141.997C320.237 141.974 318.499 139.726 318.499 136.342C318.499 133.071 320.148 130.688 322.908 130.688C326.623 130.688 326.959 134.294 326.959 136.209C326.959 136.521 326.959 136.699 326.714 136.699H320.324C320.324 138.057 320.86 140.504 323.395 140.504C324.845 140.504 326 139.592 326.135 139.592L326.269 139.726L326.648 140.661ZM325.134 135.319C325.134 134.162 324.754 132.068 322.819 132.068C320.772 132.068 320.324 134.206 320.324 135.319H325.134V135.319Z" fill="#BCBEC0"/>
<path d="M351.836 141.618C351.791 141.707 351.767 141.841 351.568 141.841H350.701C350.477 141.841 350.433 141.707 350.41 141.618L348.652 134.873C348.541 134.428 348.452 133.694 348.408 133.182H348.363C348.297 133.828 348.208 134.294 348.03 134.851L345.937 141.641C345.915 141.729 345.871 141.841 345.692 141.841H344.802C344.622 141.841 344.577 141.707 344.557 141.618L342.042 131.534L341.997 131.312L342.197 131.156L343.177 130.889L343.356 130.844C343.467 130.844 343.488 130.912 343.531 131.067L345.136 138.368C345.225 138.747 345.313 139.236 345.357 139.592H345.403C345.492 139.058 345.56 138.636 345.648 138.368L347.762 131.201C347.805 131.046 347.941 131.001 348.073 131.001H348.92C349.12 131.001 349.142 131.112 349.187 131.223L351.012 138.657C351.08 138.947 351.123 139.236 351.168 139.526H351.212C351.235 139.258 351.301 138.858 351.345 138.657L353.238 131.067C353.261 130.912 353.35 130.844 353.416 130.844L353.593 130.889L354.572 131.156L354.775 131.312L354.727 131.534L351.836 141.618Z" fill="#BCBEC0"/>
<path d="M377.668 140.661L377.735 140.839C377.735 141.083 375.866 141.997 374.217 141.997C371.257 141.974 369.52 139.726 369.52 136.342C369.52 133.071 371.168 130.688 373.928 130.688C377.643 130.688 377.98 134.294 377.98 136.209C377.98 136.521 377.98 136.699 377.735 136.699H371.345C371.345 138.057 371.881 140.504 374.416 140.504C375.866 140.504 377.021 139.592 377.156 139.592L377.29 139.726L377.668 140.661ZM376.155 135.319C376.155 134.162 375.775 132.068 373.84 132.068C371.792 132.068 371.345 134.206 371.345 135.319H376.155V135.319Z" fill="#BCBEC0"/>
<path d="M395.823 141.417C395.823 141.596 395.734 141.685 395.555 141.685H394.396C394.22 141.685 394.13 141.596 394.13 141.417V133.784C394.13 133.382 394.064 132.647 393.753 132.091C393.574 131.779 393.505 131.602 393.505 131.535C393.53 131.401 393.618 131.335 393.661 131.312L394.488 130.8L394.708 130.689C395.11 130.689 395.486 132.069 395.578 132.559C396.156 131.935 396.958 130.689 398.246 130.689C398.761 130.689 399.339 130.867 399.339 131.067L399.273 131.245L398.783 132.381L398.649 132.536C398.538 132.536 398.338 132.336 397.915 132.336C397.136 132.336 396.356 133.494 395.823 134.072V141.417Z" fill="#BCBEC0"/>
<path d="M240.057 139.795L243.839 132.245H236.276L240.057 139.795Z" fill="#231F20"/>
<path d="M240.006 135.143C240.59 135.143 241.067 134.654 241.067 134.057C241.067 133.463 240.602 132.996 240.006 132.996C239.407 132.996 238.917 133.473 238.917 134.057C238.917 134.654 239.407 135.143 240.006 135.143Z" fill="#231F20"/>
<path d="M232.856 128.63L239.335 141.588C239.463 141.84 239.721 142 240.006 142C240.288 142 240.546 141.84 240.678 141.588L247.154 128.63C247.268 128.397 247.258 128.124 247.12 127.903C246.984 127.683 246.744 127.546 246.481 127.546H246.251C245.968 127.546 245.704 127.707 245.58 127.96L240.006 139.088L234.43 127.96C234.305 127.707 234.048 127.546 233.763 127.546H233.529C233.268 127.546 233.028 127.683 232.89 127.903C232.755 128.124 232.745 128.397 232.856 128.63Z" fill="#231F20"/>
<path d="M241.729 40.3386L221.688 80.3336H261.766L241.729 40.3386V40.3386Z" fill="url(#paint0_radial_2_2)"/>
<path d="M147.278 62.2384V61.6671C147.394 61.8696 147.373 62.0584 147.278 62.2384ZM147.278 56.4846V55.9859C147.36 56.1434 147.379 56.3096 147.278 56.4846Z" fill="#009D4B"/>
<path d="M123.035 18.9149C120.584 18.9161 118.345 20.2986 117.249 22.4949L90.1088 76.8786L80.9825 58.4674L96.0238 28.2649C96.4738 27.3524 96.6988 26.3661 96.6988 25.3836C96.6988 24.1999 96.3737 23.0174 95.73 21.9786C94.5525 20.0736 92.4713 18.9149 90.2313 18.9149H55.7825C53.5425 18.9149 51.4637 20.0736 50.2825 21.9774C49.64 23.0174 49.315 24.1999 49.315 25.3811C49.315 26.3661 49.5375 27.3574 49.995 28.2674L65.025 58.4549L55.7775 76.9486L28.485 22.4836C27.3913 20.2986 25.155 18.9149 22.7038 18.9149H21.4713C19.225 18.9149 17.145 20.0774 15.9687 21.9811C15.3262 23.0199 15 24.1999 15 25.3836C15 26.3699 15.2262 27.3611 15.6837 28.2761L49.9962 96.8999C51.095 99.0974 53.3387 100.472 55.7825 100.474C58.2275 100.474 60.475 99.0949 61.5675 96.8949L72.9388 74.1574L84.31 96.8999C85.4062 99.0949 87.65 100.474 90.0938 100.474C92.5388 100.474 94.7813 99.0974 95.8813 96.9036L130.194 28.2749C130.65 27.3586 130.875 26.3674 130.875 25.3811C130.875 24.1999 130.551 23.0236 129.917 21.9886L129.894 21.9486L129.908 21.9749C128.726 20.0774 126.651 18.9161 124.408 18.9149H123.035V18.9149Z" fill="url(#paint1_linear_2_2)"/>
<path d="M400.69 18.9149C387.659 18.9199 377.073 29.5061 377.068 42.5374C377.073 55.5711 387.656 66.1586 400.69 66.1624H409.339C411.952 66.1686 414.226 67.2249 415.915 69.0024C417.595 70.7824 418.652 73.2799 418.654 76.1649C418.652 79.0974 417.588 81.6336 415.904 83.4361C414.214 85.2349 411.944 86.2999 409.339 86.3049H383.537C379.961 86.3061 377.068 89.2024 377.068 92.7749V94.0086C377.068 97.5799 379.961 100.476 383.537 100.476H409.339C415.8 100.476 421.719 97.6599 425.991 93.2461C430.266 88.8286 432.961 82.7661 432.964 76.1649C432.961 69.5961 430.263 63.5649 425.986 59.1761C421.711 54.7899 415.795 51.9949 409.339 51.9936H400.69C397.915 51.9861 395.595 50.9649 393.925 49.3024C392.265 47.6324 391.243 45.3136 391.238 42.5374C391.245 39.6786 392.249 37.3761 393.884 35.7336C395.528 34.0974 397.83 33.0949 400.69 33.0861H419.084C422.656 33.0836 425.551 30.1911 425.551 26.6174V25.3811C425.551 21.8074 422.656 18.9161 419.084 18.9149H400.69V18.9149Z" fill="url(#paint2_linear_2_2)"/>
<path d="M359.797 18.9149C356.224 18.9161 353.332 21.8111 353.332 25.3811V94.0086C353.335 97.5761 356.22 100.472 359.797 100.476H361.169C364.746 100.472 367.633 97.5761 367.634 94.0086V25.3811C367.633 21.8111 364.743 18.9174 361.169 18.9149H359.797Z" fill="url(#paint3_linear_2_2)"/>
<path d="M311.508 18.9149C298.474 18.9199 287.889 29.5061 287.884 42.5374C287.889 55.5724 298.474 66.1586 311.508 66.1624H320.156C322.769 66.1686 325.044 67.2249 326.73 69.0024C328.41 70.7824 329.468 73.2786 329.47 76.1649C329.47 79.0974 328.404 81.6336 326.721 83.4361C325.03 85.2349 322.761 86.2999 320.156 86.3049H294.351C290.778 86.3074 287.886 89.1999 287.884 92.7749V94.0086C287.886 97.5811 290.779 100.474 294.351 100.476H320.156C326.618 100.476 332.534 97.6599 336.806 93.2424C341.081 88.8286 343.774 82.7649 343.776 76.1649C343.774 69.5961 341.079 63.5649 336.801 59.1761C332.526 54.7899 326.614 51.9949 320.156 51.9936H311.508C308.733 51.9861 306.412 50.9649 304.744 49.3024C303.081 47.6324 302.061 45.3136 302.057 42.5374C302.064 39.6786 303.069 37.3761 304.703 35.7336C306.345 34.0974 308.65 33.0949 311.508 33.0861H329.901C333.474 33.0836 336.367 30.1886 336.37 26.6149V25.3811C336.365 21.8074 333.474 18.9199 329.901 18.9149H311.508V18.9149Z" fill="url(#paint4_linear_2_2)"/>
<path d="M236.268 22.7636L201.955 91.3936C201.5 92.3024 201.271 93.2936 201.271 94.2836C201.271 95.4649 201.598 96.6486 202.244 97.6886C203.416 99.5899 205.496 100.752 207.743 100.752H208.976C211.429 100.752 213.665 99.3674 214.759 97.1774L242.051 42.7049L269.349 97.1799C270.444 99.3661 272.68 100.752 275.13 100.752H276.368C278.613 100.752 280.689 99.5886 281.868 97.6836C282.506 96.6436 282.833 95.4636 282.833 94.2811C282.833 93.2936 282.606 92.3024 282.151 91.3936L247.839 22.7649L245.604 23.8824L247.838 22.7636C246.74 20.5736 244.503 19.1899 242.051 19.1899C239.603 19.1924 237.368 20.5736 236.268 22.7636" fill="url(#paint5_linear_2_2)"/>
<path d="M142.074 18.9149C138.499 18.9161 135.606 21.8074 135.603 25.3811V94.0086C135.606 97.5799 138.495 100.472 142.074 100.476H189.521C193.095 100.472 195.989 97.5811 195.993 94.0086V92.7724C195.99 89.1986 193.093 86.3074 189.521 86.3049H149.779V66.1624H189.289C192.864 66.1599 195.755 63.2686 195.759 59.6949V58.4611C195.755 54.8861 192.863 51.9949 189.289 51.9936H149.779V33.0861H189.521C193.095 33.0836 195.99 30.1911 195.993 26.6149V25.3811C195.99 21.8074 193.093 18.9174 189.521 18.9149H142.074V18.9149Z" fill="url(#paint6_linear_2_2)"/>
<path d="M61.6825 28.1511L72.33 49.4011L82.9762 28.1511H61.6825V28.1511Z" fill="url(#paint7_radial_2_2)"/>
<defs>
<radialGradient id="paint0_radial_2_2" cx="0" cy="0" r="1" gradientUnits="userSpaceOnUse" gradientTransform="translate(241.726 60.3366) scale(20.0189)">
<stop stop-color="#ED1C24"/>
<stop offset="1" stop-color="#A00B0F"/>
</radialGradient>
<linearGradient id="paint1_linear_2_2" x1="72.9375" y1="24.4345" x2="72.9375" y2="123.972" gradientUnits="userSpaceOnUse">
<stop stop-color="#006B2D"/>
<stop offset="1" stop-color="#07A34A"/>
</linearGradient>
<linearGradient id="paint2_linear_2_2" x1="405.016" y1="24.4345" x2="405.016" y2="123.972" gradientUnits="userSpaceOnUse">
<stop stop-color="#006B2D"/>
<stop offset="1" stop-color="#07A34A"/>
</linearGradient>
<linearGradient id="paint3_linear_2_2" x1="360.483" y1="24.4345" x2="360.483" y2="123.972" gradientUnits="userSpaceOnUse">
<stop stop-color="#006B2D"/>
<stop offset="1" stop-color="#07A34A"/>
</linearGradient>
<linearGradient id="paint4_linear_2_2" x1="315.83" y1="24.4345" x2="315.83" y2="123.972" gradientUnits="userSpaceOnUse">
<stop stop-color="#006B2D"/>
<stop offset="1" stop-color="#07A34A"/>
</linearGradient>
<linearGradient id="paint5_linear_2_2" x1="242.053" y1="24.4339" x2="242.053" y2="123.972" gradientUnits="userSpaceOnUse">
<stop stop-color="#006B2D"/>
<stop offset="1" stop-color="#07A34A"/>
</linearGradient>
<linearGradient id="paint6_linear_2_2" x1="165.798" y1="24.4345" x2="165.798" y2="123.972" gradientUnits="userSpaceOnUse">
<stop stop-color="#006B2D"/>
<stop offset="1" stop-color="#07A34A"/>
</linearGradient>
<radialGradient id="paint7_radial_2_2" cx="0" cy="0" r="1" gradientUnits="userSpaceOnUse" gradientTransform="translate(72.3302 38.7765) scale(10.636)">
<stop stop-color="#ED1C24"/>
<stop offset="1" stop-color="#A00B0F"/>
</radialGradient>
</defs>
</svg>
