<?xml version="1.0" encoding="UTF-8" standalone="no"?>
<!-- Created with Inkscape (http://www.inkscape.org/) -->

<svg
   width="186.mm"
   height="102.mm"
   viewBox="0 0 406 122"
   version="1.1"
   id="svg1"
   xml:space="preserve"
   xmlns:inkscape="http://www.inkscape.org/namespaces/inkscape"
   xmlns:sodipodi="http://sodipodi.sourceforge.net/DTD/sodipodi-0.dtd"
   xmlns="http://www.w3.org/2000/svg"
   xmlns:svg="http://www.w3.org/2000/svg"><sodipodi:namedview
     id="namedview1"
     pagecolor="#ffffff"
     bordercolor="#000000"
     borderopacity="0.25"
     inkscape:showpageshadow="2"
     inkscape:pageopacity="0.0"
     inkscape:pagecheckerboard="0"
     inkscape:deskcolor="#d1d1d1"
     inkscape:document-units="mm" /><defs
     id="defs1" /><g
     inkscape:label="Camada 1"
     inkscape:groupmode="layer"
     id="layer1"
     transform="translate(-379.29347,31.093972)"><path
       style="fill:#1d64b0;fill-opacity:1"
       d="m 517.48427,91.071251 c -1.97208,-0.7209 -2.72892,-3.01916 -1.42398,-4.324103 0.38669,-0.386689 0.54253,-0.78549 0.35277,-0.902764 -0.52595,-0.325056 -0.40123,-2.14782 0.17997,-2.63017 0.45798,-0.380092 0.45798,-0.551147 0,-1.436788 -1.50789,-2.915932 0.26428,-5.2737 3.96386,-5.2737 1.31449,0 1.79577,-0.158891 2.13717,-0.705556 0.59969,-0.960251 2.55132,-0.989505 2.55132,-0.03824 0,0.424744 -0.33402,0.751146 -0.91891,0.897942 -0.75849,0.190369 -0.87417,0.366406 -0.66267,1.008383 0.14093,0.427764 0.33202,1.448944 0.42465,2.26929 0.14721,1.303793 0.0342,1.625731 -0.8977,2.557639 -0.93282,0.932825 -1.31343,1.066101 -3.04459,1.066101 -1.45779,0 -2.03346,0.143268 -2.18738,0.544381 -0.31728,0.82681 -0.0476,0.926658 3.18095,1.1777 3.57829,0.278237 4.45843,0.849443 4.45843,2.893509 0,1.42506 -0.61863,2.29025 -2.01799,2.82229 -0.90658,0.34468 -5.21252,0.39702 -6.0959,0.0741 z m 5.85818,-1.89852 c 1.44597,-1.20005 -0.26159,-2.170927 -3.53988,-2.012678 -2.0235,0.09768 -2.14789,0.155037 -2.25006,1.037488 -0.0864,0.74583 0.0914,1.01087 0.88194,1.31509 1.17189,0.45096 4.20846,0.24066 4.908,-0.3399 z m -2.20717,-7.35713 c 1.71,-0.650142 1.62874,-2.822295 -0.13289,-3.551984 -0.87647,-0.363047 -1.18674,-0.339465 -1.92854,0.146582 -1.15403,0.756151 -1.20601,2.414102 -0.1,3.1888 0.91933,0.643923 1.01282,0.653292 2.16141,0.216602 z m 205.899,9.25565 c -1.97207,-0.7209 -2.72892,-3.01916 -1.42398,-4.324103 0.38669,-0.386689 0.54253,-0.78549 0.35278,-0.902764 -0.52595,-0.325056 -0.40123,-2.14782 0.17997,-2.63017 0.45798,-0.380092 0.45798,-0.551147 0,-1.436788 -1.50789,-2.915932 0.26427,-5.2737 3.96385,-5.2737 1.31449,0 1.79578,-0.158891 2.13718,-0.705556 0.59968,-0.960251 2.55131,-0.989505 2.55131,-0.03824 0,0.424744 -0.33402,0.751146 -0.9189,0.897942 -0.75849,0.190369 -0.87418,0.366406 -0.66267,1.008383 0.14093,0.427764 0.33202,1.448944 0.42464,2.26929 0.14721,1.303793 0.0342,1.625731 -0.89769,2.557639 -0.93283,0.932825 -1.31344,1.066101 -3.04459,1.066101 -1.4578,0 -2.03346,0.143268 -2.18739,0.544381 -0.31727,0.82681 -0.0476,0.926658 3.18096,1.1777 3.57829,0.278237 4.45842,0.849443 4.45842,2.893509 0,1.42506 -0.61863,2.29025 -2.01799,2.82229 -0.90658,0.34468 -5.21251,0.39702 -6.0959,0.0741 z m 5.85818,-1.89852 c 1.44598,-1.20005 -0.26159,-2.170927 -3.53987,-2.012678 -2.0235,0.09768 -2.1479,0.155037 -2.25007,1.037488 -0.0864,0.74583 0.0914,1.01087 0.88195,1.31509 1.17189,0.45096 4.20845,0.24066 4.90799,-0.3399 z m -2.20717,-7.35713 c 1.71001,-0.650142 1.62874,-2.822295 -0.13288,-3.551984 -0.87648,-0.363047 -1.18675,-0.339465 -1.92855,0.146582 -1.15403,0.756151 -1.20601,2.414102 -0.1,3.1888 0.91932,0.643923 1.01282,0.653292 2.1614,0.216602 z m -334.19678,5.359104 c -1.27315,-0.639651 -2.96086,-2.764305 -2.62609,-3.305974 0.39604,-0.640802 1.80124,-0.307273 2.17664,0.516631 0.4094,0.898543 2.38893,1.996141 3.60006,1.996141 1.02892,0 2.70475,-0.903692 2.97322,-1.603305 0.71426,-1.861345 -0.22305,-2.803929 -3.66989,-3.690541 -1.40283,-0.360842 -2.91294,-1.00499 -3.37609,-1.440097 -1.06354,-0.999139 -1.41956,-2.824155 -0.82905,-4.24977 1.33696,-3.227716 7.2828,-3.301021 9.37002,-0.115521 0.51739,0.789639 0.53349,0.976456 0.10736,1.246162 -0.82716,0.523536 -1.67501,0.370408 -1.90157,-0.343441 -0.29909,-0.942349 -2.49009,-1.91589 -3.65668,-1.624796 -1.28175,0.319829 -2.17496,1.190436 -2.17496,2.119921 0,1.136613 0.95686,1.809038 3.51213,2.468117 2.97695,0.767839 4.01955,1.333849 4.53308,2.460914 0.98778,2.167941 0.17911,4.657532 -1.82118,5.606731 -1.60208,0.760234 -4.66223,0.739974 -6.217,-0.04117 z m 16.13699,0.08549 c -1.00005,-0.563135 -2.17198,-2.385922 -1.78366,-2.774242 0.47424,-0.474235 1.71989,-0.185584 2.14641,0.497381 0.94312,1.510175 3.91853,1.725098 4.66156,0.336718 0.54088,-1.010634 0.0528,-1.721303 -1.44928,-2.110324 -0.75603,-0.195801 -2.00868,-0.520847 -2.78366,-0.722325 -2.55985,-0.665503 -3.1951,-3.672071 -1.1215,-5.307952 0.79202,-0.624829 1.30379,-0.72123 3.19544,-0.601914 1.93866,0.122281 2.37091,0.279854 3.10327,1.131273 1.52785,1.776226 0.1703,2.675038 -1.68387,1.114862 -1.29104,-1.086336 -2.07513,-1.141704 -3.19173,-0.22538 -1.42554,1.169853 -0.40609,2.093269 2.92374,2.648316 2.0911,0.348564 3.12259,1.391992 3.12259,3.158729 0,2.218745 -1.12168,3.145595 -3.98014,3.288785 -1.49761,0.075 -2.49983,-0.0626 -3.15917,-0.433927 z m 10.31431,-0.173135 c -0.62375,-0.623752 -0.70555,-1.175926 -0.70555,-4.7625 v -4.056945 h -1.05834 c -0.82314,0 -1.05833,-0.15679 -1.05833,-0.705555 0,-0.548765 0.23519,-0.705556 1.05833,-0.705556 0.99954,0 1.05834,-0.0784 1.05834,-1.411111 0,-1.27 0.0882,-1.411111 0.88194,-1.411111 0.79375,0 0.88195,0.141111 0.88195,1.411111 0,1.377514 0.0294,1.411111 1.23472,1.411111 0.99954,0 1.23472,0.134392 1.23472,0.705556 0,0.571164 -0.23518,0.705555 -1.23472,0.705555 h -1.23472 v 3.50258 c 0,3.819742 0.33739,4.611309 1.96547,4.611309 0.62156,0 0.85675,0.193682 0.85675,0.705556 0,0.601032 -0.23519,0.705552 -1.5875,0.705552 -1.11713,0 -1.79655,-0.20905 -2.29306,-0.705552 z m 6.49816,0.04033 c -3.08584,-1.881741 -2.99948,-8.176195 0.13728,-10.006302 1.50079,-0.875615 3.96646,-0.805411 5.17779,0.147426 1.12884,0.887945 1.94511,2.634854 1.94511,4.162771 v 1.069664 h -3.70417 c -3.69339,0 -3.70417,0.0025 -3.70417,0.862272 0,1.102463 1.30886,2.57352 2.54876,2.864628 0.77273,0.181421 1.17591,0.01104 2.05561,-0.868663 1.59131,-1.591304 3.12173,-1.472185 2.36702,0.184235 -0.94647,2.077281 -4.61695,2.929351 -6.82323,1.583969 z m 5.14351,-6.759143 c 0,-0.922463 -1.51867,-2.453409 -2.43374,-2.453409 -0.87885,0 -2.37395,1.330027 -2.6768,2.38125 -0.2228,0.773366 -0.16012,0.79375 2.44093,0.79375 2.4542,0 2.66961,-0.05822 2.66961,-0.721591 z m 22.03258,6.558459 c -0.65437,-0.654367 -0.86591,-1.241402 -0.86591,-2.402924 0,-2.575553 1.64345,-3.786722 5.13824,-3.786722 1.78362,0 1.91732,-0.05849 1.91732,-0.838749 0,-1.162583 -0.89537,-1.791049 -2.55167,-1.791049 -1.02635,0 -1.57542,0.211435 -2.04046,0.785732 -0.36147,0.446399 -1.0308,0.785733 -1.54984,0.785733 -1.0408,0 -1.05002,-0.02015 -0.53075,-1.159819 0.60448,-1.326699 2.1227,-2.015181 4.44379,-2.015181 3.64472,0 4.34028,1.172193 4.34362,7.320138 l 0.002,3.615972 h -0.89301 c -0.49116,0 -0.98385,-0.236713 -1.09487,-0.526029 -0.17046,-0.444196 -0.34078,-0.416756 -1.09484,0.176389 -1.34417,1.057325 -4.08868,0.971425 -5.22359,-0.163491 z m 5.3959,-1.799219 c 0.43917,-0.49907 0.79375,-1.365968 0.79375,-1.940655 0,-0.953655 -0.10198,-1.038661 -1.24606,-1.038661 -1.40549,0 -3.69283,0.845022 -3.69283,1.364257 0,0.188059 -0.0917,0.580761 -0.20367,0.872669 -0.11339,0.295494 0.13745,0.871856 0.56592,1.300323 0.97941,0.979414 2.64638,0.733554 3.78289,-0.557933 z m 28.66319,1.959573 c -0.62375,-0.623752 -0.70555,-1.175926 -0.70555,-4.7625 v -4.056946 h -1.05834 c -0.82314,0 -1.05833,-0.15679 -1.05833,-0.705555 0,-0.548765 0.23519,-0.705556 1.05833,-0.705556 0.99954,0 1.05834,-0.0784 1.05834,-1.411111 0,-1.27 0.0882,-1.411111 0.88194,-1.411111 0.79375,0 0.88195,0.141111 0.88195,1.411111 0,1.377514 0.0294,1.411111 1.23472,1.411111 0.99954,0 1.23472,0.134392 1.23472,0.705556 0,0.571164 -0.23518,0.705555 -1.23472,0.705555 h -1.23472 v 3.50258 c 0,3.819742 0.33739,4.611309 1.96547,4.611309 0.62156,0 0.85675,0.193682 0.85675,0.705556 0,0.601032 -0.23519,0.705552 -1.5875,0.705552 -1.11713,0 -1.79656,-0.20905 -2.29306,-0.705551 z m 6.49816,0.04033 c -3.08584,-1.881741 -2.99948,-8.176195 0.13728,-10.006302 1.50079,-0.875615 3.96646,-0.805411 5.17779,0.147426 1.12884,0.887945 1.94511,2.634854 1.94511,4.162771 v 1.069664 h -3.70417 c -3.69339,0 -3.70417,0.0025 -3.70417,0.862272 0,1.102463 1.30885,2.57352 2.54876,2.864628 0.77273,0.181421 1.1759,0.01104 2.05561,-0.868663 1.59131,-1.591304 3.12173,-1.472185 2.36702,0.184235 -0.94648,2.077281 -4.61695,2.929351 -6.82323,1.583969 z m 5.14351,-6.759143 c 0,-0.922463 -1.51867,-2.453409 -2.43374,-2.453409 -0.87885,0 -2.37396,1.330027 -2.6768,2.38125 -0.2228,0.773366 -0.16012,0.79375 2.44093,0.79375 2.4542,0 2.66961,-0.05822 2.66961,-0.721591 z m 25.90093,6.759143 c -3.08584,-1.881741 -2.99948,-8.176195 0.13729,-10.006302 1.50079,-0.875615 3.96646,-0.805411 5.17779,0.147426 1.12884,0.887945 1.9451,2.634854 1.9451,4.162771 v 1.069664 h -3.70416 c -3.69339,0 -3.70417,0.0025 -3.70417,0.862272 0,1.102463 1.30885,2.57352 2.54876,2.864628 0.77272,0.181421 1.1759,0.01104 2.05561,-0.868663 1.5913,-1.591304 3.12173,-1.472185 2.36701,0.184235 -0.94647,2.077281 -4.61695,2.929351 -6.82323,1.583969 z m 5.14352,-6.759143 c 0,-0.922463 -1.51867,-2.453409 -2.43374,-2.453409 -0.87885,0 -2.37396,1.330027 -2.6768,2.38125 -0.2228,0.773366 -0.16012,0.79375 2.44093,0.79375 2.4542,0 2.66961,-0.05822 2.66961,-0.721591 z m 16.93333,6.718813 c -0.62375,-0.623752 -0.70555,-1.175926 -0.70555,-4.7625 v -4.056945 h -1.05834 c -0.82315,0 -1.05833,-0.15679 -1.05833,-0.705555 0,-0.548765 0.23518,-0.705556 1.05833,-0.705556 0.99954,0 1.05834,-0.0784 1.05834,-1.411111 0,-1.27 0.0882,-1.411111 0.88194,-1.411111 0.79375,0 0.88195,0.141111 0.88195,1.411111 0,1.377514 0.0294,1.411111 1.23472,1.411111 0.99953,0 1.23472,0.134392 1.23472,0.705556 0,0.571164 -0.23519,0.705555 -1.23472,0.705555 h -1.23472 v 3.50258 c 0,3.819742 0.33738,4.611309 1.96547,4.611309 0.62156,0 0.85675,0.193682 0.85675,0.705556 0,0.601032 -0.23519,0.705552 -1.5875,0.705552 -1.11713,0 -1.79656,-0.20905 -2.29306,-0.705552 z m 6.85093,0.04033 c -3.08584,-1.881741 -2.99948,-8.176195 0.13729,-10.006302 1.50079,-0.875615 3.96646,-0.805411 5.17779,0.147426 1.12884,0.887945 1.9451,2.634854 1.9451,4.162771 v 1.069664 h -3.70416 c -3.69339,0 -3.70417,0.0025 -3.70417,0.862272 0,1.102463 1.30885,2.57352 2.54876,2.864628 0.77272,0.181421 1.1759,0.01104 2.05561,-0.868663 1.5913,-1.591304 3.12173,-1.472185 2.36701,0.184235 -0.94647,2.077281 -4.61695,2.929351 -6.82323,1.583969 z m 5.14352,-6.759143 c 0,-0.922463 -1.51867,-2.453409 -2.43374,-2.453409 -0.87885,0 -2.37396,1.330027 -2.6768,2.38125 -0.2228,0.773366 -0.16012,0.79375 2.44093,0.79375 2.4542,0 2.66961,-0.05822 2.66961,-0.721591 z m 10.76455,6.659581 c -1.27797,-1.005251 -1.94511,-2.67888 -1.94511,-4.879657 0,-3.417222 1.69409,-5.644444 4.29332,-5.644444 0.75677,0 1.76724,0.256382 2.24548,0.569739 l 0.86953,0.56974 v -2.15724 c 0,-2.06587 0.0374,-2.157239 0.88195,-2.157239 h 0.88194 v 7.055555 7.055555 h -0.88194 c -0.55869,0 -0.88195,-0.198991 -0.88195,-0.542909 0,-0.434963 -0.15351,-0.399892 -0.77207,0.176389 -1.06585,0.992995 -3.39971,0.970365 -4.69115,-0.04549 z m 3.48309,-0.983946 c 2.20127,-0.836924 2.71429,-5.643027 0.77995,-7.306874 -1.25052,-1.07566 -1.81409,-1.037167 -3.06028,0.209026 -0.89111,0.891107 -1.0312,1.296218 -1.0312,2.982012 0,2.692388 0.57792,3.777905 2.35828,4.429582 0.0359,0.01313 0.46484,-0.128054 0.95325,-0.313746 z m 8.12551,1.083508 c -3.08584,-1.881741 -2.99948,-8.176195 0.13729,-10.006302 1.50078,-0.875615 3.96645,-0.805411 5.17779,0.147426 1.12884,0.887945 1.9451,2.634854 1.9451,4.162771 v 1.069664 h -3.70417 c -3.69339,0 -3.70416,0.0025 -3.70416,0.862272 0,1.102463 1.30885,2.57352 2.54876,2.864628 0.77272,0.181421 1.1759,0.01104 2.05561,-0.868663 1.5913,-1.591304 3.12172,-1.472185 2.36701,0.184235 -0.94647,2.077281 -4.61695,2.929351 -6.82323,1.583969 z m 5.14351,-6.759143 c 0,-0.922463 -1.51867,-2.453409 -2.43373,-2.453409 -0.87886,0 -2.37396,1.330027 -2.67681,2.38125 -0.2228,0.773366 -0.16011,0.79375 2.44094,0.79375 2.45419,0 2.6696,-0.05822 2.6696,-0.721591 z m 14.62425,6.558459 c -0.65437,-0.654367 -0.86591,-1.241402 -0.86591,-2.402924 0,-2.575553 1.64345,-3.786722 5.13824,-3.786722 1.78362,0 1.91731,-0.05849 1.91731,-0.838749 0,-1.162583 -0.89536,-1.791049 -2.55166,-1.791049 -1.02635,0 -1.57542,0.211435 -2.04046,0.785732 -0.36147,0.446399 -1.0308,0.785733 -1.54984,0.785733 -1.0408,0 -1.05002,-0.02015 -0.53075,-1.159819 0.60448,-1.326699 2.12269,-2.015181 4.44379,-2.015181 3.64472,0 4.34028,1.172193 4.34362,7.320138 l 0.002,3.615972 h -0.89302 c -0.49115,0 -0.98385,-0.236713 -1.09487,-0.526029 -0.17045,-0.444196 -0.34077,-0.416756 -1.09484,0.176389 -1.34416,1.057325 -4.08867,0.971425 -5.22358,-0.163491 z m 5.39589,-1.799219 c 0.43918,-0.49907 0.79375,-1.365968 0.79375,-1.940655 0,-0.953655 -0.10198,-1.038661 -1.24605,-1.038661 -1.40549,0 -3.69284,0.845022 -3.69284,1.364257 0,0.188059 -0.0917,0.580761 -0.20366,0.872669 -0.11339,0.295494 0.13745,0.871856 0.56591,1.300323 0.97942,0.979414 2.64639,0.733554 3.78289,-0.557933 z m 7.37528,2.265595 c -1.18863,-0.690937 -1.64264,-2.527452 -1.64264,-6.644691 v -3.891887 h 1.05834 1.05833 v 4.225201 c 0,4.095088 0.0266,4.242647 0.86467,4.791755 1.13094,0.741018 2.17839,0.388494 3.03891,-1.02276 0.5483,-0.899208 0.68015,-1.780783 0.68121,-4.554612 10e-4,-3.433352 0.003,-3.439584 0.88327,-3.439584 h 0.88194 v 5.291667 5.291666 h -0.88194 c -0.58958,0 -0.88195,-0.195807 -0.88195,-0.59066 0,-0.501555 -0.12317,-0.474945 -0.81649,0.176389 -0.89649,0.842216 -3.09889,1.032946 -4.24365,0.367516 z m 10.8858,-0.365254 c -1.27797,-1.005251 -1.9451,-2.67888 -1.9451,-4.879657 0,-3.417222 1.69408,-5.644444 4.29332,-5.644444 0.75677,0 1.76724,0.256382 2.24548,0.569739 l 0.86953,0.56974 v -2.15724 c 0,-2.06587 0.0374,-2.157239 0.88195,-2.157239 h 0.88194 v 7.055555 7.055555 h -0.88194 c -0.55869,0 -0.88195,-0.198991 -0.88195,-0.542909 0,-0.434963 -0.15351,-0.399892 -0.77207,0.176389 -1.06586,0.992995 -3.39971,0.970365 -4.69116,-0.04549 z m 3.48309,-0.983946 c 2.20128,-0.836924 2.7143,-5.643027 0.77996,-7.306874 -1.25053,-1.07566 -1.8141,-1.037167 -3.06029,0.209026 -0.89111,0.891107 -1.0312,1.296218 -1.0312,2.982012 0,2.692388 0.57793,3.777905 2.35829,4.429582 0.0359,0.01313 0.46483,-0.128054 0.95324,-0.313746 z m 8.15858,0.983946 c -1.28191,-1.008347 -1.94511,-2.680132 -1.94511,-4.903206 0,-3.522963 1.85557,-5.617046 4.97951,-5.619577 2.87334,-0.0023 4.5455,2.082277 4.5455,5.666675 0,3.522963 -1.85557,5.617042 -4.97951,5.619572 -1.13745,9.3e-4 -1.92114,-0.22916 -2.60039,-0.763464 z m 4.43203,-1.67752 c 0.91632,-0.916318 1.0312,-1.273047 1.0312,-3.202137 0,-1.92909 -0.11488,-2.285819 -1.0312,-3.202137 -0.56716,-0.567158 -1.29374,-1.031196 -1.61463,-1.031196 -0.3209,0 -1.04748,0.464038 -1.61464,1.031196 -0.91632,0.916318 -1.0312,1.273047 -1.0312,3.202137 0,1.92909 0.11488,2.285819 1.0312,3.202137 0.56716,0.567158 1.29374,1.031196 1.61464,1.031196 0.32089,0 1.04747,-0.464038 1.61463,-1.031196 z m 5.88633,1.909887 c -1.00004,-0.563135 -2.17197,-2.385922 -1.78365,-2.774242 0.47423,-0.474235 1.71988,-0.185584 2.1464,0.497381 0.94312,1.510175 3.91853,1.725098 4.66157,0.336718 0.54087,-1.010634 0.0528,-1.721303 -1.44929,-2.110324 -0.75603,-0.195801 -2.00868,-0.520847 -2.78366,-0.722325 -2.55985,-0.665503 -3.19509,-3.672071 -1.1215,-5.307952 0.79202,-0.624829 1.30379,-0.72123 3.19545,-0.601914 1.93866,0.122281 2.3709,0.279854 3.10326,1.131273 1.52785,1.776226 0.1703,2.675038 -1.68387,1.114862 -1.29103,-1.086336 -2.07513,-1.141704 -3.19173,-0.22538 -1.42554,1.169853 -0.40609,2.093269 2.92374,2.648316 2.0911,0.348564 3.12259,1.391992 3.12259,3.158729 0,2.218745 -1.12168,3.145595 -3.98014,3.288785 -1.49761,0.075 -2.49983,-0.0626 -3.15917,-0.433927 z m 21.76356,-0.333489 c -0.65437,-0.654367 -0.86591,-1.241402 -0.86591,-2.402924 0,-2.575553 1.64345,-3.786722 5.13824,-3.786722 1.78362,0 1.91732,-0.05849 1.91732,-0.838749 0,-1.162583 -0.89537,-1.791049 -2.55167,-1.791049 -1.02635,0 -1.57542,0.211435 -2.04046,0.785732 -0.36147,0.446399 -1.0308,0.785733 -1.54984,0.785733 -1.0408,0 -1.05002,-0.02015 -0.53075,-1.159819 0.60448,-1.326699 2.12269,-2.015181 4.44379,-2.015181 3.64472,0 4.34028,1.172193 4.34362,7.320138 l 0.002,3.615972 h -0.89301 c -0.49116,0 -0.98386,-0.236713 -1.09488,-0.526029 -0.17045,-0.444196 -0.34077,-0.416756 -1.09483,0.176389 -1.34417,1.057325 -4.08868,0.971425 -5.22359,-0.163491 z m 5.3959,-1.799219 c 0.43917,-0.49907 0.79375,-1.365968 0.79375,-1.940655 0,-0.953655 -0.10198,-1.038661 -1.24606,-1.038661 -1.40549,0 -3.69283,0.845022 -3.69283,1.364257 0,0.188059 -0.0916,0.580761 -0.20367,0.872669 -0.11339,0.295494 0.13745,0.871856 0.56591,1.300323 0.97942,0.979414 2.64639,0.733554 3.7829,-0.557933 z m 6.6194,1.900341 c -1.27797,-1.005251 -1.9451,-2.67888 -1.9451,-4.879657 0,-3.417222 1.69409,-5.644444 4.29332,-5.644444 0.75677,0 1.76724,0.256382 2.24548,0.569739 l 0.86953,0.56974 v -2.15724 c 0,-2.06587 0.0374,-2.157239 0.88195,-2.157239 h 0.88194 v 7.055555 7.055555 H 690.169 c -0.55869,0 -0.88195,-0.198991 -0.88195,-0.542909 0,-0.434963 -0.15351,-0.399892 -0.77207,0.176389 -1.06586,0.992995 -3.39971,0.970365 -4.69116,-0.04549 z m 3.48309,-0.983946 c 2.20128,-0.836924 2.7143,-5.643027 0.77996,-7.306874 -1.25053,-1.07566 -1.81409,-1.037167 -3.06029,0.209026 -0.8911,0.891107 -1.03119,1.296218 -1.03119,2.982012 0,2.692388 0.57792,3.777905 2.35828,4.429582 0.0359,0.01313 0.46484,-0.128054 0.95324,-0.313746 z m 12.74469,0.983946 c -1.2819,-1.008347 -1.9451,-2.680132 -1.9451,-4.903206 0,-3.522963 1.85557,-5.617046 4.97951,-5.619577 2.87334,-0.0023 4.54549,2.082277 4.54549,5.666675 0,3.522963 -1.85557,5.617042 -4.97951,5.619572 -1.13744,9.3e-4 -1.92113,-0.22916 -2.60039,-0.763464 z m 4.43204,-1.67752 c 0.91632,-0.916318 1.03119,-1.273047 1.03119,-3.202137 0,-1.92909 -0.11487,-2.285819 -1.03119,-3.202137 -0.56716,-0.567158 -1.29375,-1.031196 -1.61464,-1.031196 -0.32089,0 -1.04748,0.464038 -1.61464,1.031196 -0.91631,0.916318 -1.03119,1.273047 -1.03119,3.202137 0,1.92909 0.11488,2.285819 1.03119,3.202137 0.56716,0.567158 1.29375,1.031196 1.61464,1.031196 0.32089,0 1.04748,-0.464038 1.61464,-1.031196 z m 11.65485,1.866397 c -1.98753,-1.392121 -2.71245,-5.398467 -1.47141,-8.131944 1.57673,-3.47285 6.54184,-3.531328 8.3173,-0.09796 0.69051,1.335283 0.67654,5.014461 -0.0242,6.369489 -1.13549,2.195802 -4.88354,3.217972 -6.82172,1.860415 z m 4.22015,-1.866397 c 0.91632,-0.916318 1.0312,-1.273047 1.0312,-3.202137 0,-1.92909 -0.11488,-2.285819 -1.0312,-3.202137 -1.25323,-1.253233 -1.8088,-1.285514 -3.09427,-0.179797 -0.91344,0.785711 -0.98981,1.046642 -0.98981,3.381934 0,2.335292 0.0764,2.596223 0.98981,3.381934 1.28547,1.105717 1.84104,1.073435 3.09427,-0.179797 z m 22.0263,1.67752 c -1.27797,-1.005251 -1.9451,-2.67888 -1.9451,-4.879657 0,-3.564857 1.67827,-5.644444 4.55519,-5.644444 1.95131,0 3.09446,0.705409 3.77235,2.32783 0.64972,1.554985 0.65048,1.552725 -0.52819,1.552725 -0.7907,0 -1.06929,-0.19603 -1.23888,-0.871762 -0.27008,-1.076083 -1.4095,-1.727399 -2.52997,-1.44618 -2.48764,0.624359 -2.57982,7.367563 -0.11142,8.151003 0.94163,0.298862 2.56138,-0.832387 2.72004,-1.899704 0.0859,-0.577788 0.35888,-0.758357 1.14652,-0.758357 1.21144,0 1.1948,-0.06388 0.46091,1.770303 -0.97174,2.428597 -4.24983,3.312047 -6.30145,1.698243 z m 9.87778,0 c -1.28191,-1.008347 -1.9451,-2.680132 -1.9451,-4.903206 0,-3.522963 1.85556,-5.617046 4.9795,-5.619577 2.87334,-0.0023 4.5455,2.082277 4.5455,5.666675 0,3.522963 -1.85557,5.617042 -4.97951,5.619572 -1.13745,9.3e-4 -1.92114,-0.22916 -2.60039,-0.763464 z m 4.43203,-1.67752 c 0.91632,-0.916318 1.0312,-1.273047 1.0312,-3.202137 0,-1.92909 -0.11488,-2.285819 -1.0312,-3.202137 -0.56716,-0.567158 -1.29374,-1.031196 -1.61463,-1.031196 -0.3209,0 -1.04748,0.464038 -1.61464,1.031196 -0.91632,0.916318 -1.0312,1.273047 -1.0312,3.202137 0,1.92909 0.11488,2.285819 1.0312,3.202137 0.56716,0.567158 1.29374,1.031196 1.61464,1.031196 0.32089,0 1.04747,-0.464038 1.61463,-1.031196 z m 5.88633,1.909887 c -1.00004,-0.563135 -2.17197,-2.385922 -1.78365,-2.774242 0.47423,-0.474235 1.71988,-0.185584 2.1464,0.497381 0.94312,1.510175 3.91853,1.725098 4.66157,0.336718 0.54087,-1.010634 0.0528,-1.721303 -1.44929,-2.110324 -0.75603,-0.195801 -2.00868,-0.520847 -2.78366,-0.722325 -2.55985,-0.665503 -3.19509,-3.672071 -1.1215,-5.307952 0.79202,-0.624829 1.30379,-0.72123 3.19545,-0.601914 1.93866,0.122281 2.3709,0.279854 3.10326,1.131273 1.52785,1.776226 0.1703,2.675038 -1.68387,1.114862 -1.29103,-1.086336 -2.07513,-1.141704 -3.19173,-0.22538 -1.42554,1.169853 -0.40609,2.093269 2.92374,2.648316 2.0911,0.348564 3.1226,1.391992 3.1226,3.158729 0,2.218745 -1.12169,3.145595 -3.98015,3.288785 -1.49761,0.075 -2.49983,-0.0626 -3.15917,-0.433927 z M 407.06481,82.14817 v -5.291667 h 1.05834 1.05833 v 5.291667 5.291666 h -1.05833 -1.05834 z m 32.10278,0 v -5.291667 h 0.88195 c 0.56685,0 0.88194,0.198201 0.88194,0.554772 0,0.45988 0.15899,0.42971 0.92952,-0.176389 1.32181,-1.039731 3.30527,-0.974211 4.35566,0.143881 l 0.82206,0.875041 0.87504,-0.875041 c 1.18323,-1.183228 3.19109,-1.193752 4.55152,-0.02386 0.97659,0.839808 0.99147,0.912885 1.11344,5.468055 l 0.12362,4.616871 h -1.09376 -1.09376 v -4.2252 c 0,-4.086541 -0.0282,-4.243656 -0.85829,-4.787573 -0.65786,-0.431044 -1.02435,-0.473497 -1.56941,-0.181792 -1.49648,0.800894 -1.80564,1.754376 -1.80564,5.568894 0,3.597731 -0.007,3.625671 -0.85159,3.625671 -0.84446,0 -0.85257,-0.03421 -0.97013,-4.088846 -0.11017,-3.799489 -0.17749,-4.136519 -0.95139,-4.7625 -1.06252,-0.859442 -1.21779,-0.848341 -2.40384,0.171854 -0.94688,0.814477 -0.98788,0.989265 -1.11703,4.7625 -0.13202,3.857173 -0.14694,3.916992 -0.97699,3.916992 h -0.84292 z m 33.86667,-1.763889 v -7.055555 h 0.88195 0.88194 v 7.055555 7.055555 h -0.88194 -0.88195 z m 4.93889,1.763889 v -5.291667 h 0.88195 c 0.56685,0 0.88194,0.198201 0.88194,0.554772 0,0.45988 0.15899,0.42971 0.92952,-0.176389 1.37856,-1.084376 3.52733,-0.987001 4.78382,0.216786 0.98326,0.94203 0.98944,0.976155 0.98944,5.468055 v 4.520109 h -0.88195 -0.88194 v -4.056944 c 0,-3.586574 -0.0818,-4.138748 -0.70556,-4.7625 -0.96396,-0.963961 -1.63663,-0.887085 -2.84936,0.325641 -1.00975,1.009751 -1.03119,1.108798 -1.03119,4.7625 v 3.731303 h -1.05834 -1.05833 z m 28.575,-1.763889 v -7.055555 h 1.05834 1.05833 v 7.055555 7.055555 h -1.05833 -1.05834 z m 4.93889,1.763889 v -5.291667 h 1.05834 1.05833 v 5.291667 5.291666 h -1.05833 -1.05834 z m 26.45834,0 v -5.291667 h 0.88194 c 0.56686,0 0.88195,0.198201 0.88195,0.554772 0,0.45988 0.15899,0.42971 0.92952,-0.176389 1.37856,-1.084376 3.52733,-0.987001 4.78381,0.216786 0.98327,0.94203 0.98945,0.976155 0.98945,5.468055 v 4.520109 h -0.88195 -0.88194 v -4.056944 c 0,-3.586574 -0.0818,-4.138748 -0.70556,-4.7625 -0.96396,-0.963961 -1.63663,-0.887085 -2.84936,0.325641 -1.00975,1.009751 -1.03119,1.108798 -1.03119,4.7625 v 3.731303 h -1.05834 -1.05833 z m 61.38333,-1.763889 v -7.055555 h 1.05834 1.05833 v 7.055555 7.055555 h -1.05833 -1.05834 z m 65.2639,1.763889 v -5.291667 h 0.88194 c 0.63993,0 0.88195,0.189218 0.88195,0.689521 0,0.636267 0.0669,0.622644 0.86591,-0.176389 0.54025,-0.540256 1.26996,-0.865909 1.94027,-0.865909 0.91081,0 1.07437,0.134266 1.07437,0.881944 0,0.657648 -0.18634,0.881944 -0.73269,0.881944 -0.40298,0 -1.19673,0.464039 -1.76389,1.031197 -1.0033,1.0033 -1.03119,1.127365 -1.03119,4.586111 v 3.554914 h -1.05834 -1.05833 z m 29.63333,0 v -5.291667 h 1.05834 1.05833 v 5.291667 5.291666 h -1.05833 -1.05834 z m 15.87501,-1.763889 v -7.055555 h 1.05833 1.05833 v 7.055555 7.055555 h -1.05833 -1.05833 z m 26.10555,1.763889 v -5.291667 h 1.05834 1.05833 v 5.291667 5.291666 h -1.05833 -1.05834 z m -19.24538,-7.086294 c -0.29896,-0.483725 -0.0583,-0.693707 2.23305,-1.948558 1.59624,-0.874162 1.90944,-0.94396 2.19946,-0.490148 0.54351,0.850457 0.44951,0.960587 -1.63393,1.914417 -2.23065,1.021226 -2.4644,1.065017 -2.79858,0.524289 z M 407.06481,74.21067 c 0,-0.744753 0.16463,-0.881944 1.05834,-0.881944 0.8937,0 1.05833,0.137191 1.05833,0.881944 0,0.744753 -0.16463,0.881945 -1.05833,0.881945 -0.89371,0 -1.05834,-0.137192 -1.05834,-0.881945 z m 104.42223,0 c 0,-0.744753 0.16463,-0.881944 1.05834,-0.881944 0.8937,0 1.05833,0.137191 1.05833,0.881944 0,0.744753 -0.16463,0.881945 -1.05833,0.881945 -0.89371,0 -1.05834,-0.137192 -1.05834,-0.881945 z m 182.7389,0 c 0,-0.744753 0.16463,-0.881944 1.05834,-0.881944 0.8937,0 1.05833,0.137191 1.05833,0.881944 0,0.744753 -0.16463,0.881945 -1.05833,0.881945 -0.89371,0 -1.05834,-0.137192 -1.05834,-0.881945 z m 41.98056,0 c 0,-0.744753 0.16463,-0.881944 1.05834,-0.881944 0.8937,0 1.05833,0.137191 1.05833,0.881944 0,0.744753 -0.16463,0.881945 -1.05833,0.881945 -0.89371,0 -1.05834,-0.137192 -1.05834,-0.881945 z M 386.74482,50.103988 c -3.76225,-2.733788 -7.91467,-8.78598 -7.40938,-10.799242 0.13437,-0.535374 0.53773,-0.956665 1.01183,-1.056817 0.4336,-0.0916 8.17025,-0.331065 17.19254,-0.532146 9.02229,-0.201081 22.59542,-0.54981 30.1625,-0.774954 l 13.75834,-0.409352 1.5875,0.808294 c 2.02306,1.030064 7.07258,6.062068 8.08618,8.058123 0.42622,0.839362 0.72589,1.950612 0.66591,2.469445 -0.10241,0.886038 -0.2483,0.95766 -2.40209,1.179243 -1.26118,0.129752 -8.56368,0.416207 -16.22778,0.636569 -7.6641,0.220361 -19.49097,0.627261 -26.28195,0.904222 -18.13315,0.739537 -18.47179,0.731411 -20.1436,-0.483385 z m 157.37417,0.61433 c -1.35819,-0.135135 -6.27944,-0.58814 -10.93611,-1.006677 -10.01809,-0.900417 -12.92133,-1.536484 -17.64232,-3.865225 -4.97695,-2.455003 -9.2111,-5.564123 -13.97926,-10.264911 -5.82424,-5.741955 -9.09891,-11.00352 -11.38734,-18.296577 -1.71862,-5.477096 -2.06367,-8.6137447 -1.86808,-16.98119968 0.19049,-8.14908602 0.6855,-11.17804132 2.49572,-15.27125632 2.83522,-6.410945 9.77681,-13.257125 15.30829,-15.097882 2.27691,-0.757706 2.59982,-0.770041 14.34838,-0.548063 19.35514,0.365697 26.08808,0.631045 26.60864,1.048659 0.65941,0.529005 0.3483,2.925459 -0.64661,4.980657 -0.53869,1.112791 -1.70867,2.406964 -3.66628,4.055452 l -2.87512,2.421112 -7.22856,-0.187699 c -11.37985,-0.295491 -17.86811,0.564976 -22.25212,2.951055 -2.49624,1.358623 -5.38223,4.668138 -7.10962,8.1529649 -1.87759,3.7878546 -2.09678,6.55055042 -0.98426,12.4057794 1.36827,7.2012157 3.12404,11.7686827 6.18167,16.0810367 2.88926,4.074884 10.39904,10.461847 14.24777,12.117524 1.94504,0.836736 11.30093,3.021695 11.61101,2.711617 0.0988,-0.09876 0.0137,-5.28347 -0.18892,-11.521578 -0.31751,-9.772833 -0.29613,-11.554377 0.15452,-12.876964 0.95317,-2.7973827 4.33172,-4.8109077 8.16258,-4.8646677 3.58112,-0.05026 3.42879,-0.580763 3.70434,12.9012087 0.12825,6.275004 0.41408,15.744993 0.63517,21.044419 0.23349,5.596713 0.27078,9.744633 0.089,9.896118 -0.17216,0.143438 -1.42427,0.150231 -2.78246,0.0151 z M 659.12455,50.57792 c -0.77611,-0.272161 -1.9729,-1.120965 -2.65954,-1.886233 -1.69482,-1.888895 -3.28058,-6.466366 -3.31328,-9.564167 l -0.0244,-2.311293 18.68719,-0.09135 18.68719,-0.09135 1.85309,0.906632 c 1.0801,0.528446 2.56396,1.704209 3.55727,2.818681 2.94724,3.306736 5.2819,9.037852 3.87012,9.500406 -0.59714,0.195648 -31.29363,1.253952 -35.71875,1.231454 -2.07453,-0.01055 -4.10907,-0.221782 -4.93889,-0.512774 z m -56.40057,-0.218881 c -3.60623,-0.846767 -6.97665,-3.381355 -8.62657,-6.487257 l -0.93702,-1.763889 -0.22557,-19.226388 c -0.12406,-10.574514 -0.24431,-26.9876599 -0.26723,-36.473659 l -0.0417,-17.247271 1.90245,0.196351 c 1.04635,0.107993 2.80495,0.638257 3.90799,1.178364 2.3959,1.173158 5.47283,4.346978 6.13808,6.331356 0.36475,1.088047 0.52754,8.945229 0.75237,36.31347 0.15779,19.20875 0.39483,35.348518 0.52675,35.866152 0.18698,0.733686 0.0826,1.025309 -0.47348,1.322917 -0.80301,0.429756 -0.78232,0.429835 -2.65612,-0.01015 z M 743.6867,49.647393 c -0.83359,-0.412622 -1.92045,-1.280964 -2.41522,-1.929647 -1.30589,-1.712109 -2.94831,-7.09722 -2.94831,-9.666815 v -2.116649 l 18.60903,0.0034 18.60903,0.0034 1.79255,0.834688 c 3.06449,1.426955 6.57566,5.748421 7.78331,9.579508 0.88533,2.808603 0.79618,2.881178 -3.8182,3.108396 -8.48339,0.417733 -25.755,0.944327 -30.80489,0.93921 -4.67982,-0.0047 -5.46691,-0.09211 -6.8073,-0.755584 z M 652.06827,32.05256 c -0.12031,-0.19467 -0.0535,-4.599982 0.14838,-9.789583 0.20192,-5.189601 0.5391,-17.5318877 0.74928,-27.4273043 0.21019,-9.8954167 0.54516,-18.6266667 0.74438,-19.4027777 0.51891,-2.021523 3.43093,-4.769597 5.89573,-5.563789 1.04092,-0.335402 2.76613,-0.609822 3.83379,-0.609822 h 1.9412 l -0.24814,26.7229165 c -0.28503,30.6951695 0.0262,28.1207065 -3.83626,31.7338395 -3.39471,3.17558 -8.47146,5.561209 -9.22836,4.33652 z M 380.95925,29.08788 c 0,-0.121063 2.08266,-4.543585 4.62812,-9.827827 17.573,-36.48054 22.90642,-47.656064 23.08722,-48.376429 0.18368,-0.731845 0.46766,-0.842739 2.62024,-1.023204 1.32783,-0.11132 4.19728,-0.108337 6.37655,0.0066 l 3.96232,0.20903 3.5265,7.264519 c 1.93957,3.995486 8.34658,17.0978297 14.23778,29.1163203 6.61295,13.4908847 10.5856,21.9774877 10.3828,22.1802927 -0.54917,0.549169 -8.80062,0.05741 -10.72932,-0.639434 -2.34161,-0.846025 -5.14696,-3.669341 -6.68055,-6.723334 -0.67663,-1.347435 -3.01301,-6.656757 -5.19195,-11.7984927 -5.0802,-11.98795 -8.78167,-19.5709473 -10.49619,-21.5029633 l -1.35664,-1.528748 -0.54855,0.844328 c -1.47511,2.270498 -13.15753,27.443573 -12.8697,27.731406 0.0889,0.08889 3.54775,0.202394 7.68636,0.252232 7.03647,0.08473 7.6902,0.148956 10.0747,0.989728 3.61051,1.273062 5.53812,2.504002 7.18621,4.588995 1.51764,1.919954 3.14022,4.852133 3.14022,5.674711 0,0.603673 -2.51257,0.799356 -16.58056,1.291327 -26.7137,0.934204 -30.92054,1.105792 -31.65984,1.291343 -0.43764,0.109842 -0.79572,0.100662 -0.79572,-0.0204 z M 737.8528,27.937986 c -0.30282,-0.302815 -0.30376,-28.55796768 -0.002,-45.744817 l 0.23365,-13.287141 23.66705,0.196219 c 13.01687,0.107921 23.86548,0.187403 24.10801,0.176628 0.73141,-0.03249 0.50411,1.103286 -0.74058,3.700512 -1.47307,3.073793 -4.3303,6.54904 -6.36451,7.741168 l -1.54694,0.90657 -11.4167,0.129721 c -6.27918,0.07135 -12.40888,0.248072 -13.62155,0.392724 l -2.20486,0.263003 V -0.92810768 15.731212 l 1.4993,-0.320303 c 0.82462,-0.176167 6.79319,-0.414782 13.26348,-0.530257 14.02962,-0.250386 14.80261,-0.149144 16.99143,2.225449 2.08265,2.259404 2.91206,4.33467 3.09815,7.751876 0.1507,2.767284 0.12903,2.865545 -0.6796,3.081989 -1.11958,0.299674 -45.98506,0.297756 -46.2848,-0.002 z"
       id="path4" /></g></svg>
