<?xml version="1.0" encoding="UTF-8" standalone="no"?>
<!-- Created with Inkscape (http://www.inkscape.org/) -->

<svg
   width="72.514435mm"
   height="81.311386mm"
   viewBox="0 0 72.514435 81.311386"
   version="1.1"
   id="svg1"
   xml:space="preserve"
   xmlns:inkscape="http://www.inkscape.org/namespaces/inkscape"
   xmlns:sodipodi="http://sodipodi.sourceforge.net/DTD/sodipodi-0.dtd"
   xmlns="http://www.w3.org/2000/svg"
   xmlns:svg="http://www.w3.org/2000/svg"><sodipodi:namedview
     id="namedview1"
     pagecolor="#ffffff"
     bordercolor="#000000"
     borderopacity="0.25"
     inkscape:showpageshadow="2"
     inkscape:pageopacity="0.0"
     inkscape:pagecheckerboard="0"
     inkscape:deskcolor="#d1d1d1"
     inkscape:document-units="mm" /><defs
     id="defs1" /><g
     inkscape:label="Camada 1"
     inkscape:groupmode="layer"
     id="layer1"
     transform="translate(-542.13398,-242.85365)"><path
       style="fill:#1d64b0;fill-opacity:1"
       d="m 549.58531,323.17875 c -3.76225,-2.73379 -7.91467,-8.78598 -7.40938,-10.79924 0.13437,-0.53538 0.53773,-0.95667 1.01183,-1.05682 0.4336,-0.0916 8.17025,-0.33106 17.19254,-0.53214 9.02229,-0.20109 22.59542,-0.54981 30.1625,-0.77496 l 13.75834,-0.40935 1.5875,0.80829 c 2.02306,1.03007 7.07258,6.06207 8.08618,8.05813 0.42622,0.83936 0.72589,1.95061 0.66591,2.46944 -0.10241,0.88604 -0.2483,0.95766 -2.40209,1.17924 -1.26118,0.12976 -8.56368,0.41621 -16.22778,0.63657 -7.6641,0.22036 -19.49097,0.62726 -26.28195,0.90423 -18.13315,0.73953 -18.47179,0.73141 -20.1436,-0.48339 z m -5.78557,-21.01611 c 0,-0.12106 2.08266,-4.54358 4.62812,-9.82782 17.573,-36.48054 22.90642,-47.65607 23.08722,-48.37643 0.18368,-0.73185 0.46766,-0.84274 2.62024,-1.02321 1.32783,-0.11132 4.19728,-0.10833 6.37655,0.007 l 3.96232,0.20903 3.5265,7.26452 c 1.93957,3.99549 8.34658,17.09783 14.23778,29.11632 6.61295,13.49089 10.5856,21.97749 10.3828,22.18029 -0.54917,0.54917 -8.80062,0.0574 -10.72932,-0.63943 -2.34161,-0.84602 -5.14696,-3.66934 -6.68055,-6.72333 -0.67663,-1.34744 -3.01301,-6.65676 -5.19195,-11.7985 -5.0802,-11.98795 -8.78167,-19.57094 -10.49619,-21.50296 l -1.35664,-1.52875 -0.54855,0.84433 c -1.47511,2.2705 -13.15753,27.44357 -12.8697,27.73141 0.0889,0.0889 3.54775,0.20239 7.68636,0.25223 7.03647,0.0847 7.6902,0.14895 10.0747,0.98973 3.61051,1.27306 5.53812,2.504 7.18621,4.58899 1.51764,1.91996 3.14022,4.85213 3.14022,5.67471 0,0.60368 -2.51257,0.79936 -16.58056,1.29133 -26.7137,0.9342 -30.92054,1.10579 -31.65984,1.29134 -0.43764,0.10984 -0.79572,0.10066 -0.79572,-0.0204 z"
       id="path4-7"
       inkscape:export-filename="logo_about.svg"
       inkscape:export-xdpi="96"
       inkscape:export-ydpi="96"
       sodipodi:nodetypes="sssscsssssssscssscssssssscssssssssscc" /></g></svg>
