<svg width="16" height="16" viewBox="0 0 16 16" fill="none" xmlns="http://www.w3.org/2000/svg">
<path d="M1 8.00014C1 4.13395 4.13442 1 8 1C11.8656 1 15 4.13395 15 8.00014C15 11.8661 11.8656 15 8 15C4.13442 15 1 11.8661 1 8.00014Z" fill="black"/>
<path d="M8.21359 11.7941L10.5239 7.18621H5.9044L8.21359 11.7941Z" fill="white"/>
<path d="M8.18093 8.95704C8.53734 8.95704 8.82885 8.65915 8.82885 8.29442C8.82885 7.93218 8.54483 7.6465 8.18093 7.6465C7.81675 7.6465 7.51664 7.93801 7.51664 8.29442C7.51664 8.65915 7.81675 8.95704 8.18093 8.95704Z" fill="white"/>
<path d="M3.81366 4.9824L7.76914 12.8912C7.84767 13.0457 8.00555 13.143 8.1787 13.143C8.35157 13.143 8.51001 13.0457 8.58993 12.8912L12.5454 4.9824C12.6148 4.84095 12.6062 4.6737 12.5232 4.53807C12.4402 4.40438 12.2943 4.32089 12.1339 4.32089H11.9927C11.8198 4.32089 11.6591 4.41908 11.5828 4.57329L8.1787 11.3657L4.77485 4.57329C4.69826 4.41908 4.54093 4.32089 4.36695 4.32089H4.22405C4.06478 4.32089 3.91799 4.40438 3.83558 4.53807C3.75206 4.6737 3.74512 4.84095 3.81366 4.9824" fill="white"/>
</svg>
