<svg width="16" height="16" version="1.1" viewBox="0 0 16 16" xmlns="http://www.w3.org/2000/svg">
 <title>contextualmenu</title>
 <desc>Created with Sketch.</desc>
 <g id="contextual menu" transform="matrix(.82633 0 0 .82633 -161.33 -27.363)">
  <g id="menu" transform="translate(195,33)">
   <path d="m8.7927 4.995h-6.1189v-1.2238h6.1189zm0 2.4475h-6.1189v-1.2238h6.1189zm0 2.4475h-6.1189v-1.2238h6.1189zm-7.3426 1.2238h8.5664v-9.7902h-8.5664z" fill="#6e6e6e" stroke-width="1.2238"/>
  </g>
  <g transform="matrix(.84425 0 0 .84414 42.258 .55745)" fill="#59a869" stroke-width=".044665">
   <path d="m202.94 58.696-3.2378-3.2379 2.31-1.3343c0.1805-0.10425 0.28552-0.30239 0.27051-0.51029-0.015-0.20795-0.14747-0.389-0.34107-0.46618l-10.3-4.1088c-0.20193-0.08064-0.43249-0.03314-0.58627 0.12058-0.15378 0.15382-0.20127 0.38434-0.12069 0.58626l4.1082 10.302c0.0773 0.1936 0.25828 0.32611 0.46623 0.34112 0.20795 0.01512 0.40615-0.08995 0.51034-0.27051l1.3342-2.31 3.2377 3.2379c0.10205 0.10206 0.24049 0.15942 0.38473 0.15942 0.14435 0 0.28272-0.05735 0.38473-0.15942l1.58-1.5802c0.21244-0.2125 0.21244-0.55696-5e-5 -0.76944z" stroke-width=".054781"/>
  </g>
 </g>
</svg>
