<svg width="16" height="16" viewBox="0 0 16 16" fill="none" xmlns="http://www.w3.org/2000/svg">
<path d="M12.5667 6.92667L13.2733 6.22C13.7933 5.7 13.7933 4.85333 13.2733 4.33333L12.3333 3.39333C11.8133 2.87333 10.9667 2.87333 10.4467 3.39333L9.74 4.1L12.5667 6.92667ZM8.79333 5.04L2.76 11.0733C2.69964 11.136 2.66614 11.2197 2.66667 11.3067V13.6667C2.66667 13.8533 2.81333 14 3 14H5.36C5.44667 14 5.53333 13.9667 5.59333 13.9L11.6267 7.86667L8.79333 5.04ZM12.6667 11.6667C12.6667 13.1267 10.9733 14 9.33333 14C8.96667 14 8.66667 13.7 8.66667 13.3333C8.66667 12.9667 8.96667 12.6667 9.33333 12.6667C10.36 12.6667 11.3333 12.18 11.3333 11.6667C11.3333 11.3533 11.0133 11.0867 10.5133 10.8667L11.5 9.88C12.2133 10.3 12.6667 10.86 12.6667 11.6667ZM3.05333 8.9C2.40667 8.52667 2 8.04 2 7.33333C2 6.13333 3.26 5.58 4.37333 5.09333C5.06 4.78667 6 4.37333 6 4C6 3.72667 5.48 3.33333 4.66667 3.33333C3.82667 3.33333 3.46667 3.74 3.44667 3.76C3.21333 4.03333 2.79333 4.06667 2.51333 3.84C2.37965 3.7302 2.29431 3.57239 2.27561 3.4004C2.25692 3.22842 2.30636 3.05596 2.41333 2.92C2.48667 2.82667 3.17333 2 4.66667 2C6.16 2 7.33333 2.88 7.33333 4C7.33333 5.24667 6.04667 5.81333 4.90667 6.31333C4.28 6.58667 3.33333 7 3.33333 7.33333C3.33333 7.54 3.62 7.73333 4.04667 7.90667L3.05333 8.9Z" fill="#6E6E6E"/>
</svg>
