<?xml version="1.0" encoding="UTF-8"?>
<svg width="22" height="22" version="1.1" viewBox="0 0 22 22" xmlns="http://www.w3.org/2000/svg">
 <path d="m1 2.3333c0-0.35362 0.14048-0.69276 0.39053-0.94281s0.58919-0.39052 0.94281-0.39052h2v1.3333h-2v2h-1.3333zm13.333 0v2h-1.3334v-2h-2v-1.3333h2c0.3537 0 0.6928 0.14047 0.9428 0.39052 0.2501 0.25005 0.3906 0.58919 0.3906 0.94281zm-13.333 10.667v-2h1.3333v2h2v1.3334h-2c-0.35362 0-0.69276-0.1405-0.94281-0.3906-0.25005-0.25-0.39053-0.5891-0.39053-0.9428zm5.3333-12h2.6667v1.3333h-2.6667zm-5.3333 5.3333h1.3333v2.6667h-1.3333z" fill="#6e6e6e"/>
 <path d="m20.8 13.8-3.2 3.2v-2.4h-3.2v3.2h2.4l-3.2 3.2-3.2-3.2h2.4v-3.2h-3.2v2.4l-3.2-3.2 3.2-3.2v2.4h3.2v-3.2h-2.4l3.2-3.2 3.2 3.2h-2.4v3.2h3.2v-2.4z" fill="#6e6e6e"/>
</svg>
