<?xml version="1.0" encoding="UTF-8"?>
<svg width="30" height="30" version="1.1" viewBox="0 0 30 30" xmlns="http://www.w3.org/2000/svg">
 <path d="m7.2473 22.892c-0.58303 0-1.4576 0.87455-1.4576 0.87455l-0.49529-0.2475c-0.42212-0.21106-0.91945-0.21106-1.3416-1e-6l-0.49529 0.2475s-0.58303-0.87455-1.4576-0.87455v-14.576l5.2473 0.58303zm3e-7 -17.491-5.2473-3e-7 7e-7 -2.7286s0.58303-1.4576 2.6237-1.4576c2.0406 0 2.6237 1.4576 2.6237 1.4576zm-4.0812 20.989 0.76756 1.8421c0.25537 0.61335 1.1247 0.61335 1.38 1e-6l0.76756-1.8421z" fill="#6e6e6e" stroke-width=".41227"/>
</svg>
