<?xml version="1.0" encoding="UTF-8"?>
<svg width="16" height="16" version="1.1" viewBox="0 0 16 16" xmlns="http://www.w3.org/2000/svg">
 <rect width="16" height="16" fill="#f0f" opacity="0"/>
 <g transform="matrix(.58333 0 0 .58333 .75144 -3.0524)" fill="#389fd6">
  <path d="m13.126 11.947c-0.8-2.3-3-4-5.7-4-3.3 0-6 2.7-6 6s2.7 6 6 6c2.6 0 4.8-1.7 5.7-4h4.3v3h4v-3h2v-4zm-5.7 4c-1.1 0-2-0.9-2-2s0.9-2 2-2 2 0.9 2 2-0.9 2-2 2z" opacity=".3"/>
  <path d="m7.4261 20.947c-3.9 0-7-3.1-7-7s3.1-7 7-7c2.7 0 5.2 1.6 6.3 4h10.7v6h-2v3h-6v-3h-2.7c-1.1 2.4-3.6 4-6.3 4zm0-12c-2.8 0-5 2.2-5 5s2.2 5 5 5c2.1 0 4-1.3 4.7-3.3l0.2-0.7h6.1v3h2v-3h2v-2h-10.1l-0.2-0.7c-0.7-2-2.6-3.3-4.7-3.3z"/>
  <path d="m7.4261 16.947c-1.7 0-3-1.3-3-3s1.3-3 3-3 3 1.3 3 3-1.3 3-3 3zm0-4c-0.6 0-1 0.4-1 1s0.4 1 1 1 1-0.4 1-1-0.4-1-1-1z"/>
 </g>
 <path d="m13.686 12.314h2.3143v1.3714h-2.3143v2.3143h-1.3714v-2.3143h-2.3143v-1.3714h2.3143v-2.3143h1.3714z" fill="#59a869" stroke-width=".85714"/>
 <path d="m4.4933 10.449-1.7267 1.7267-1.7267-1.7267-0.94 0.94 1.7267 1.7267-1.7267 1.7267 0.94 0.94003 1.7267-1.7267 1.7267 1.7267 0.94003-0.94003-1.7267-1.7267 1.7267-1.7267z" fill="#db5860"/>
</svg>
