<?xml version="1.0" encoding="UTF-8"?>
<svg width="16" height="16" version="1.1" viewBox="0 0 16 16" xmlns="http://www.w3.org/2000/svg">
 <path d="m7.4114 8.1-0.031433 1.1955-3.2366-0.42571c-0.3269 0.49536-0.8869 0.8256-1.5205 0.8256-1.0013 0-1.8229-0.82162-1.8229-1.8229s0.8216-1.8216 1.8229-1.8216c0.05536 0 0.10768 0.01136 0.16176 0.01632l1.4957-3.0184c-0.29824-0.3251-0.4856-0.75358-0.4856-1.2259 0-1.0013 0.8203-1.8229 1.8216-1.8229l-1.6e-4 1.2e-4c0.9146 0 1.6722 0.68768 1.7978 1.5696l2.425 0.66224c0.3271-0.49648 0.8876-0.82688 1.522-0.82688 1.0012 0 1.8227 0.8219 1.8227 1.8232 0 0.57454-0.2763 1.0838-0.6962 1.4187l0.6314 1.7094-1.2816-0.0076806-0.48256-1.299c-0.9395-0.0032-1.7115-0.7302-1.8003-1.6486l-2.3787-0.6512 8e-5 -6e-5c-0.3196 0.53344-0.89716 0.896-1.5594 0.896-0.0952 0-0.18608-0.01344-0.27728-0.02784l-1.4578 2.9448c0.30496 0.29312 0.50128 0.6912 0.5456 1.1328m1.1894-6.7722c0.5024 0 0.9008 0.39712 0.9008 0.89952s-0.3984 0.89968-0.9008 0.89968-0.89824-0.39744-0.89824-0.89968c0-0.5024 0.39584-0.89952 0.89824-0.89952zm5.7447 1.4051c0.5024 0 0.8984 0.39728 0.8984 0.89968s-0.396 0.8992-0.8984 0.8992-0.9007-0.3968-0.9007-0.8992 0.3984-0.89968 0.9007-0.89968zm-8.7381 4.6443c0.5024 0 0.9008 0.39728 0.9008 0.89968 8.1e-4 0.11851-0.02194 0.236-0.06692 0.34565-0.04499 0.10965-0.11131 0.20926-0.19512 0.29306-0.08381 0.08379-0.18344 0.1501-0.29309 0.19507-0.10966 0.04496-0.22715 0.06769-0.34567 0.06686-0.5024 0-0.89952-0.3984-0.89952-0.90064-9.6e-4 -0.1184 0.02166-0.23581 0.06652-0.34539 0.04486-0.10957 0.11108-0.20913 0.1948-0.29286s0.18326-0.14997 0.29283-0.19485c0.10957-0.04489 0.22697-0.06752 0.34537-0.06658zm-1.823 5.1872v3.84h6.5981v-0.977l-1.1301 4e-4v-2.0356h-1.0027v2.0356h-1.229v-2.0356h-1.0032v2.0356h-1.2299v-2.8634z" clip-rule="evenodd" fill="#6e6e6e" fill-rule="evenodd"/>
 <path d="m11.723 7.2485-3.5001 2.6698h2.625v3.7472h1.75v-3.7472h2.625z" fill="#59a869" stroke-width="1.1464"/>
 <path d="m8.2228 14.737h7" fill="#59a869" stroke="#59a869" stroke-width=".97747px"/>
</svg>
