<?xml version="1.0" encoding="UTF-8"?>
<svg width="16" height="16" fill="#000000" version="1.1" viewBox="0 0 16 16" xmlns="http://www.w3.org/2000/svg">
 <path d="m8.2738 1.7377c-0.18936-0.43377-0.62032-0.7377-1.1229-0.7377-0.50258 0-0.93355 0.30393-1.1229 0.7377h-1.3299v1.4754c0 0.27172 0.21953 0.4918 0.49057 0.4918h3.9245c0.27104 0 0.49057-0.22008 0.49057-0.4918v-1.4754zm-1.1229 0.98361c-0.27104 0-0.49057-0.22008-0.49057-0.4918s0.21953-0.4918 0.49057-0.4918 0.49057 0.22008 0.49057 0.4918-0.21953 0.4918-0.49057 0.4918zm4.1698 4.1803h0.98113v-5.1639h-2.2075v1.2295h1.2264v3.9344zm-1.717 0.98361h2.6981v0.98361h-2.6981zm3.434 0.98361h0.98113v0.98361h0.98113v-1.9672h-1.9623zm-3.434 6.1475h2.6981v0.98361h-2.6981zm-1.717-5.1639v-0.98361h0.98113v-0.98361h-1.9623v1.9672zm0.98113 5.1639h-0.98113v-0.98361h-0.98113v1.9672h1.9623zm-1.9623-4.4262h0.98113v2.7049h-0.98113zm-0.98113 3.4426h-2.9434v-11.066h1.2264v-1.2295h-2.2075v13.279h3.9245zm8.0943 0v0.98361h-0.98113v0.98361h1.9623v-1.9672zm0-3.4426h0.98113v2.7049h-0.98113z" fill="#6e6e6e" stroke-width=".24559"/>
</svg>
