<?xml version="1.0" encoding="UTF-8"?>
<svg width="16" height="16" version="1.1" viewBox="0 0 16 16" xmlns="http://www.w3.org/2000/svg">
 <g transform="translate(-.2 -.19995)" fill="#6e6e6e">
  <path d="m6.2431 0.77699c0.19257 2.503e-5 0.38324 0.037986 0.56114 0.11171 0.1779 0.073727 0.33953 0.18178 0.47566 0.31798s0.2441 0.29788 0.31773 0.47582c0.073645 0.17793 0.11146 0.36863 0.11146 0.5612 0 0.19254-0.037884 0.38321-0.11152 0.56111-0.073643 0.1779-0.18162 0.33955-0.31775 0.47572-0.13613 0.13616-0.29776 0.24418-0.47563 0.31788-0.17789 0.073696-0.36854 0.11162-0.56109 0.11162-0.38895 0-0.76196-0.15451-1.037-0.42954-0.27503-0.27503-0.42954-0.64805-0.42954-1.037s0.15451-0.76197 0.42954-1.037 0.64804-0.42954 1.037-0.42954z" stroke-width=".75936"/>
  <path d="m1 5.6465v7.4082h6.0898v-0.57422h-4.3633v-6.25h7.1328v0.96948h1.7266v-1.5535z"/>
  <path d="m5.7539 6.498v0.48828h-1.998c-0.1087 0-0.19531 0.094568-0.19531 0.20898-3.7e-5 0.027502 0.00376 0.054701 0.013672 0.080078 0.00988 0.025345 0.024678 0.048884 0.042969 0.068359 0.018291 0.019362 0.040541 0.034019 0.064453 0.044922 0.023912 0.010959 0.048358 0.015663 0.074219 0.015625h1.998v0.66211h-2.127c-0.052185 0-0.10374 0.021408-0.14062 0.060547-0.036896 0.03924-0.056641 0.092982-0.056641 0.14844 0 0.055407 0.019745 0.10735 0.056641 0.14648 0.03691 0.039268 0.088459 0.0625 0.14062 0.0625h2.127v0.66211h-1.8906c-0.0521 0-0.10184 0.02146-0.13867 0.060547-0.036828 0.03917-0.056641 0.09112-0.056641 0.14648-1e-7 0.055303 0.019806 0.10935 0.056641 0.14844 0.03684 0.039234 0.086574 0.060547 0.13867 0.060547h1.8906v0.66211h-1.8262c-0.07532 0-0.1875 0.07232-0.1875 0.19727 0 1.1267 0.10374 1.6582 0.66211 1.6582 0.60235 0 0.70624-1.3718 1.3516-1.4238v1.2773h0.97266v-1.2754c0.14452 0.02062 0.26119 0.11164 0.36328 0.23633v-0.66992h-0.36328v-0.66211h0.36328v-0.41797h-0.36523v-0.66016h0.36523v-0.41797h-0.36523v-0.66211h2.0039c0.025923 9.5e-5 0.052252-0.00472 0.076172-0.015625 0.023981-0.010367 0.044096-0.025422 0.0625-0.044922 0.018387-0.019431 0.032705-0.042957 0.042969-0.068359 0.010257-0.02539 0.015625-0.052552 0.015625-0.080078-2.338e-4 -0.055477-0.021656-0.1092-0.058594-0.14844-0.03691-0.039226-0.086466-0.060266-0.13867-0.060547h-2.0039v-0.48828z" fill="#38afd6" stroke-width=".67089"/>
  <path d="m7.9519 4.0689h-3.3691c-0.60958 0-1.1736 0.3252-1.4908 0.81024h6.3016c-0.15081-0.24722-0.36259-0.45156-0.61501-0.59343-0.25248-0.14188-0.5371-0.21653-0.82663-0.21681z" stroke-width=".75936"/>
 </g>
 <path d="m11.5 8-3.5001 2.6698h2.625v3.7472h1.75v-3.7472h2.625z" fill="#59a869" stroke-width="1.1464"/>
 <path d="m8 15.488h7" fill="#59a869" stroke="#59a869" stroke-width=".97747px"/>
</svg>
