<svg width="16" height="16" viewBox="0 0 16 16" fill="none" xmlns="http://www.w3.org/2000/svg">
<path d="M14.925 12.763C14.8802 12.8354 14.8177 12.8952 14.7433 12.9367C14.6689 12.9782 14.5852 13 14.5 13H9.5C9.36739 13 9.24021 12.9473 9.14644 12.8536C9.05268 12.7598 9 12.6326 9 12.5V2.5C9.00001 2.38741 9.03801 2.27811 9.10787 2.18981C9.17772 2.10151 9.27534 2.03937 9.38491 2.01346C9.49447 1.98754 9.60958 1.99936 9.71159 2.04701C9.81361 2.09466 9.89655 2.17534 9.947 2.276L14.947 12.276C14.9852 12.3523 15.0032 12.4371 14.9994 12.5224C14.9955 12.6076 14.9699 12.6904 14.925 12.763V12.763ZM10 4.618V12H13.691L10 4.618ZM1.5 13C1.41473 13 1.33089 12.9782 1.25643 12.9366C1.18196 12.8951 1.11936 12.8352 1.07457 12.7627C1.02978 12.6901 1.00428 12.6073 1.00051 12.5221C0.99673 12.437 1.0148 12.3522 1.053 12.276L6.053 2.276C6.10345 2.17534 6.18639 2.09466 6.2884 2.04701C6.39042 1.99936 6.50552 1.98754 6.61509 2.01346C6.72466 2.03937 6.82227 2.10151 6.89213 2.18981C6.96198 2.27811 6.99999 2.38741 7 2.5V12.5C7 12.6326 6.94732 12.7598 6.85355 12.8536C6.75978 12.9473 6.63261 13 6.5 13H1.5Z" fill="#6E6E6E"/>
</svg>
