<?xml version="1.0" encoding="UTF-8"?>
<svg width="16" height="16" version="1.1" viewBox="0 0 16 16" xmlns="http://www.w3.org/2000/svg" xmlns:xlink="http://www.w3.org/1999/xlink">
 <defs>
  <linearGradient id="a" x1="8" x2="8" y1="2.062" y2="14.125" gradientUnits="userSpaceOnUse">
   <stop stop-color="#576a80" offset="0"/>
   <stop stop-color="#2d3742" offset="1"/>
  </linearGradient>
  <linearGradient id="b" x1="8" x2="8" y1="3.94" y2="12.288" gradientUnits="userSpaceOnUse">
   <stop stop-color="#66b5ff" offset="0"/>
   <stop stop-color="#69e3ff" offset="1"/>
  </linearGradient>
  <linearGradient id="c" x1="8.007" x2="8.007" y1="8.833" y2="12.038" gradientUnits="userSpaceOnUse" xlink:href="#a">
   <stop stop-color="#12b300" offset="0"/>
   <stop stop-color="#579900" offset="1"/>
  </linearGradient>
  <linearGradient id="linearGradient3242" x1="8" x2="8" y1="2.062" y2="14.125" gradientUnits="userSpaceOnUse" xlink:href="#a"/>
 </defs>
 <g>
  <rect width="16" height="16" fill="#f0f" opacity="0"/>
  <path d="m1 2v12h6.5v-5h7.5v-7z" fill="url(#linearGradient3242)"/>
  <path d="m2 3v10h5.5v-4h6.5v-6z" fill="#fff" fill-opacity=".8"/>
  <path d="m3 4v4.4531l2.5352-1.4863 1.9648 2.2441v-0.21094h5.5v-5z" fill="url(#b)"/>
  <path d="m5.3652 8.832-2.3652 0.82812v2.3398h4.5v-1.3125z" fill="url(#c)"/>
  <circle cx="9.5" cy="6.5" r="1.5" fill="#eda200"/>
 </g>
 <g transform="matrix(.70711 0 0 .70711 6.1658 10.874)" fill="#59a869" fill-rule="evenodd">
  <g transform="rotate(45,8.8855,9.9879)" fill="#59a869">
   <rect transform="rotate(45,4.532,4.462)" x="3.532" y=".269" width="2" height="8.386"/>
   <polygon points="0 3 6 9 0 9"/>
  </g>
 </g>
</svg>
