<?xml version="1.0" encoding="UTF-8"?>
<svg width="16" height="16" version="1.1" viewBox="0 0 16 16" xmlns="http://www.w3.org/2000/svg">
 <path d="m11.5 14.917-3.5001-2.6698h2.625v-4.2468h1.75v4.2468h2.625z" fill="#59a869" stroke-width="1.1464"/>
 <path d="m8 15.488h7" fill="#59a869" stroke="#59a869" stroke-width=".97747px"/>
 <path d="m6 1c-2.7613 0-5 2.2387-5 5 0 2.7613 2.2387 5 5 5 1.6135 0 3.0467-0.76488 3.9609-1.9512v-1.7129h0.85742c0.11767-0.42533 0.18164-0.87317 0.18164-1.3359 0-2.7613-2.2387-5-5-5zm2.3086 1.3457s0.38296 0.19351 0.76758 0.57812c0.38462 0.38462 0.57812 0.76758 0.57812 0.76758l-1.7305 0.76953-0.38477-0.38477 0.76953-1.7305zm-2.3086 1.7305c1.0621 0 1.9238 0.86171 1.9238 1.9238 0 1.0621-0.86171 1.9238-1.9238 1.9238-1.0621 0-1.9238-0.86171-1.9238-1.9238 0-1.0621 0.86171-1.9238 1.9238-1.9238zm0 1.5391a0.38462 0.38462 0 0 0 0 0.76953 0.38462 0.38462 0 0 0 0-0.76953zm-1.9238 1.9238 0.38477 0.38477-0.76953 1.7305s-0.38296-0.19351-0.76758-0.57812c-0.38462-0.38461-0.57812-0.76758-0.57812-0.76758l1.7305-0.76953z" fill="#6e6e6e" stroke-width=".19231"/>
</svg>
