<?xml version="1.0" encoding="UTF-8"?>
<svg width="16" height="16" fill="none" version="1.1" viewBox="0 0 16 16" xmlns="http://www.w3.org/2000/svg">
 <g>
  <rect width="16" height="16" fill="#0b0b0b" style="paint-order:markers fill stroke"/>
  <rect x="7.575" y="1" width="7.425" height="14" fill="#f4f4f4" style="paint-order:markers fill stroke"/>
  <path d="m8.0288 2.4779-0.020433 10.754c-1.5444 0.065477-3.1049-0.5731-4.1604-1.7025s-1.5872-2.7295-1.4175-4.2659c0.14838-1.3437 0.82484-2.622 1.8524-3.5004 1.0276-0.87844 2.3955-1.3479 3.7459-1.2855z" fill="#f4f4f4"/>
  <path d="m7.9999 14.14c-3.3893 0-6.14-2.7507-6.14-6.14 0-3.3893 2.7507-6.1401 6.14-6.1401 3.3893 0 6.1401 2.7507 6.1401 6.1401 0 3.3893-2.7508 6.14-6.1401 6.14zm-0.42494-11.052c-2.4192 0.30086-4.4871 2.4068-4.4871 4.912 0 2.5051 2.0618 4.6111 4.4871 4.912z" fill="#0b0b0b"/>
 </g>
</svg>
