<?xml version="1.0" encoding="UTF-8"?>
<svg width="16" height="16" fill="none" version="1.1" viewBox="0 0 16 16" xmlns="http://www.w3.org/2000/svg">
 <path d="m4.7333 7.5667c0.15555-0.31111 0.31666-0.61111 0.48333-0.9s0.35-0.57778 0.55-0.86667l-0.93333-0.18333-1.4 1.4 1.3 0.55zm8.0334-4.5833c-0.7778 0.02222-1.6083 0.25-2.4914 0.68333-0.88308 0.43333-1.686 1.0111-2.4086 1.7333-0.46667 0.46667-0.88333 0.96667-1.25 1.5-0.36667 0.53334-0.63889 1.0333-0.81667 1.5l1.9 1.8833c0.46667-0.1777 0.96667-0.44995 1.5-0.81662 0.53334-0.36667 1.0333-0.78333 1.5-1.25 0.7222-0.72222 1.3-1.5222 1.7333-2.4 0.4334-0.87778 0.6611-1.7056 0.6834-2.4833 0-0.04445-0.0085-0.08889-0.0254-0.13334-0.0169-0.04444-0.0417-0.08333-0.0746-0.11666-0.0329-0.03334-0.0718-0.05823-0.1167-0.07467s-0.0893-0.02489-0.1333-0.02533zm-3.6667 4c-0.25555-0.25556-0.38333-0.56934-0.38333-0.94134s0.12778-0.686 0.38333-0.942c0.25556-0.256 0.57222-0.38378 0.95-0.38333 0.3778 4.4e-4 0.6944 0.12822 0.95 0.38333s0.3833 0.56911 0.3833 0.942-0.1277 0.68667-0.3833 0.94134c-0.2556 0.25466-0.5722 0.38244-0.95 0.38333-0.37778 8.9e-4 -0.69444-0.12689-0.95-0.38333zm-0.56666 4.3666 0.55 1.3167 1.4-1.4-0.1833-0.9334c-0.2889 0.2-0.57778 0.3807-0.86666 0.542-0.28889 0.1614-0.58889 0.3196-0.9 0.4747zm5.85-8.9c0.0889 1.2222-0.1111 2.414-0.6 3.5753-0.4889 1.1613-1.2611 2.2696-2.3166 3.3247l0.3333 1.65c0.0444 0.2222 0.0333 0.4389-0.0333 0.65-0.0667 0.2111-0.1778 0.3945-0.3334 0.55l-2.1 2.1c-0.16667 0.1667-0.36667 0.2307-0.6 0.192-0.23334-0.0387-0.39445-0.1693-0.48334-0.392l-1.0167-2.3833-2.85-2.85-2.3833-1.0167c-0.22222-0.08889-0.35555-0.25-0.4-0.48333-0.04444-0.23333 0.01667-0.43333 0.18334-0.6l2.1-2.1c0.15555-0.15556 0.34155-0.26667 0.558-0.33333 0.21644-0.06667 0.436-0.07778 0.65866-0.03334l1.65 0.33334c1.0556-1.0556 2.164-1.8278 3.3253-2.3167 1.1614-0.48889 2.3529-0.68889 3.5747-0.6 0.0889 0.01111 0.1778 0.03622 0.2667 0.07533s0.1666 0.09178 0.2333 0.158c0.0667 0.06623 0.1196 0.144 0.1587 0.23334 0.0391 0.08933 0.064 0.17822 0.0746 0.26666zm-11.767 8.2c0.38889-0.3889 0.864-0.586 1.4253-0.5913 0.56134-0.0054 1.0362 0.1862 1.4247 0.5746 0.38844 0.3885 0.58022 0.8636 0.57533 1.4254s-0.20222 1.0366-0.592 1.4246c-0.53333 0.5334-1.164 0.85-1.892 0.95s-1.4584 0.2-2.1913 0.3l0.3-2.1913c0.1-0.7275 0.41667-1.3582 0.95-1.892zm0.95 0.9333c-0.18889 0.1889-0.31933 0.4167-0.39133 0.6834-0.072 0.2666-0.13045 0.5389-0.17534 0.8166 0.27778-0.0444 0.55-0.1 0.81667-0.1666 0.26667-0.0667 0.49444-0.1945 0.68333-0.3834 0.13334-0.1333 0.20556-0.2944 0.21667-0.4833s-0.05-0.35-0.18333-0.4833c-0.13334-0.1334-0.29445-0.1974-0.48334-0.192-0.18889 0.0053-0.35 0.0749-0.48333 0.2086z" fill="#6E6E6E"/>
</svg>
