<svg width="17" height="17" viewBox="0 0 17 17" fill="none" xmlns="http://www.w3.org/2000/svg">
<g clip-path="url(#clip0_202_9)">
<path fill-rule="evenodd" clip-rule="evenodd" d="M11.1457 3.73897L6.09831 6.31198V7.83411C7.06145 7.4665 9.24693 6.73248 11.1457 6.81918V3.73897Z" fill="#6E6E6E"/>
<path fill-rule="evenodd" clip-rule="evenodd" d="M5.09831 6.31198L0.0983887 3.73897V9.26267L5.09831 11.8357V6.31198Z" fill="#6E6E6E"/>
<path fill-rule="evenodd" clip-rule="evenodd" d="M10.8057 3.04223L5.62194 0.835678L0.438156 3.04223L5.62194 5.61524L10.8057 3.04223Z" fill="#6E6E6E"/>
<path fill-rule="evenodd" clip-rule="evenodd" d="M15.7439 12.8512V16.4228L14.4855 15.1634C13.7012 15.9639 12.5899 16.4365 11.3828 16.3732C9.39007 16.2688 7.80987 14.7394 7.57781 12.8242L8.93889 12.9425C9.20675 14.0992 10.2132 14.9879 11.4581 15.0532C12.2744 15.096 13.0259 14.7759 13.5557 14.2339L12.1722 12.8512H15.7439ZM11.8063 8.29214C13.7726 8.39518 15.3372 9.88554 15.6013 11.765L14.2488 11.6472C13.9606 10.5197 12.9675 9.66029 11.7441 9.59618C10.8918 9.55151 10.1103 9.90242 9.57783 10.4884L11.0114 11.9219H7.43964V8.35019L8.64817 9.55958C9.43514 8.72424 10.5705 8.22737 11.8063 8.29214Z" fill="#389FD6"/>
</g>
<defs>
<clipPath id="clip0_202_9">
<rect width="16" height="16" fill="white" transform="translate(0.0983124 0.835678)"/>
</clipPath>
</defs>
</svg>
