<?xml version="1.0" encoding="UTF-8"?>
<svg width="16" height="16" fill="none" version="1.1" viewBox="0 0 16 16" xmlns="http://www.w3.org/2000/svg">
 <path transform="matrix(.9387 0 0 .9387 .085231 .18673)" d="m16.302 12.754v3.5716l-1.2584-1.2594c-0.7843 0.8005-1.8956 1.2731-3.1027 1.2098-1.9927-0.1044-3.5729-1.6338-3.805-3.549l1.3611 0.1183c0.26786 1.1567 1.2743 2.0454 2.5192 2.1107 0.8163 0.0428 1.5678-0.2773 2.0976-0.8193l-1.3835-1.3827zm-3.9376-4.5591c1.9663 0.10304 3.5309 1.5934 3.795 3.4729l-1.3525-0.1178c-0.2882-1.1275-1.2813-1.9869-2.5047-2.051-0.8523-0.04467-1.6338 0.30624-2.1663 0.89222l1.4336 1.4335h-3.5718v-3.5717l1.2085 1.2094c0.78697-0.83534 1.9223-1.3322 3.1581-1.2674z" clip-path="url(#clipPath3393)" clip-rule="evenodd" fill="#389fd6" fill-rule="evenodd"/>
 <defs>
  <clipPath id="clipPath3393">
   <rect x=".65607" y=".73853" width="16" height="16" fill="#fff"/>
  </clipPath>
 </defs>
 <g transform="matrix(.95963 0 0 .95963 -6.8355 -6.3286)">
  <g transform="matrix(.77162 0 0 .77162 5.5381 5.3967)">
   <rect transform="matrix(.87227 -.48902 .017392 .99985 0 0)" x="9.191" y="12.792" width="5.0774" height="4.705" fill="#ed1c24" opacity=".6" stroke-width="1.1786" style="paint-order:stroke fill markers"/>
   <rect transform="matrix(.022323 -.99975 .8739 .4861 0 0)" x="-8.4027" y="4.2038" width="4.7767" height="4.8679" fill="#00aeef" opacity=".7" stroke-width="1.1628" style="paint-order:stroke fill markers"/>
   <rect transform="matrix(.85165 .52411 -.86093 .50873 0 0)" x="7.2035" y="-2.0416" width="5.1496" height="4.705" fill="#0db14b" opacity=".7" stroke-width="1.1869" style="paint-order:stroke fill markers"/>
  </g>
  <path d="m15.372 9.305-3.4723-1.929c-0.05866-0.033859-0.12518-0.051683-0.1929-0.051683-0.06773 0-0.13425 0.017825-0.1929 0.051683l-3.4723 1.929c-0.058157 0.034484-0.10624 0.083635-0.13942 0.14255-0.03318 0.058905-0.050294 0.1255-0.049631 0.19311v3.8581c1.157e-4 0.06837 0.018395 0.1355 0.052971 0.19445s0.084199 0.10772 0.14379 0.14121l3.4723 1.929c0.05865 0.03387 0.12518 0.0517 0.1929 0.0517 0.06773 0 0.13425-0.01783 0.1929-0.0517l3.4723-1.929c0.05818-0.03449 0.10626-0.08364 0.13943-0.14252 0.03318-0.05895 0.05031-0.12554 0.04962-0.19314v-3.8581c-1.58e-4 -0.068358-0.01837-0.13547-0.05301-0.19444-0.03457-0.058983-0.08419-0.10771-0.14375-0.14121zm-3.6613-1.1536 2.6775 1.4892-2.6775 1.4892-2.6775-1.4892zm-3.0865 2.1451 2.7007 1.5008v2.9746l-2.7007-1.5008zm3.4723 4.4754v-2.9746l2.7007-1.5008v2.9746z" fill="#6e6e6e" stroke-width=".77162"/>
 </g>
</svg>
