<?xml version="1.0" encoding="UTF-8"?>
<svg width="16" height="16" fill="none" version="1.1" viewBox="0 0 16 16" xmlns="http://www.w3.org/2000/svg">
 <g transform="matrix(.93756 0 0 .93756 .5 .24081)" clip-path="url(#clip0_505_11)" stroke-width="1.0666">
  <path d="m4.0731 5.5817c-0.31775-0.03006-0.63823 0.00981-0.93893 0.11682-0.30069 0.10701-0.57432 0.27857-0.80164 0.50261-0.22469 0.22265-0.39721 0.49237-0.50514 0.78971-0.05027 0.19105-0.0809 0.38673-0.09143 0.584-0.02286 0.29143-0.02286 0.56 0 0.85029 0.02286 0.27542 0.05943 0.496 0.09143 0.58285 0.10751 0.29915 0.28032 0.57059 0.50589 0.79457 0.22557 0.22403 0.49821 0.39493 0.79811 0.50033 0.30057 0.1074 0.62286 0.1474 0.94171 0.1165 0.0266-0.0024 0.0533-0.0035 0.08-0.0034 0.42629 0 0.89143-0.2286 1.4526-0.77714 0.448-0.43886 0.88-1.0046 1.3394-1.6377-0.45828-0.63315-0.89143-1.1989-1.3394-1.6366-0.56114-0.55085-1.0263-0.77828-1.4514-0.77828-0.02709 1.4e-4 -0.05417-0.00101-0.08115-0.00343zm3.9269 3.8777c-0.36261 0.49652-0.76182 0.96527-1.1943 1.4023-0.68342 0.6686-1.5451 1.2526-2.6103 1.2674-0.5619 0.0474-1.1274-0.0275-1.6575-0.2197-0.53014-0.1922-1.0123-0.497-1.4133-0.8934-0.40485-0.4015-0.71556-0.8879-0.90971-1.424-0.11886-0.328-0.16457-0.75885-0.18629-1.0286-0.017301-0.18733-0.026833-0.3753-0.028571-0.56343 0-0.18743 0.011429-0.37714 0.027429-0.56343 0.022857-0.26971 0.068571-0.70057 0.18629-1.0286 0.19376-0.53655 0.50423-1.0234 0.90899-1.4254s0.89372-0.70911 1.4316-0.89919c0.52571-0.18743 1.0857-0.25943 1.64-0.21257 1.0651 0.01486 1.9268 0.59886 2.6103 1.2674 0.42057 0.41143 0.81829 0.90171 1.1943 1.4023 0.36261-0.49652 0.76182-0.96525 1.1943-1.4023 0.68343-0.66857 1.5452-1.2526 2.6103-1.2674 0.5619-0.04754 1.1275 0.02736 1.6576 0.21954 0.5302 0.19217 1.0124 0.49705 1.4133 0.8936 0.4046 0.40229 0.7154 0.888 0.9097 1.424 0.1189 0.328 0.1646 0.75886 0.1863 1.0286 0.016 0.18743 0.0274 0.376 0.0286 0.56343 0 0.18743-0.0126 0.37715-0.0286 0.56343-0.0229 0.26972-0.0686 0.70057-0.1863 1.0286-0.1938 0.5366-0.5042 1.0234-0.909 1.4254-0.4047 0.402-0.8937 0.7091-1.4316 0.8992-0.5257 0.1874-1.0857 0.2594-1.64 0.2125-1.0651-0.0148-1.9268-0.5988-2.6103-1.2674-0.43246-0.437-0.83053-0.90575-1.1931-1.4023zm6.2629-1.0343c-0.0229 0.27542-0.0583 0.496-0.0903 0.58285-0.1077 0.29894-0.2806 0.57015-0.5061 0.79393-0.2256 0.22377-0.4981 0.39447-0.7979 0.49977-0.3013 0.1072-0.6223 0.147-0.9406 0.1166-0.0274-0.0025-0.0548-0.0036-0.0823-0.0034-0.4251 0-0.8903-0.2286-1.4514-0.77718-0.44801-0.43886-0.88001-1.0046-1.3394-1.6377 0.45828-0.63314 0.89143-1.1988 1.3394-1.6366 0.5611-0.55086 1.0263-0.77828 1.4514-0.77828 0.0275 1.7e-4 0.0549-9.8e-4 0.0823-0.00343 0.3176-0.02989 0.6378 0.01007 0.9383 0.11707 0.3005 0.10701 0.5739 0.27847 0.8011 0.50236 0.2252 0.224 0.3977 0.49371 0.5052 0.78971 0.032 0.088 0.0685 0.30857 0.0914 0.584 0.0229 0.29143 0.0229 0.56 0 0.85029z" clip-rule="evenodd" fill="#6e6e6e" fill-rule="evenodd" stroke-width="1.0666"/>
 </g>
 <defs>
  <clipPath id="clip0_505_11">
   <rect width="16" height="16" fill="#fff"/>
  </clipPath>
 </defs>
</svg>
