<svg width="16" height="16" viewBox="0 0 16 16" fill="none" xmlns="http://www.w3.org/2000/svg">
<path fill-rule="evenodd" clip-rule="evenodd" d="M5.61632 0C4.61504 0 3.79472 0.8216 3.79472 1.82288C3.79472 2.2952 3.98208 2.72368 4.28032 3.0488L2.78464 6.0672C2.73056 6.06224 2.67824 6.05088 2.62288 6.05088C1.6216 6.05088 0.800003 6.8712 0.800003 7.87248C0.800003 8.87376 1.6216 9.69536 2.62288 9.69536C3.25648 9.69536 3.81648 9.36512 4.14336 8.86976L11.6106 9.94752C11.8046 10.7448 12.523 11.345 13.3771 11.345C14.3784 11.345 15.2 10.5248 15.2 9.52336C15.2 8.55344 14.4272 7.75728 13.4688 7.70816L12.4875 4.64688C12.9074 4.312 13.1837 3.80272 13.1837 3.22816C13.1837 2.22688 12.3622 1.40496 11.361 1.40496C10.7266 1.40496 10.1661 1.73536 9.83904 2.23184L7.41408 1.5696C7.28848 0.68768 6.53088 0 5.61632 0ZM5.61632 0.92336C6.11872 0.92336 6.51712 1.32048 6.51712 1.82288C6.51712 2.32528 6.11872 2.72256 5.61632 2.72256C5.11392 2.72256 4.71808 2.32512 4.71808 1.82288C4.71808 1.32048 5.11392 0.92336 5.61632 0.92336V0.92336ZM11.361 2.32848C11.8634 2.32848 12.2594 2.72576 12.2594 3.22816C12.2594 3.73056 11.8634 4.12736 11.361 4.12736C10.8586 4.12736 10.4603 3.73056 10.4603 3.22816C10.4603 2.72576 10.8587 2.32848 11.361 2.32848ZM7.17568 2.74992L9.5544 3.40112C9.6432 4.31952 10.4152 5.04656 11.3547 5.04976L12.3144 8.05056C12.0664 8.23072 11.871 8.47264 11.7374 8.75056L4.42688 7.69568C4.38256 7.25408 4.18624 6.856 3.88128 6.56288L5.33904 3.61808C5.43024 3.63248 5.52112 3.64592 5.61632 3.64592C6.27856 3.64592 6.85616 3.28336 7.17568 2.74992V2.74992ZM2.62288 6.9728C3.12528 6.9728 3.52368 7.37008 3.52368 7.87248C3.52449 7.99099 3.50174 8.10848 3.45676 8.21813C3.41177 8.32778 3.34545 8.42739 3.26164 8.51119C3.17783 8.59498 3.0782 8.66129 2.96855 8.70626C2.85889 8.75122 2.7414 8.77395 2.62288 8.77312C2.12048 8.77312 1.72336 8.37472 1.72336 7.87248C1.7224 7.75408 1.74502 7.63667 1.78988 7.52709C1.83474 7.41752 1.90096 7.31796 1.98468 7.23423C2.0684 7.1505 2.16794 7.08426 2.27751 7.03938C2.38708 6.99449 2.50448 6.97186 2.62288 6.9728V6.9728ZM13.3771 8.62288C13.8795 8.62288 14.2766 9.02112 14.2766 9.52336C14.2766 10.0258 13.8795 10.4206 13.3771 10.4206C12.8747 10.4206 12.4763 10.0258 12.4763 9.52336C12.4755 9.40486 12.4983 9.28739 12.5433 9.17776C12.5883 9.06813 12.6546 8.96853 12.7384 8.88476C12.8222 8.80098 12.9219 8.73469 13.0315 8.68973C13.1411 8.64477 13.2586 8.62205 13.3771 8.62288ZM0.800003 12.16V16H15.2V12.16H14.1968V15.0234H12.9669V12.9878H11.9637V15.0234H10.7347V12.9878H9.73184V15.0234H8.50144V12.16H7.4984V15.0234H6.268V12.9878H5.26528V15.0234H4.03632V12.9878H3.03312V15.0234H1.8032V12.16H0.800003Z" fill="#6E6E6E"/>
</svg>
