<?xml version="1.0" encoding="UTF-8"?>
<svg width="16" height="16" fill="none" version="1.1" viewBox="0 0 16 16" xmlns="http://www.w3.org/2000/svg">
 <g clip-rule="evenodd" fill-rule="evenodd">
  <path d="m8 15c-3.866 0-7-3.134-7-7s3.134-7 7-7 7 3.134 7 7-3.134 7-7 7z" fill="none" stroke="#6e6e6e"/>
  <path transform="translate(-.45016)" d="m5.9043 4.4043-3.3535 3.3535a0.34177 0.34177 0 0 0 0 0.48438l3.3535 3.3535a0.34177 0.34177 0 0 0 0.48438 0l0.70703-0.70703a0.34177 0.34177 0 0 0 0-0.48438l-2.4043-2.4043 2.4043-2.4043a0.34177 0.34177 0 0 0 0-0.48438l-0.70703-0.70703a0.34177 0.34177 0 0 0-0.48438 0z" fill="#389fd6" style="paint-order:markers stroke fill"/>
  <path transform="rotate(180,8.2252,8)" d="m5.9043 4.4043-3.3535 3.3535a0.34177 0.34177 0 0 0 0 0.48438l3.3535 3.3535a0.34177 0.34177 0 0 0 0.48438 0l0.70703-0.70703a0.34177 0.34177 0 0 0 0-0.48438l-2.4043-2.4043 2.4043-2.4043a0.34177 0.34177 0 0 0 0-0.48438l-0.70703-0.70703a0.34177 0.34177 0 0 0-0.48438 0z" fill="#389fd6" style="paint-order:markers stroke fill"/>
 </g>
</svg>
