<?xml version="1.0" encoding="UTF-8"?>
<svg width="30" height="30" version="1.1" viewBox="0 0 30 30" xmlns="http://www.w3.org/2000/svg">
 <g transform="matrix(2.1445 0 0 2.1445 -1.1445 -1.1445)" stroke-width=".78566">
  <g fill="#6e6e6e">
   <path transform="matrix(.46631 0 0 .46631 .53369 .53369)" d="m1 11.109v4.873c0 4.7542 3.7694 8.6055 8.4238 8.6055 1.688 0 2.2585-0.5084 3.5762-1.3809v-10.207h4.8477v-1.8906z" stroke-width="1.6848"/>
   <path d="m6.896 1v3.9283h1.8652c0-2.0464-0.84195-3.6825-1.8652-3.9283z" stroke-width=".57066"/>
   <path d="m2.8652 1c-1.0233 0.24576-1.8652 1.8819-1.8652 3.9283h1.8652z" stroke-width=".57066"/>
  </g>
  <rect x="4.66" y="2.3484" width=".53446" height="1.1859" fill="#389fd6" stroke-width="0"/>
  <g transform="matrix(.58512 0 0 .49102 2.8793 .50898)" fill="#389fd6" fill-rule="evenodd">
   <polygon points="3.5 1 6 4 1 4"/>
   <polygon transform="matrix(1,0,0,-1,0,15)" points="3.5 6 6 9 1 9"/>
  </g>
 </g>
</svg>
