<svg width="16" height="16" viewBox="0 0 16 16" fill="none" xmlns="http://www.w3.org/2000/svg">
<path d="M8 1.33333C4.32 1.33333 1.33333 4.32 1.33333 8C1.33333 11.68 4.32 14.6667 8 14.6667C11.68 14.6667 14.6667 11.68 14.6667 8C14.6667 4.32 11.68 1.33333 8 1.33333ZM8 13.3333C5.05333 13.3333 2.66666 10.9467 2.66666 8C2.66666 6.76666 3.08666 5.63333 3.79333 4.73333L11.2667 12.2067C10.3354 12.9388 9.18459 13.3357 8 13.3333V13.3333ZM12.2067 11.2667L4.73333 3.79333C5.66457 3.06117 6.8154 2.66425 8 2.66666C10.9467 2.66666 13.3333 5.05333 13.3333 8C13.3333 9.23333 12.9133 10.3667 12.2067 11.2667Z" fill="#6E6E6E"/>
</svg>
