<?xml version="1.0" encoding="UTF-8"?>
<!-- Copyright 2000-2021 JetBrains s.r.o. Use of this source code is governed by the Apache 2.0 license that can be found in the LICENSE file. -->
<svg width="16" height="16" version="1.1" viewBox="0 0 16 16" xmlns="http://www.w3.org/2000/svg">
 <path d="m2.7171 11.046s1.8182-1.8872 1.8182-1.8872l2.1402 2.0594s-1.7679 2.0351-1.7679 2.0351l-2.1905-2.2073z" fill="#59a869"/>
 <path d="m15.049 2.6747-1.7242-1.7242c-0.28737-0.28737-0.75158-0.28737-1.0389 0l-2.2989 2.299-1.4221-1.4074-1.0389 1.039 1.0463 1.0463-6.5726 6.5727v3.5h3.5l6.5726-6.5727 1.0463 1.0463 1.0389-1.039-1.4147-1.4147 2.2989-2.299c0.29474-0.29474 0.29474-0.75895 0.0074-1.0463zm-10.161 9.8516-1.4147-1.4147 5.9389-5.939 1.4147 1.4147z" fill="#6e6e6e"/>
</svg>
