<svg width="16" height="16" viewBox="0 0 16 16" fill="none" xmlns="http://www.w3.org/2000/svg">
<path d="M1.33334 8.66666C1.33327 9.73906 1.62062 10.7919 2.16549 11.7155C2.71036 12.6392 3.49282 13.3999 4.43145 13.9186C5.37008 14.4373 6.43056 14.6949 7.50253 14.6646C8.5745 14.6344 9.61877 14.3174 10.5267 13.7467L9.55334 12.7733C8.89334 13.1267 8.13334 13.3333 7.33334 13.3333C4.76 13.3333 2.66667 11.24 2.66667 8.66666C2.66667 6.09333 4.76 4 7.33334 4H7.44667L6.39334 5.06L7.33334 6L10 3.33333L7.33334 0.666664L6.38667 1.60666L7.44667 2.66666H7.33334C5.74204 2.66666 4.21591 3.2988 3.0907 4.42402C1.96548 5.54924 1.33334 7.07536 1.33334 8.66666V8.66666ZM7.33334 8.66666L11.3333 12.6667L15.3333 8.66666L11.3333 4.66666L7.33334 8.66666ZM11.3333 10.78L9.22 8.66666L11.3333 6.55333L13.4467 8.66666L11.3333 10.78Z" fill="#6E6E6E"/>
</svg>
