<svg width="16" height="16" viewBox="0 0 16 16" fill="none" xmlns="http://www.w3.org/2000/svg">
<path d="M14 15H8C7.73486 14.9997 7.48066 14.8943 7.29319 14.7068C7.10571 14.5193 7.00026 14.2651 7 14V8C7.00026 7.73486 7.10571 7.48066 7.29319 7.29319C7.48066 7.10571 7.73486 7.00026 8 7H14C14.2651 7.00026 14.5193 7.10571 14.7068 7.29319C14.8943 7.48066 14.9997 7.73486 15 8V14C14.9997 14.2651 14.8943 14.5193 14.7068 14.7068C14.5193 14.8943 14.2651 14.9997 14 15ZM8 8V14H14.0005L14 8H8Z" fill="#6E6E6E"/>
<path d="M7.5 1L6.795 1.705L8.085 3H5.5C4.57207 3.00106 3.68244 3.37015 3.0263 4.0263C2.37015 4.68244 2.00106 5.57207 2 6.5V9H3V6.5C3.00079 5.8372 3.26444 5.20178 3.73311 4.73311C4.20178 4.26444 4.8372 4.00079 5.5 4H8.085L6.795 5.295L7.5 6L10 3.5L7.5 1Z" fill="#6E6E6E"/>
</svg>
