<svg width="16" height="16" viewBox="0 0 16 16" fill="none" xmlns="http://www.w3.org/2000/svg">
<path d="M1 14V8C1.00026 7.73486 1.10571 7.48066 1.29319 7.29319C1.48066 7.10571 1.73486 7.00026 2 7H8C8.26514 7.00026 8.51934 7.10571 8.70681 7.29319C8.89429 7.48066 8.99974 7.73486 9 8V14C8.99974 14.2651 8.89429 14.5193 8.70681 14.7068C8.51934 14.8943 8.26514 14.9997 8 15H2C1.73486 14.9997 1.48066 14.8943 1.29319 14.7068C1.10571 14.5193 1.00026 14.2651 1 14ZM2 8L1.9995 14H8V8H2Z" fill="#6E6E6E"/>
<path d="M8.5 1L9.205 1.705L7.915 3H10.5C11.4279 3.00106 12.3176 3.37015 12.9737 4.0263C13.6299 4.68244 13.9989 5.57207 14 6.5V9H13V6.5C12.9992 5.8372 12.7356 5.20178 12.2669 4.73311C11.7982 4.26444 11.1628 4.00079 10.5 4H7.915L9.205 5.295L8.5 6L6 3.5L8.5 1Z" fill="#6E6E6E"/>
</svg>
