<svg width="16" height="16" viewBox="0 0 16 16" fill="none" xmlns="http://www.w3.org/2000/svg">
<path d="M1.33333 2.66667C1.33333 2.31305 1.47381 1.97391 1.72386 1.72386C1.97391 1.47381 2.31305 1.33334 2.66667 1.33334H4.66667V2.66667H2.66667V4.66667H1.33333V2.66667ZM14.6667 2.66667V4.66667H13.3333V2.66667H11.3333V1.33334H13.3333C13.687 1.33334 14.0261 1.47381 14.2761 1.72386C14.5262 1.97391 14.6667 2.31305 14.6667 2.66667ZM13.3333 13.3333V11.3333H14.6667V13.3333C14.6667 13.687 14.5262 14.0261 14.2761 14.2761C14.0261 14.5262 13.687 14.6667 13.3333 14.6667H11.3333V13.3333H13.3333ZM1.33333 13.3333V11.3333H2.66667V13.3333H4.66667V14.6667H2.66667C2.31305 14.6667 1.97391 14.5262 1.72386 14.2761C1.47381 14.0261 1.33333 13.687 1.33333 13.3333ZM6.66667 1.33334H9.33333V2.66667H6.66667V1.33334ZM6.66667 13.3333H9.33333V14.6667H6.66667V13.3333ZM13.3333 6.66667H14.6667V9.33334H13.3333V6.66667ZM1.33333 6.66667H2.66667V9.33334H1.33333V6.66667Z" fill="#6E6E6E"/>
</svg>
