<?xml version="1.0" encoding="UTF-8"?>
<svg width="16" height="16" version="1.1" viewBox="0 0 16 16" xmlns="http://www.w3.org/2000/svg">
 <g fill="#6e6e6e">
  <path d="m6.6667 1.3333h2.6667v1.3333h-2.6667z"/>
  <path d="m14.667 2.6667v2h-1.3334v-2h-2v-1.3333h2c0.7334 0 1.3334 0.6 1.3334 1.3333z"/>
  <path d="m1.3333 2.6667c0-0.35362 0.14048-0.69276 0.39053-0.94281 0.25004-0.25005 0.58918-0.39052 0.94281-0.39052h2v1.3333h-2v2h-1.3333z"/>
  <path d="m1.3333 6.6667h1.3333v2.6667h-1.3333z"/>
  <path d="m13.333 6.6667h1.3334v2.6667h-1.3334z"/>
 </g>
 <path d="M 9.72667,5.33334 8,7.06 6.27333,5.33334 l -0.94,0.94 L 7.06,8 5.33333,9.72667 6.27333,10.6667 8,8.94 9.72667,10.6667 10.6667,9.72667 8.94,8 10.6667,6.27334 Z" fill="#db5860"/>
 <g fill="#6e6e6e">
  <path d="m6.6667 13.333h2.6667v1.3334h-2.6667z"/>
  <path d="m1.3333 13.333v-2h1.3333v2h2v1.3334h-2c-0.73334 0-1.3333-0.6-1.3333-1.3334z"/>
  <path d="m13.333 13.333v-2h1.3334v2c0 0.3537-0.1405 0.6928-0.3906 0.9428-0.25 0.2501-0.5891 0.3906-0.9428 0.3906h-2v-1.3334z"/>
 </g>
</svg>
