<?xml version="1.0" encoding="UTF-8"?>
<svg width="16" height="16" fill="none" version="1.1" viewBox="0 0 16 16" xmlns="http://www.w3.org/2000/svg">
 <path d="m1.3076 5.1198 6.4905 3.539c0.06377 0.027337 0.13209 0.040997 0.20496 0.040997 0.036441 0 0.072882-0.00456 0.10931-0.01366 0.036441-0.00911 0.068326-0.018225 0.095654-0.027337l6.5725-3.539c0.15488-0.081986 0.22772-0.21407 0.21863-0.39627 0-0.081977-0.02046-0.15713-0.06148-0.22546-0.04101-0.068317-0.09795-0.1207-0.17079-0.15714l-6.4906-3.2931c-0.13664-0.063767-0.26873-0.063767-0.39626 0l-6.5588 3.2931c-0.072873 0.036441-0.13209 0.088824-0.17764 0.15714-0.045545 0.068326-0.068317 0.14348-0.068317 0.22546 0 0.1822 0.077429 0.31428 0.23229 0.39627zm6.7638-3.1974 5.5477 2.8285-5.616 3.0198-5.5477-3.0198zm6.6135 5.6297-1.2981-0.65588-0.92917 0.50557 1.0931 0.56024-5.616 3.0198-5.5477-3.0198 1.1615-0.58756-0.92917-0.50558-1.3801 0.68321c-0.15486 0.081986-0.23457 0.2118-0.23913 0.38943-0.00456 0.17764 0.070598 0.30745 0.22546 0.38943l6.4905 3.539c0.072873 0.03647 0.14576 0.05466 0.21863 0.05466 0.036432 0 0.070599-0.0045 0.10248-0.01364 0.031876-0.0091 0.066043-0.02283 0.10248-0.04101l6.5588-3.5391c0.15488-0.081977 0.23236-0.21179 0.23236-0.38943 0-0.17763-0.08203-0.30744-0.246-0.38943zm0 3.0608-1.2297-0.60123-0.92917 0.50556 1.0248 0.50564-5.616 3.0198-5.5477-3.0198 1.0795-0.492-0.92917-0.50556-1.2981 0.58758c-0.15486 0.08203-0.23457 0.21181-0.23913 0.38942-0.00456 0.17761 0.070598 0.30748 0.22546 0.38942l6.4905 3.5391c0.027328 0.0091 0.052375 0.01819 0.075156 0.02737 0.022772 0.0091 0.045545 0.01592 0.068317 0.02046 0.022772 0.0045 0.047827 0.0068 0.075156 0.0068 0.036432 0 0.070599-0.0045 0.10248-0.01364 0.031876-0.0091 0.066043-0.02283 0.10248-0.04101l6.5588-3.5391c0.15488-0.08194 0.23236-0.21181 0.23236-0.38942 0-0.17761-0.08203-0.30739-0.246-0.38942z" fill="#6e6e6e" stroke-width=".87451"/>
</svg>
