<svg width="17" height="16" viewBox="0 0 17 16" fill="none" xmlns="http://www.w3.org/2000/svg">
<path d="M1.34374 4.71875L8.76562 8.76562C8.83854 8.79688 8.91666 8.8125 8.99999 8.8125C9.04166 8.8125 9.08333 8.80729 9.12499 8.79688C9.16666 8.78646 9.20312 8.77604 9.23437 8.76562L16.75 4.71875C16.9271 4.625 17.0104 4.47396 17 4.26562C17 4.17188 16.9766 4.08594 16.9297 4.00781C16.8828 3.92969 16.8177 3.86979 16.7344 3.82812L9.31249 0.0625C9.15624 -0.0104167 9.0052 -0.0104167 8.85937 0.0625L1.35937 3.82812C1.27604 3.86979 1.20833 3.92969 1.15624 4.00781C1.10416 4.08594 1.07812 4.17188 1.07812 4.26562C1.07812 4.47396 1.16666 4.625 1.34374 4.71875ZM9.07812 1.0625L15.4219 4.29688L8.99999 7.75L2.65624 4.29688L9.07812 1.0625ZM16.6406 7.5L15.1562 6.75L14.0937 7.32812L15.3437 7.96875L8.92187 11.4219L2.57812 7.96875L3.90624 7.29688L2.84374 6.71875L1.26562 7.5C1.08854 7.59375 0.99739 7.74219 0.992182 7.94531C0.986973 8.14844 1.07291 8.29688 1.24999 8.39062L8.67187 12.4375C8.7552 12.4792 8.83854 12.5 8.92187 12.5C8.96353 12.5 9.0026 12.4948 9.03906 12.4844C9.07551 12.474 9.11458 12.4583 9.15624 12.4375L16.6562 8.39062C16.8333 8.29688 16.9219 8.14844 16.9219 7.94531C16.9219 7.74219 16.8281 7.59375 16.6406 7.5ZM16.6406 11L15.2344 10.3125L14.1719 10.8906L15.3437 11.4688L8.92187 14.9219L2.57812 11.4688L3.81249 10.9062L2.74999 10.3281L1.26562 11C1.08854 11.0938 0.99739 11.2422 0.992182 11.4453C0.986973 11.6484 1.07291 11.7969 1.24999 11.8906L8.67187 15.9375C8.70312 15.9479 8.73176 15.9583 8.75781 15.9688C8.78385 15.9792 8.80989 15.987 8.83593 15.9922C8.86197 15.9974 8.89062 16 8.92187 16C8.96353 16 9.0026 15.9948 9.03906 15.9844C9.07551 15.974 9.11458 15.9583 9.15624 15.9375L16.6562 11.8906C16.8333 11.7969 16.9219 11.6484 16.9219 11.4453C16.9219 11.2422 16.8281 11.0938 16.6406 11Z" fill="#6E6E6E"/>
</svg>
