<svg width="16" height="16" viewBox="0 0 16 16" fill="none" xmlns="http://www.w3.org/2000/svg">
<path d="M12.9 3.96667L11.8667 4.8C12.6 5.7 13 6.83333 13 7.96667C13 10.7333 10.7667 12.9667 8 12.9667C7.7 12.9667 7.36667 12.9333 7.06667 12.8667L6.83333 14.1667C7.23333 14.2333 7.63333 14.2667 8 14.2667C11.5 14.2667 14.3333 11.4333 14.3333 7.93333C14.3333 6.53333 13.8333 5.1 12.9 3.96667V3.96667Z" fill="#6E6E6E"/>
<path d="M10.3333 2.66667L14.3 3.2L11.0333 6.46667L10.3333 2.66667Z" fill="#6E6E6E"/>
<path d="M8 1.66667C4.5 1.66667 1.66667 4.5 1.66667 8C1.66667 9.53333 2.2 11 3.2 12.1333L4.2 11.2667C3.43333 10.3667 3 9.2 3 8C3 5.23333 5.23333 3 8 3C8.3 3 8.63333 3.03333 8.93333 3.1L9.16667 1.8C8.8 1.7 8.4 1.66667 8 1.66667Z" fill="#6E6E6E"/>
<path d="M5.66667 13.3333L1.7 12.8L4.96667 9.53333L5.66667 13.3333Z" fill="#6E6E6E"/>
</svg>
