<?xml version="1.0" encoding="UTF-8"?>
<svg width="16" height="16" version="1.1" viewBox="0 0 16 16" xmlns="http://www.w3.org/2000/svg">
 <g transform="matrix(1.0976 0 0 1.0976 -.78089 -.78085)" fill="#6e6e6e">
  <path d="m13.4 4.467-1.0333 0.83333c0.7333 0.9 1.1333 2.0333 1.1333 3.1667 0 2.7666-2.2333 5-5 5-0.3 0-0.63333-0.0334-0.93333-0.1l-0.23334 1.3c0.4 0.0666 0.8 0.1 1.1667 0.1 3.5 0 6.3333-2.8334 6.3333-6.3334 0-1.4-0.5-2.8333-1.4333-3.9667z"/>
  <path d="m10.833 3.167 3.9667 0.53333-3.2667 3.2667z"/>
  <path d="m7.5003 1.167c-3.5 0-6.3333 2.8333-6.3333 6.3333 0 1.5333 0.53333 3 1.5333 4.1333l1-0.8666c-0.76667-0.9-1.2-2.0667-1.2-3.2667 0-2.7667 2.2333-5 5-5 0.3 0 0.63333 0.03333 0.93333 0.1l0.23334-1.3c-0.36667-0.1-0.76667-0.13333-1.1667-0.13333z"/>
  <path d="m5.167 12.834-3.9667-0.5333 3.2667-3.2667z"/>
 </g>
 <path d="m11.22 7.2345h-2.412l-0.80789-2.3333-0.80789 2.3333-2.412 0.006124 1.913 1.4708-0.68306 2.3146 1.99-1.3647 1.99 1.3647-0.68306-2.3143z" fill="#6e6e6e" stroke-width=".29166"/>
</svg>
