<?xml version="1.0" encoding="UTF-8"?>
<svg width="16" height="16" fill="none" version="1.1" viewBox="0 0 16 16" xmlns="http://www.w3.org/2000/svg">
 <g transform="matrix(1.1022 0 0 1.1022 -7.3222 -1.9597)">
  <g transform="matrix(.77162 0 0 .77162 5.5381 5.3967)">
   <rect transform="matrix(.87227 -.48902 .017392 .99985 0 0)" x="9.191" y="12.792" width="5.0774" height="4.705" fill="#ed1c24" opacity=".6" stroke-width="1.1786" style="paint-order:stroke fill markers"/>
   <rect transform="matrix(.022323 -.99975 .8739 .4861 0 0)" x="-8.4027" y="4.2038" width="4.7767" height="4.8679" fill="#00aeef" opacity=".7" stroke-width="1.1628" style="paint-order:stroke fill markers"/>
   <rect transform="matrix(.85165 .52411 -.86093 .50873 0 0)" x="7.2035" y="-2.0416" width="5.1496" height="4.705" fill="#0db14b" opacity=".7" stroke-width="1.1869" style="paint-order:stroke fill markers"/>
  </g>
  <path d="m15.372 9.305-3.4723-1.929c-0.05866-0.033859-0.12518-0.051683-0.1929-0.051683-0.06773 0-0.13425 0.017825-0.1929 0.051683l-3.4723 1.929c-0.058157 0.034484-0.10624 0.083635-0.13942 0.14255-0.03318 0.058905-0.050294 0.1255-0.049631 0.19311v3.8581c1.157e-4 0.06837 0.018395 0.1355 0.052971 0.19445s0.084199 0.10772 0.14379 0.14121l3.4723 1.929c0.05865 0.03387 0.12518 0.0517 0.1929 0.0517 0.06773 0 0.13425-0.01783 0.1929-0.0517l3.4723-1.929c0.05818-0.03449 0.10626-0.08364 0.13943-0.14252 0.03318-0.05895 0.05031-0.12554 0.04962-0.19314v-3.8581c-1.58e-4 -0.068358-0.01837-0.13547-0.05301-0.19444-0.03457-0.058983-0.08419-0.10771-0.14375-0.14121zm-3.6613-1.1536 2.6775 1.4892-2.6775 1.4892-2.6775-1.4892zm-3.0865 2.1451 2.7007 1.5008v2.9746l-2.7007-1.5008zm3.4723 4.4754v-2.9746l2.7007-1.5008v2.9746z" fill="#6e6e6e" stroke-width=".77162"/>
 </g>
 <path d="m14.166 6.9997c0.1208 0 0.2375 0.04376 0.3286 0.12317 0.091 0.07942 0.1503 0.18912 0.1667 0.30882l0.0047 0.06801v5.6667c0 0.38-0.1442 0.746-0.4036 1.0238s-0.6146 0.4468-0.9938 0.4728l-0.1026 0.0034h-1.3334c-0.1267-1e-4 -0.2486-0.0482-0.3412-0.1347-0.0925-0.0865-0.1488-0.2049-0.1575-0.3313-0.0086-0.1263 0.0311-0.2513 0.111-0.3496 0.08-0.0982 0.1942-0.1625 0.3197-0.1798l0.068-0.0046h1.3334c0.1208 0 0.2375-0.0438 0.3286-0.1232 0.091-0.0794 0.1503-0.1891 0.1667-0.3088l0.0047-0.068v-5.6667c0-0.13261 0.0526-0.25979 0.1464-0.35356s0.221-0.14644 0.3536-0.14644zm0-5.6667 0.0466 2e-3 0.0674 0.01133 0.0453 0.01267 0.04 0.01533 0.0467 0.02333 0.0546 0.036 0.0534 0.04667 0.034 0.03733 0.03 0.04134 0.0333 0.06 0.0113 0.02466 0.016 0.044c0.0074 0.02467 0.0134 0.05067 0.0167 0.07734l0.0047 0.068v3.3333c-9.9e-5 0.12668-0.0482 0.24863-0.1347 0.3412-0.0865 0.09256-0.2049 0.14885-0.3313 0.15749-0.1263 0.00863-0.2513-0.03103-0.3496-0.11098-0.0982-0.07994-0.1625-0.19421-0.1798-0.31971l-0.0046-0.068v-2.1267l-2.98 2.98c-0.0894 0.08864-0.2088 0.14033-0.3346 0.14476-0.1258 0.00443-0.2486-0.03873-0.3439-0.12086-0.09539-0.08214-0.15625-0.1972-0.1705-0.32224-0.01424-0.12504 0.01919-0.25085 0.09363-0.35232l0.04867-0.056 2.9787-2.98h-2.1254c-0.1208-1e-5 -0.2375-0.04376-0.3286-0.12318-0.0911-0.07942-0.1503-0.18912-0.1667-0.30882l-0.0047-0.068c0-0.12083 0.0438-0.23756 0.1232-0.32862s0.1891-0.15028 0.3088-0.16672l0.068-0.00466zm-5.6667 0c0.12668 4e-5 0.24862 0.04816 0.34119 0.13465 0.09257 0.08648 0.14885 0.20488 0.15749 0.33127 0.0086 0.12639-0.03103 0.25134-0.11097 0.34961-0.07995 0.09827-0.19421 0.16253-0.31971 0.1798l-0.068 0.00467h-5.6667c-0.12083 0-0.23756 0.04376-0.32862 0.12318-0.09106 0.07941-0.15028 0.18912-0.16672 0.30882l-0.00466 0.068v2.6667c-4e-5 0.12668-0.04816 0.24862-0.13465 0.34119s-0.20488 0.14885-0.33127 0.15749c-0.12639 0.00863-0.25134-0.03103-0.34961-0.11097-0.09828-0.07995-0.16254-0.19421-0.17981-0.31971l-0.00466-0.068v-2.6667c-5e-5 -0.38009 0.1442-0.74602 0.40358-1.0238s0.61456-0.44681 0.99375-0.47283l0.10267-0.00333z" fill="#6e6e6e"/>
</svg>
