<?xml version="1.0" encoding="UTF-8"?>
<svg width="16" height="16" fill="none" version="1.1" viewBox="0 0 16 16" xmlns="http://www.w3.org/2000/svg">
 <g>
  <rect transform="matrix(.87227 -.48902 .017392 .99985 0 0)" x="9.191" y="12.792" width="5.0774" height="4.705" fill="#ed1c24" opacity=".6" stroke-width="1.1786" style="paint-order:stroke fill markers"/>
  <rect transform="matrix(.022323 -.99975 .8739 .4861 0 0)" x="-8.4027" y="4.2038" width="4.7767" height="4.8679" fill="#00aeef" opacity=".7" stroke-width="1.1628" style="paint-order:stroke fill markers"/>
  <rect transform="matrix(.85165 .52411 -.86093 .50873 0 0)" x="7.2035" y="-2.0416" width="5.1496" height="4.705" fill="#0db14b" opacity=".7" stroke-width="1.1869" style="paint-order:stroke fill markers"/>
 </g>
 <g fill="#6E6E6E">
  <path d="M5.5 1H1V5.5H2V2H5.5V1Z"/>
  <path d="M1 10.5V15H5.5V14H2V10.5H1Z"/>
  <path d="M15 5.5V1H10.5V2H14V5.5H15Z"/>
  <path d="M10.5 15H15V10.5H14V14H10.5V15Z"/>
 </g>
 <path d="m12.745 5.065-4.5-2.5c-0.07601-0.04388-0.16223-0.06698-0.25-0.06698s-0.17399 0.0231-0.25 0.06698l-4.5 2.5c-0.07537 0.04469-0.13768 0.10839-0.18068 0.18474-0.043 0.07634-0.06518 0.16265-0.06432 0.25026v5c1.5e-4 0.0886 0.02384 0.1756 0.06865 0.252s0.10912 0.1396 0.18635 0.183l4.5 2.5c0.07601 0.0439 0.16223 0.067 0.25 0.067s0.17399-0.0231 0.25-0.067l4.5-2.5c0.0754-0.0447 0.1377-0.1084 0.1807-0.1847 0.043-0.0764 0.0652-0.1627 0.0643-0.2503v-5c-2e-4 -0.08859-0.0238-0.17556-0.0687-0.25199-0.0448-0.07644-0.1091-0.13959-0.1863-0.18301zm-4.745-1.495 3.47 1.93-3.47 1.93-3.47-1.93zm-4 2.78 3.5 1.945v3.855l-3.5-1.945zm4.5 5.8v-3.855l3.5-1.945v3.855z" fill="#6e6e6e"/>
</svg>
