<?xml version="1.0" encoding="UTF-8"?>
<svg width="16" height="16" fill="none" version="1.1" viewBox="0 0 16 16" xmlns="http://www.w3.org/2000/svg">
 <g transform="matrix(.87728 0 0 .87728 -.57242 -1.2715)" clip-path="url(#clip0_202_14)">
  <path d="m7.2697 7.388c-0.50916-1.4129-0.1976-3.0551 0.93467-4.1874 1.187-1.187 2.9344-1.472 4.3906-0.85506l-2.9057 2.9057 2.1213 2.1213 2.9057-2.9057c0.617 1.4561 0.3319 3.2036-0.8551 4.3906-1.1322 1.1323-2.7744 1.4439-4.1873 0.93467l-5.9313 5.9314-2.4042-2.4042z" clip-rule="evenodd" fill="#6e6e6e" fill-rule="evenodd"/>
 </g>
 <defs>
  <clipPath id="clip0_202_14">
   <rect transform="translate(.098312 .81351)" width="16" height="16" fill="#fff"/>
  </clipPath>
 </defs>
 <g transform="matrix(.95963 0 0 .95963 .45405 .5536)">
  <g transform="matrix(.77162 0 0 .77162 5.5381 5.3967)">
   <rect transform="matrix(.87227 -.48902 .017392 .99985 0 0)" x="9.191" y="12.792" width="5.0774" height="4.705" fill="#ed1c24" opacity=".6" stroke-width="1.1786" style="paint-order:stroke fill markers"/>
   <rect transform="matrix(.022323 -.99975 .8739 .4861 0 0)" x="-8.4027" y="4.2038" width="4.7767" height="4.8679" fill="#00aeef" opacity=".7" stroke-width="1.1628" style="paint-order:stroke fill markers"/>
   <rect transform="matrix(.85165 .52411 -.86093 .50873 0 0)" x="7.2035" y="-2.0416" width="5.1496" height="4.705" fill="#0db14b" opacity=".7" stroke-width="1.1869" style="paint-order:stroke fill markers"/>
  </g>
  <path d="m15.372 9.305-3.4723-1.929c-0.05866-0.033859-0.12518-0.051683-0.1929-0.051683-0.06773 0-0.13425 0.017825-0.1929 0.051683l-3.4723 1.929c-0.058157 0.034484-0.10624 0.083635-0.13942 0.14255-0.03318 0.058905-0.050294 0.1255-0.049631 0.19311v3.8581c1.157e-4 0.06837 0.018395 0.1355 0.052971 0.19445 0.034576 0.05895 0.084199 0.10772 0.14379 0.14121l3.4723 1.929c0.05865 0.03387 0.12518 0.0517 0.1929 0.0517 0.06773 0 0.13425-0.01783 0.1929-0.0517l3.4723-1.929c0.05818-0.03449 0.10626-0.08364 0.13943-0.14252 0.03318-0.05895 0.05031-0.12554 0.04962-0.19314v-3.8581c-1.58e-4 -0.068358-0.01837-0.13547-0.05301-0.19444-0.03457-0.058983-0.08419-0.10771-0.14375-0.14121zm-3.6613-1.1536 2.6775 1.4892-2.6775 1.4892-2.6775-1.4892zm-3.0865 2.1451 2.7007 1.5008v2.9746l-2.7007-1.5008zm3.4723 4.4754v-2.9746l2.7007-1.5008v2.9746z" fill="#6e6e6e" stroke-width=".77162"/>
 </g>
</svg>
