<?xml version="1.0" encoding="UTF-8"?>
<svg width="16" height="16" fill="none" version="1.1" viewBox="0 0 16 16" xmlns="http://www.w3.org/2000/svg">
 <g transform="matrix(.95963 0 0 .95963 .45405 .5536)">
  <g transform="matrix(.77162 0 0 .77162 5.5381 5.3967)">
   <rect transform="matrix(.87227 -.48902 .017392 .99985 0 0)" x="9.191" y="12.792" width="5.0774" height="4.705" fill="#ed1c24" opacity=".6" stroke-width="1.1786" style="paint-order:stroke fill markers"/>
   <rect transform="matrix(.022323 -.99975 .8739 .4861 0 0)" x="-8.4027" y="4.2038" width="2.5321" height="5.0236" ry="0" fill="#00aeef" opacity=".7" stroke-width="1.1628" style="paint-order:stroke fill markers"/>
   <rect transform="matrix(.022323 -.99975 .8739 .4861 0 0)" x="-5.8912" y="6.3946" width="2.0001" height="2.6039" ry="0" fill="#00aeef" opacity=".7" stroke-width="1.1628" style="paint-order:stroke fill markers"/>
   <rect transform="matrix(.85165 .52411 -.86093 .50873 0 0)" x="9.4634" y="-1.7521" width="2.8897" height="4.4155" fill="#0db14b" opacity=".7" stroke-width="1.1869" style="paint-order:stroke fill markers"/>
  </g>
  <path d="m15.372 9.305c-2.1444-1.0922-2.3564-1.1802-2.3686-1.2281l-2.426 1.3607-1.283 0.7392c-3.27e-5 0.39038-0.016484 1.6217-0.016484 1.6217l-1.4419-0.75914 0.016574 1.4949v0.96452c1.157e-4 0.06837 0.018395 0.1355 0.052971 0.19445s0.084199 0.10772 0.14379 0.14121l3.4723 1.929c0.05865 0.03387 0.12518 0.0517 0.1929 0.0517 0.06773 0 0.13425-0.01783 0.1929-0.0517l3.4723-1.929c0.05818-0.03449 0.10626-0.08364 0.13943-0.14252 0.03318-0.05895 0.05031-0.12554 0.04962-0.19314v-3.8581c-1.58e-4 -0.068358-0.01837-0.13547-0.05301-0.19444-0.03457-0.058983-0.08419-0.10771-0.14375-0.14121zm-2.2691-0.40779 1.2853 0.74339-2.6775 1.4892-1.3388-0.7446 1.7274-0.94348 0.04601-0.031933zm-3.1694 4.0676 0.041032-1.918 1.3504 0.7504v2.9746l-2.7007-1.5008v-1.0564zm2.163 1.807v-2.9746l2.7007-1.5008v2.9746z" fill="#6e6e6e" stroke-width=".77162"/>
 </g>
 <g transform="matrix(.9548 0 0 .9548 .060563 .054453)" stroke-width=".70378">
  <path d="m6.2664 2.2604c1.0266 0 2.0111 0.40781 2.7371 1.1337 0.72588 0.72591 1.1337 1.7105 1.1337 2.7371s-0.40784 2.0111-1.1337 2.7371c-0.72595 0.72588-1.7105 1.1337-2.7371 1.1337s-2.0111-0.40784-2.7371-1.1337c-0.72591-0.72595-1.1337-1.7105-1.1337-2.7371 0.0018549-1.0259 0.41018-2.0093 1.1355-2.7348 0.72536-0.72548 1.7086-1.134 2.7345-1.136zm0-1.0557c-1.3066 0-2.5596 0.51904-3.4835 1.4429-0.92388 0.92389-1.4429 2.1769-1.4429 3.4835 0 1.3066 0.51904 2.5596 1.4429 3.4835 0.92389 0.92392 2.1769 1.443 3.4835 1.443 1.3066 0 2.5596-0.51904 3.4835-1.443 0.92392-0.92385 1.443-2.1769 1.443-3.4835 0-1.3066-0.51904-2.5596-1.443-3.4835-0.92385-0.92388-2.1769-1.4429-3.4835-1.4429z" fill="#6e6e6e"/>
  <g>
   <path d="m5.9145 0.50099h0.70378v2.8151l-0.35189 1.4076-0.35189-1.4076z" fill="#0db14b"/>
   <path d="m6.6183 11.761h-0.70378v-2.8151l0.35189-1.4076 0.35189 1.4076z" fill="#0db14b"/>
   <path d="m11.897 5.7793v0.70378h-2.8151l-1.4076-0.35189 1.4076-0.35189z" fill="#ed1c24"/>
   <path d="m0.63618 6.4831v-0.70378h2.8151l1.4076 0.35189-1.4076 0.35189z" fill="#ed1c24"/>
  </g>
 </g>
</svg>
