<?xml version="1.0" encoding="UTF-8"?>
<svg width="16" height="16" fill="none" version="1.1" viewBox="0 0 16 16" xmlns="http://www.w3.org/2000/svg">
 <g fill="#6e6e6e">
  <path d="m8.5 1h-1v1.5h1z"/>
  <path d="m2.5 7.5h-1.5v1h1.5z"/>
  <path d="m8.5 13.5h-1v1.5h1z"/>
  <path d="m15 7.5h-1.5v1h1.5z"/>
  <path d="m13.275 3.442-0.707-0.7075-1.0605 1.061 0.707 0.707z"/>
  <path d="m4.5 3.79-1.0605-1.06-0.707 0.707 1.0605 1.0605z"/>
  <path d="m4.499 12.208-0.7075-0.707-1.06 1.061 0.7065 0.707z"/>
  <path d="m13.265 12.565-1.06-1.065-0.705 0.71 1.06 1.06 0.705-0.705z"/>
  <path d="m8 4c0.79112 0 1.5645 0.2346 2.2223 0.67412 0.6578 0.43953 1.1705 1.0642 1.4732 1.7952 0.30275 0.7309 0.38196 1.5352 0.22762 2.3111-0.15434 0.77593-0.5353 1.4886-1.0947 2.048s-1.2722 0.9404-2.0481 1.0947c-0.77592 0.1544-1.5802 0.0752-2.3111-0.2276-0.73086-0.3027-1.3557-0.8154-1.7952-1.4732-0.4395-0.65782-0.6741-1.4312-0.6741-2.2223 0-1.0609 0.4214-2.0783 1.1716-2.8284 0.7501-0.75014 1.7675-1.1716 2.8284-1.1716zm0 7c0.79565 0 1.5587-0.3161 2.1213-0.8787 0.56261-0.56259 0.87868-1.3256 0.87868-2.1213s-0.31607-1.5587-0.87868-2.1213-1.3257-0.87868-2.1213-0.87868z"/>
 </g>
</svg>
