<svg width="16" height="16" viewBox="0 0 16 16" fill="none" xmlns="http://www.w3.org/2000/svg">
<path d="M7.5 1H8.5V2.5H7.5V1Z" fill="#6E6E6E"/>
<path d="M13.5 7.5H15V8.5H13.5V7.5Z" fill="#6E6E6E"/>
<path d="M7.5 13.5H8.5V15H7.5V13.5Z" fill="#6E6E6E"/>
<path d="M1 7.5H2.5V8.5H1V7.5Z" fill="#6E6E6E"/>
<path d="M2.72501 3.442L3.43201 2.7345L4.49251 3.7955L3.78551 4.5025L2.72501 3.442Z" fill="#6E6E6E"/>
<path d="M11.5 3.79L12.5605 2.73L13.2675 3.437L12.207 4.4975L11.5 3.79Z" fill="#6E6E6E"/>
<path d="M11.501 12.208L12.2085 11.501L13.2685 12.562L12.562 13.269L11.501 12.208Z" fill="#6E6E6E"/>
<path d="M2.735 12.565L3.795 11.5L4.5 12.21L3.44 13.27L2.735 12.565V12.565Z" fill="#6E6E6E"/>
<path d="M8 4C7.20888 4 6.43552 4.2346 5.77772 4.67412C5.11992 5.11365 4.60723 5.73836 4.30448 6.46927C4.00173 7.20017 3.92252 8.00444 4.07686 8.78036C4.2312 9.55629 4.61216 10.269 5.17157 10.8284C5.73098 11.3878 6.44372 11.7688 7.21964 11.9231C7.99556 12.0775 8.79983 11.9983 9.53074 11.6955C10.2616 11.3928 10.8864 10.8801 11.3259 10.2223C11.7654 9.56448 12 8.79113 12 8C12 6.93913 11.5786 5.92172 10.8284 5.17157C10.0783 4.42143 9.06087 4 8 4ZM8 11C7.20435 11 6.44129 10.6839 5.87868 10.1213C5.31607 9.55871 5 8.79565 5 8C5 7.20435 5.31607 6.44129 5.87868 5.87868C6.44129 5.31607 7.20435 5 8 5V11Z" fill="#6E6E6E"/>
</svg>
