<svg width="16" height="16" viewBox="0 0 16 16" fill="none" xmlns="http://www.w3.org/2000/svg">
<path d="M8 1.33334C4.324 1.33334 1.33334 4.324 1.33334 8C1.33334 11.676 4.324 14.6667 8 14.6667C11.676 14.6667 14.6667 11.676 14.6667 8C14.6667 4.324 11.676 1.33334 8 1.33334ZM2.66667 8C2.66667 7.40067 2.77067 6.82534 2.954 6.28734L4 7.33334L5.33334 8.66667V10L6.66667 11.3333L7.33334 12V13.2873C4.70734 12.9573 2.66667 10.7147 2.66667 8ZM12.22 11.2487C11.7847 10.898 11.1247 10.6667 10.6667 10.6667V10C10.6667 9.64638 10.5262 9.30724 10.2761 9.05719C10.0261 8.80715 9.68696 8.66667 9.33334 8.66667H6.66667V6.66667C7.02029 6.66667 7.35943 6.52619 7.60948 6.27614C7.85953 6.0261 8 5.68696 8 5.33334V4.66667H8.66667C9.02029 4.66667 9.35943 4.52619 9.60948 4.27615C9.85953 4.0261 10 3.68696 10 3.33334V3.05934C11.952 3.852 13.3333 5.76667 13.3333 8C13.3332 9.17647 12.9415 10.3194 12.22 11.2487V11.2487Z" fill="#6E6E6E"/>
</svg>
