<?xml version="1.0" encoding="UTF-8"?>
<svg width="16" height="16" version="1.1" viewBox="0 0 16 16" xmlns="http://www.w3.org/2000/svg">
 <path d="m11.148 10.197c0.88704-1.0222 1.3731-2.3158 1.3721-3.6522 0-1.1351-0.3469-2.2447-0.99673-3.1885-0.64993-0.9438-1.5736-1.6794-2.6543-2.1138-1.0807-0.43439-2.2699-0.54804-3.4171-0.3266-1.1473 0.22145-2.2011 0.76806-3.0282 1.5707-0.82714 0.80263-1.3904 1.8253-1.6186 2.9385-0.2282 1.1133-0.11108 2.2672 0.33657 3.3159 0.44764 1.0487 1.2057 1.945 2.1783 2.5757 0.97261 0.63058 2.1161 0.9672 3.2858 0.9672 1.3771 9.39e-4 2.7103-0.47072 3.7637-1.3315l0.986 1.1212 0.803-0.66857zm-4.5422 1.0435c-0.95706 0-1.8926-0.27538-2.6884-0.79138-0.79577-0.51595-1.416-1.2493-1.7823-2.1073-0.36625-0.85803-0.46207-1.8022-0.27536-2.713 0.18671-0.91088 0.64759-1.7476 1.3243-2.4043 0.67675-0.6567 1.539-1.1039 2.4777-1.2851 0.93867-0.18118 1.9116-0.088195 2.7958 0.26721 0.88421 0.35541 1.64 0.95727 2.1717 1.7295 0.53175 0.7722 0.81553 1.6801 0.81553 2.6088-0.001401 1.2449-0.51164 2.4385-1.4189 3.3188-0.90717 0.88037-2.1372 1.3755-3.4201 1.3769z" fill="#6e6e6e" stroke-width="1.0593"/>
 <rect transform="matrix(.77294 -.63448 .65105 .75904 0 0)" x=".07457" y="16.432" width="2.4085" height="4.0999" ry="0" fill="#6e6e6e" fill-opacity=".70446" stroke-linejoin="round" stroke-width="1.6119"/>
</svg>
