<svg width="16" height="16" viewBox="0 0 16 16" fill="none" xmlns="http://www.w3.org/2000/svg">
<path d="M13.505 6L12.8 6.705L14.09 8L12.795 9.295L13.505 10L15.505 8L13.505 6Z" fill="#6E6E6E"/>
<path d="M3.205 6.71L2.5 6L0.5 8L2.5 10L3.21 9.295L1.915 8L3.205 6.71Z" fill="#6E6E6E"/>
<path d="M8 14.085L6.705 12.79L6 13.5L8 15.5L10 13.5L9.295 12.795L8 14.085Z" fill="#6E6E6E"/>
<path d="M8 1.915L9.29 3.205L10 2.5L8 0.5L6 2.5L6.705 3.21L8 1.915Z" fill="#6E6E6E"/>
<path d="M11 8C11.0005 7.32754 10.7751 6.67439 10.3599 6.1454C9.94477 5.61641 9.3639 5.24224 8.71057 5.08296C8.05724 4.92369 7.36934 4.98853 6.75729 5.26709C6.14523 5.54565 5.64451 6.02177 5.3355 6.61903C5.02649 7.21629 4.9271 7.90006 5.0533 8.56057C5.17949 9.22109 5.52394 9.82006 6.03137 10.2613C6.5388 10.7026 7.17977 10.9606 7.85141 10.9939C8.52305 11.0272 9.1864 10.8339 9.735 10.445L11.645 12.355L12.355 11.645L10.445 9.735C10.8054 9.22817 10.9993 8.62188 11 8ZM8 10C7.60444 10 7.21776 9.8827 6.88886 9.66294C6.55996 9.44318 6.30362 9.13082 6.15224 8.76537C6.00086 8.39992 5.96126 7.99778 6.03843 7.60982C6.1156 7.22186 6.30608 6.86549 6.58579 6.58579C6.86549 6.30608 7.22186 6.1156 7.60982 6.03843C7.99778 5.96126 8.39991 6.00087 8.76537 6.15224C9.13082 6.30362 9.44318 6.55996 9.66294 6.88886C9.8827 7.21776 10 7.60444 10 8C10 8.53043 9.78928 9.03914 9.41421 9.41421C9.03914 9.78929 8.53043 10 8 10Z" fill="#6E6E6E"/>
</svg>
