<svg width="16" height="16" viewBox="0 0 16 16" fill="none" xmlns="http://www.w3.org/2000/svg">
<path d="M4 1H1V4H2V2H4V1Z" fill="#6E6E6E"/>
<path d="M12 1H15V4H14V2H12V1Z" fill="#6E6E6E"/>
<path d="M4 15H1V12H2V14H4V15Z" fill="#6E6E6E"/>
<path d="M12 15H15V12H14V14H12V15Z" fill="#6E6E6E"/>
<path d="M12 12H4C3.73486 11.9997 3.48066 11.8943 3.29319 11.7068C3.10571 11.5193 3.00026 11.2651 3 11V5C3.00026 4.73486 3.10571 4.48066 3.29319 4.29319C3.48066 4.10571 3.73486 4.00026 4 4H12C12.2651 4.00026 12.5193 4.10571 12.7068 4.29319C12.8943 4.48066 12.9997 4.73486 13 5V11C12.9997 11.2651 12.8943 11.5193 12.7068 11.7068C12.5193 11.8943 12.2651 11.9997 12 12V12ZM4 5V11H12V5H4Z" fill="#6E6E6E"/>
</svg>
