<?xml version="1.0" encoding="UTF-8"?>
<svg width="16" height="16" fill="#000000" version="1.1" viewBox="0 0 16 16" xmlns="http://www.w3.org/2000/svg">
 <path d="m10.235 1.5-1.3235 1.0588 1.5882 0.6292 1.0588-1.688zm-7.9412 0.26471-0.79412 0.79412 0.79412 1.3235 0.87581 0.37535 3.5451 3.7142c-2.3075 1.9046-4.6301 3.8232-4.6722 3.8651-0.72371 0.72371-0.72371 1.8967 0 2.6202 0.72371 0.72371 1.8965 0.72371 2.6202 0 0.060294-0.0603 3.4343-4.1492 5.5247-6.6833l2.9966-0.57078c0.45133-0.086031 0.79537-0.45307 0.85254-0.9089l0.43377-3.4707-1.0588-1.0588-1.0588 3.1765-3.7416-1.9429-0.1582 3.5394c-0.2663 0.21969-0.34933 0.28798-0.64884 0.5351l-3.8114-3.6382-0.37535-0.87581zm8.1046 6.7604-1.642 2.7965 2.95 3.4495a1.0122 1.9853 44.999 0 0 0.0099 0.01189l0.03877 0.04497 0.0015-0.0015a1.0122 1.9853 44.999 0 0 2.1182-0.68658 1.0122 1.9853 44.999 0 0 0.68658-2.1182l0.0015-0.0015-0.01395-0.01137a1.0122 1.9853 44.999 0 0-0.02482-0.02119zm-7.0458 3.8279c0.43862 0 0.79412 0.3555 0.79412 0.79412 0 0.43862-0.3555 0.79412-0.79412 0.79412s-0.79412-0.3555-0.79412-0.79412c0-0.43862 0.3555-0.79412 0.79412-0.79412z" fill="#6e6e6e" stroke-width=".26471"/>
</svg>
