<?xml version="1.0" encoding="UTF-8"?>
<svg width="16" height="16" version="1.1" viewBox="0 0 16 16" xmlns="http://www.w3.org/2000/svg">
 <g fill-rule="evenodd">
  <polygon transform="matrix(-1,0,0,1,16,0)" points="7 1 3 5 7 5" fill="#9aa7b0" fill-opacity=".8"/>
  <polygon transform="matrix(-1,0,0,1,16,0)" points="3 15 13 15 13 1 8 1 8 6 3 6" fill="#9aa7b0" fill-opacity=".8"/>
  <path d="m8.3073 7.5196c-0.05276 0.00204-0.10311 0.022578-0.14225 0.057994l-1.9 1.5798c-0.03102 0.030807-0.068621 0.05419-0.10997 0.068388-0.04135 0.014199-0.085381 0.018853-0.12879 0.013604h-1.2243c-0.039735-2.65e-4 -0.079126 0.00736-0.11589 0.022443-0.03676 0.015083-0.070161 0.037316-0.098256 0.065409-0.028095 0.028097-0.050331 0.061489-0.065416 0.098246-0.01508 0.036757-0.022712 0.076143-0.022446 0.11587v1.9563c-1.995e-4 0.0397 0.00748 0.07904 0.022591 0.11574 0.015115 0.0367 0.037361 0.06999 0.065451 0.09804s0.061466 0.05025 0.098191 0.06529c0.036731 0.01505 0.076081 0.02265 0.11577 0.0224h1.223c0.043406-0.0053 0.087436-6e-4 0.12879 0.0136 0.041346 0.0142 0.078946 0.0376 0.10997 0.06839l1.9 1.5798c0.13025 0.10824 0.27025 0.05599 0.27025-0.07224v-5.7387c9.75e-4 -0.017073-0.0016-0.034162-0.0076-0.050185s-0.01522-0.030632-0.02713-0.042901c-0.01192-0.012264-0.02625-0.021923-0.04209-0.028362-0.01585-0.00644-0.03285-0.00951-0.04995-0.00904zm2.4428 0.57494-0.44776 0.44821c0.37806 0.59132 0.57896 1.2785 0.57896 1.9803 0 0.70183-0.2009 1.389-0.57896 1.9803l0.44626 0.44396c0.48926-0.71453 0.75116-1.5602 0.75141-2.4262 3e-4 -0.86595-0.2611-1.7118-0.74991-2.4266zm-1.0833 1.0806-0.44051 0.44421c0.19555 0.26102 0.3013 0.57839 0.3013 0.90454s-0.10575 0.64352-0.3013 0.90454l0.43901 0.43896c0.30885-0.38049 0.47766-0.85551 0.47811-1.3456 4.5e-4 -0.49005-0.16745-0.96538-0.47561-1.3464z" fill="#231f20" fill-opacity=".69804" stroke-width=".49998"/>
 </g>
</svg>
