<svg width="16" height="16" viewBox="0 0 16 16" fill="none" xmlns="http://www.w3.org/2000/svg">
<path d="M12.05 1.036L14.832 3.936V14.964H4.4395V15H14.8675V3.9725L12.05 1.036Z" fill="#909090"/>
<path d="M12.0155 1H4.404V14.964H14.832V3.9365L12.015 1" fill="#F4F4F4"/>
<path d="M4.3275 1.75H1.1325V5.1635H11.1825V1.75H4.3275Z" fill="#7A7B7C"/>
<path d="M11.236 5.1055H1.1975V1.6895H11.236V5.1055Z" fill="#DD2025"/>
<path d="M4.526 2.267H3.8725V4.667H4.3865V3.8575L4.5 3.864C4.61028 3.8621 4.71953 3.84234 4.8235 3.8055C4.91465 3.77415 4.9985 3.72465 5.07 3.66C5.14275 3.59841 5.20011 3.52068 5.2375 3.433C5.28765 3.28725 5.30556 3.13235 5.29 2.979C5.28688 2.86945 5.26767 2.76096 5.233 2.657C5.20144 2.58195 5.15459 2.5143 5.09546 2.45834C5.03632 2.40239 4.96618 2.35936 4.8895 2.332C4.8232 2.308 4.75471 2.29058 4.685 2.28C4.63221 2.27185 4.57891 2.26751 4.5255 2.267H4.526ZM4.431 3.414H4.3865V2.674H4.483C4.52559 2.67093 4.56833 2.67747 4.60805 2.69313C4.64777 2.70879 4.68347 2.73318 4.7125 2.7645C4.77266 2.84501 4.8048 2.943 4.804 3.0435C4.804 3.1665 4.804 3.278 4.693 3.3565C4.61303 3.40048 4.52201 3.42028 4.431 3.4135" fill="#464648"/>
<path d="M6.2665 2.2605C6.211 2.2605 6.157 2.2645 6.119 2.266L6 2.269H5.61V4.669H6.069C6.24441 4.67381 6.41906 4.64408 6.583 4.5815C6.71496 4.52916 6.8318 4.44479 6.923 4.336C7.01168 4.22623 7.07533 4.09842 7.1095 3.9615C7.14878 3.80644 7.16794 3.64696 7.1665 3.487C7.1762 3.29808 7.16158 3.1087 7.123 2.9235C7.08639 2.78718 7.01783 2.66155 6.923 2.557C6.8486 2.47258 6.75752 2.40449 6.6555 2.357C6.56789 2.31646 6.47573 2.28658 6.381 2.268C6.34333 2.26178 6.30518 2.25893 6.267 2.2595L6.2665 2.2605ZM6.176 4.228H6.126V2.696H6.1325C6.23558 2.68414 6.33988 2.70274 6.4325 2.7495C6.50033 2.80366 6.5556 2.8719 6.5945 2.9495C6.63648 3.03117 6.66068 3.1208 6.6655 3.2125C6.67 3.3225 6.6655 3.4125 6.6655 3.487C6.66754 3.57282 6.66202 3.65865 6.649 3.7435C6.63359 3.83062 6.6051 3.9149 6.5645 3.9935C6.51855 4.06658 6.45646 4.12815 6.383 4.1735C6.32131 4.2134 6.24826 4.23201 6.175 4.2265" fill="#464648"/>
<path d="M8.715 2.269H7.5V4.669H8.014V3.717H8.664V3.271H8.014V2.715H8.714V2.269" fill="#464648"/>
<path d="M10.8905 10.1275C10.8905 10.1275 12.4845 9.8385 12.4845 10.383C12.4845 10.9275 11.497 10.706 10.8905 10.1275ZM9.712 10.169C9.45875 10.225 9.21194 10.3069 8.9755 10.4135L9.1755 9.9635C9.3755 9.5135 9.583 8.9 9.583 8.9C9.82166 9.30167 10.0993 9.67882 10.412 10.026C10.1762 10.0612 9.94252 10.1092 9.712 10.17V10.169ZM9.081 6.919C9.081 6.4445 9.2345 6.315 9.354 6.315C9.4735 6.315 9.608 6.3725 9.6125 6.7845C9.57357 7.19878 9.48682 7.60716 9.354 8.0015C9.17206 7.67042 9.0779 7.29827 9.0805 6.9205L9.081 6.919ZM6.7565 12.177C6.2675 11.8845 7.782 10.984 8.0565 10.955C8.055 10.9555 7.2685 12.483 6.7565 12.177V12.177ZM12.95 10.4475C12.945 10.3975 12.9 9.844 11.915 9.8675C11.5044 9.86088 11.0941 9.88982 10.6885 9.954C10.2956 9.5582 9.95731 9.11176 9.6825 8.6265C9.85564 8.12621 9.96042 7.60483 9.994 7.0765C9.9795 6.4765 9.836 6.1325 9.376 6.1375C8.916 6.1425 8.849 6.545 8.9095 7.144C8.96876 7.54652 9.08055 7.93954 9.242 8.313C9.242 8.313 9.0295 8.9745 8.7485 9.6325C8.4675 10.2905 8.2755 10.6355 8.2755 10.6355C7.78686 10.7946 7.32687 11.0309 6.913 11.3355C6.501 11.719 6.3335 12.0135 6.5505 12.308C6.7375 12.562 7.392 12.6195 7.977 11.853C8.28783 11.4571 8.5718 11.0408 8.827 10.607C8.827 10.607 9.719 10.3625 9.9965 10.2955C10.274 10.2285 10.6095 10.1755 10.6095 10.1755C10.6095 10.1755 11.424 10.995 12.2095 10.966C12.995 10.937 12.957 10.4965 12.952 10.4485" fill="#DD2025"/>
<path d="M11.977 1.0385V3.975H14.7935L11.977 1.0385Z" fill="#909090"/>
<path d="M12.0155 1V3.9365H14.832L12.0155 1Z" fill="#F4F4F4"/>
<path d="M4.4875 2.2285H3.834V4.6285H4.35V3.8195L4.464 3.826C4.57429 3.8241 4.68353 3.80435 4.7875 3.7675C4.87865 3.73614 4.9625 3.68664 5.034 3.622C5.1062 3.56025 5.16304 3.48253 5.2 3.395C5.25015 3.24925 5.26806 3.09435 5.2525 2.941C5.24938 2.83145 5.23017 2.72296 5.1955 2.619C5.16394 2.54395 5.11709 2.4763 5.05796 2.42035C4.99882 2.36439 4.92868 2.32136 4.852 2.294C4.7854 2.26977 4.71656 2.25218 4.6465 2.2415C4.59371 2.23336 4.54041 2.22901 4.487 2.2285H4.4875ZM4.3925 3.3755H4.348V2.6355H4.445C4.48759 2.63243 4.53033 2.63897 4.57005 2.65463C4.60977 2.6703 4.64547 2.69469 4.6745 2.726C4.73466 2.80651 4.7668 2.9045 4.766 3.005C4.766 3.128 4.766 3.2395 4.655 3.318C4.57503 3.36198 4.48401 3.38179 4.393 3.375" fill="white"/>
<path d="M6.228 2.222C6.1725 2.222 6.1185 2.226 6.0805 2.2275L5.963 2.2305H5.573V4.6305H6.032C6.20741 4.63531 6.38206 4.60558 6.546 4.543C6.67796 4.49066 6.7948 4.40629 6.886 4.2975C6.97468 4.18773 7.03833 4.05992 7.0725 3.923C7.11178 3.76793 7.13094 3.60846 7.1295 3.4485C7.1392 3.25958 7.12458 3.07019 7.086 2.885C7.04939 2.74868 6.98083 2.62305 6.886 2.5185C6.8116 2.43408 6.72052 2.36598 6.6185 2.3185C6.53089 2.27796 6.43873 2.24808 6.344 2.2295C6.30633 2.22328 6.26818 2.22043 6.23 2.221L6.228 2.222ZM6.139 4.1895H6.089V2.6575H6.0955C6.19858 2.64564 6.30288 2.66424 6.3955 2.711C6.46333 2.76516 6.5186 2.8334 6.5575 2.911C6.59948 2.99267 6.62368 3.0823 6.6285 3.174C6.633 3.284 6.6285 3.374 6.6285 3.4485C6.63054 3.53432 6.62501 3.62015 6.612 3.705C6.59659 3.79211 6.5681 3.8764 6.5275 3.955C6.48155 4.02808 6.41946 4.08965 6.346 4.135C6.28431 4.1749 6.21126 4.19351 6.138 4.188" fill="white"/>
<path d="M8.6765 2.2305H7.4615V4.6305H7.9755V3.6785H8.6255V3.2325H7.9755V2.6765H8.6755V2.2305" fill="white"/>
</svg>
