<?xml version="1.0" encoding="UTF-8"?>
<svg width="16" height="16" version="1.1" viewBox="0 0 16 16" xmlns="http://www.w3.org/2000/svg">
 <g fill-rule="evenodd">
  <polygon points="1 9 1 16 16 16 16 9" fill="#f26522" fill-opacity=".7"/>
  <polygon transform="matrix(-1,0,0,1,16,0)" points="3 5 7 5 7 1" fill="#9aa7b0" fill-opacity=".8"/>
  <polygon transform="matrix(-1,0,0,1,16,0)" points="13 8 13 1 8 1 8 6 3 6 3 8" fill="#9aa7b0" fill-opacity=".8"/>
  <polygon points="6 11 3.8 12.5 6 14 6 15 3 13 3 12 6 10" fill="#231f20" fill-opacity=".7"/>
  <polygon points="8 10 11 12 11 13 8 15 8 14 10.2 12.5 8 11" fill="#231f20" fill-opacity=".7"/>
 </g>
</svg>
