<?xml version="1.0" encoding="UTF-8"?>
<svg width="16" height="16" fill="none" version="1.1" viewBox="0 0 16 16" xmlns="http://www.w3.org/2000/svg">
 <g>
  <path d="m11.334 5.3115-0.881 0.8885c0.3911 0.52209 0.6026 1.1569 0.6026 1.8092s-0.2115 1.2872-0.6026 1.8092l0.878 0.878c0.6177-0.76105 0.9553-1.7112 0.9562-2.6914 9e-4 -0.98019-0.3349-1.9309-0.9512-2.6931z" fill="#389fd6"/>
  <path d="m13.5 3.15-0.8955 0.8965c0.7561 1.1828 1.1579 2.5572 1.1579 3.961 0 1.4038-0.4018 2.7782-1.1579 3.961l0.8925 0.888c0.9785-1.4292 1.5023-3.1207 1.5028-4.8528 6e-4 -1.7321-0.5222-3.4239-1.4998-4.8537z" fill="#389fd6"/>
  <path d="m8.6145 2c-0.10551 0.00409-0.20621 0.04516-0.2845 0.116l-3.8 3.16c-0.06204 0.06162-0.13724 0.10839-0.21993 0.13679-0.0827 0.0284-0.17076 0.03771-0.25757 0.02721h-2.4485c-0.07947-5.3e-4 -0.15825 0.01473-0.23177 0.04489-0.07352 0.03017-0.14032 0.07464-0.19651 0.13083-0.05619 0.0562-0.10066 0.12299-0.13083 0.19651-0.03016 0.07352-0.045423 0.1523-0.044892 0.23177v3.913c-3.99e-4 0.0794 0.014962 0.1581 0.045182 0.2315 0.03023 0.0734 0.07472 0.14 0.1309 0.1961s0.12293 0.1005 0.19638 0.1306c0.07346 0.0301 0.15216 0.0453 0.23154 0.0448h2.446c0.08681-0.0105 0.17487-0.0012 0.25757 0.0272 0.08269 0.0284 0.15789 0.0752 0.21993 0.1368l3.8 3.16c0.2605 0.2165 0.5405 0.112 0.5405-0.1445v-11.478c0.00195-0.03415-0.00321-0.06833-0.01516-0.10038s-0.03043-0.06127-0.05426-0.08581c-0.02383-0.02453-0.0525-0.04385-0.08418-0.05673-0.03169-0.01288-0.06571-0.01903-0.0999-0.01808z" fill="#6e6e6e"/>
 </g>
</svg>
