<?xml version="1.0" encoding="UTF-8"?>
<svg width="16" height="16" version="1.1" viewBox="0 0 16 16" xmlns="http://www.w3.org/2000/svg">
 <path d="M4.66667 7.33333H6.00001V8.66667H4.66667V7.33333ZM4.66667 10H6.00001V11.3333H4.66667V10ZM7.33334 7.33333H8.66667V8.66667H7.33334V7.33333ZM7.33334 10H8.66667V11.3333H7.33334V10ZM10 7.33333H11.3333V8.66667H10V7.33333ZM10 10H11.3333V11.3333H10V10Z" fill="#389fd6"/>
 <path d="m3.3333 14.667h9.3334c0.7353 0 1.3333-0.598 1.3333-1.3334v-9.3333c0-0.73533-0.598-1.3333-1.3333-1.3333h-1.3334v-1.3333h-1.3333v1.3333h-4v-1.3333h-1.3333v1.3333h-1.3333c-0.73533 0-1.3333 0.598-1.3333 1.3333v9.3333c0 0.7354 0.598 1.3334 1.3333 1.3334zm9.3334-9.3334 6e-4 8h-9.334v-8h9.3334z" fill="#6E6E6E"/>
</svg>
