<?xml version="1.0" encoding="UTF-8"?>
<svg width="16" height="16" fill="#000000" version="1.1" viewBox="0 0 16 16" xmlns="http://www.w3.org/2000/svg">
 <path d="m8 1.5c-3.5898 0-6.5 2.9102-6.5 6.5s2.9102 6.5 6.5 6.5 6.5-2.9102 6.5-6.5-2.9102-6.5-6.5-6.5zm-3 1.75 1 2.25-0.5 0.5-2.25-1s0.25-0.5 0.75-1 1-0.75 1-0.75zm3 2.25c1.3808 0 2.5 1.1192 2.5 2.5s-1.1192 2.5-2.5 2.5-2.5-1.1192-2.5-2.5 1.1192-2.5 2.5-2.5zm0 2a0.5 0.5 0 0 0 0 1 0.5 0.5 0 0 0 0-1zm2.5 2.5 2.25 1s-0.25 0.5-0.75 1-1 0.75-1 0.75l-1-2.25z" fill="#6e6e6e" stroke-width=".25"/>
</svg>
