<?xml version="1.0" encoding="UTF-8"?>
<svg width="16" height="16" version="1.1" viewBox="0 0 16 16" xmlns="http://www.w3.org/2000/svg">
 <rect width="16" height="16" fill="#f0f" opacity="0"/>
 <path d="m1.4678 1.4678v9.3567h4.2526a3.6801 3.1011 0 0 1 0.052997-0.20833 3.6801 3.1011 0 0 1 0.18458-0.41301 3.6801 3.1011 0 0 1 0.25219-0.38926 3.6801 3.1011 0 0 1 0.31433-0.35453 3.6801 3.1011 0 0 1 0.37098-0.3125 3.6801 3.1011 0 0 1 0.42032-0.26499 3.6801 3.1011 0 0 1 0.46053-0.21199 3.6801 3.1011 0 0 1 0.49159-0.15534 3.6801 3.1011 0 0 1 0.51352-0.093202 3.6801 3.1011 0 0 1 0.52449-0.031067 3.6801 3.1011 0 0 1 0.10234 0.0018275l3.2877-3.2877v-3.6367z" fill="none" stroke="#6e6e6e" stroke-width=".93567"/>
 <g transform="translate(-.3)" fill="#6e6e6e">
  <path d="m4.7483 5.8535-2.7254 1.9492-0.022858 2.8574 3.8015 0.11914 1.8589-2.026s-1.4273-1.2279-2.9121-2.8997z" stroke-width=".94882"/>
  <circle cx="9" cy="5" r="1.5"/>
 </g>
 <g transform="matrix(.29608 -.29608 .29608 .29608 3.4876 11.165)" fill="#389fd6">
  <path d="m13.126 11.947c-0.8-2.3-3-4-5.7-4-3.3 0-6 2.7-6 6s2.7 6 6 6c2.6 0 4.8-1.7 5.7-4h4.3v3h4v-3h2v-4zm-5.7 4c-1.1 0-2-0.9-2-2s0.9-2 2-2 2 0.9 2 2-0.9 2-2 2z" opacity=".3"/>
  <path d="m7.4261 20.947c-3.9 0-7-3.1-7-7s3.1-7 7-7c2.7 0 5.2 1.6 6.3 4h10.7v6h-2v3h-6v-3h-2.7c-1.1 2.4-3.6 4-6.3 4zm0-12c-2.8 0-5 2.2-5 5s2.2 5 5 5c2.1 0 4-1.3 4.7-3.3l0.2-0.7h6.1v3h2v-3h2v-2h-10.1l-0.2-0.7c-0.7-2-2.6-3.3-4.7-3.3z"/>
  <path d="m7.4261 16.947c-1.7 0-3-1.3-3-3s1.3-3 3-3 3 1.3 3 3-1.3 3-3 3zm0-4c-0.6 0-1 0.4-1 1s0.4 1 1 1 1-0.4 1-1-0.4-1-1-1z"/>
 </g>
</svg>
