<?xml version="1.0" encoding="UTF-8"?>
<svg width="16" height="16" version="1.1" viewBox="0 0 17 16" xmlns="http://www.w3.org/2000/svg">
 <path d="m0.20225 9.0318h10.023v0.9395h-10.023v-0.9395zm7.8665-1.975c0-0.15611 0.03075-0.31069 0.09049-0.45491 0.05974-0.14423 0.1473-0.27528 0.25769-0.38566 0.11038-0.11039 0.24143-0.19795 0.38566-0.25769 0.14422-0.05974 0.2988-0.09049 0.45491-0.09049 0.31531 1.3e-4 0.61767 0.1254 0.8407 0.34828 0.223 0.22288 0.3485 0.52517 0.3488 0.84047-6e-4 0.31527-0.1261 0.61745-0.3491 0.84036-0.22292 0.22291-0.52513 0.34836-0.8404 0.34889-0.31526-3.3e-4 -0.61751-0.12575-0.84038-0.34872-0.22288-0.22297-0.34817-0.52527-0.34837-0.84053zm-1.52-1.2302h-3.9822l-2.368 0.3625v2.0555l1.195 5e-4c-0.09857-0.15753-0.15129-0.33942-0.15225-0.52525 2e-4 -0.2667 0.10622-0.52243 0.29478-0.71104 0.18857-0.18861 0.44427-0.29469 0.71097-0.29496h2.1808l1.7678-0.3695 0.098 0.4695-1.8162 0.37925h-2.2302c-0.13963 0-0.27355 0.05547-0.37229 0.15421s-0.15421 0.23265-0.15421 0.37229c0 0.28825 0.23175 0.5215 0.5195 0.52525l4.318 5e-4c0.31958-0.00139 0.62561-0.12928 0.85115-0.35571 0.22553-0.22642 0.35222-0.53295 0.35235-0.85254 1e-4 -0.15919-0.03122-0.31684-0.09215-0.46391-0.06094-0.14707-0.1503-0.28067-0.26296-0.39315-0.11266-0.11247-0.2464-0.20161-0.39357-0.2623s-0.30487-0.0915-0.46407-0.09114z" fill="#389fd6"/>
 <path d="m8.6095 12.493c2.6565 0 4.81-2.1537 4.81-4.8102 0-2.657-2.1532-4.8105-4.81-4.8105-1.7368 0-3.2542 0.92425-4.1 2.3042h2.0145c0.58717-0.49396 1.3302-0.76425 2.0975-0.763 1.8053 0 3.2688 1.4638 3.2688 3.2692 0 1.8058-1.4638 3.2696-3.2688 3.2696-0.51225 0-0.99475-0.1213-1.4262-0.3313h-2.388c0.8795 1.1368 2.2535 1.872 3.8022 1.872z" fill="#6E6E6E"/>
 <path d="m8.6095 0.21825c-3.2915 0-6.082 2.1378-7.0648 5.0998l0.91725-0.14275 1.4885 5e-4c0.89375-1.6572 2.6445-2.7838 4.6588-2.7838 2.922 0 5.2908 2.369 5.2908 5.291s-2.3685 5.2907-5.2908 5.2907c-1.8348 0-3.45-0.9347-4.399-2.3535h-2.4328c1.1438 2.6395 3.7715 4.487 6.8318 4.487 4.1112 0 7.4446-3.3327 7.4446-7.4444 0-4.111-3.333-7.4445-7.4443-7.4445zm1.6893 1.6928c-0.0153 0.06069-0.054 0.11285-0.1077 0.14502-0.0536 0.03216-0.1179 0.04168-0.1786 0.02648-0.91363-0.22679-1.8689-0.22679-2.7825 0-0.03007 0.00766-0.06137 0.00929-0.09208 0.00479s-0.06022-0.01504-0.08684-0.03101c-0.02661-0.01597-0.0498-0.03705-0.06822-0.06203s-0.03171-0.05336-0.03911-0.0835c-0.00761-0.0301-0.00919-0.0614-0.00464-0.09211s0.01513-0.06021 0.03115-0.0868 0.03714-0.04975 0.06216-0.06813c0.02501-0.01838 0.05342-0.03162 0.08358-0.03896 0.98859-0.24534 2.0222-0.24534 3.0108 0 0.0607 0.01523 0.1128 0.05393 0.145 0.10759 0.0322 0.05367 0.0421 0.11792 0.027 0.17866z" fill="#6E6E6E"/>
</svg>
