<?xml version="1.0" encoding="UTF-8"?>
<svg width="16" height="16" fill="none" version="1.1" viewBox="0 0 16 16" xmlns="http://www.w3.org/2000/svg">
 <path d="m5 12c-0.13261 0-0.25979 0.0527-0.35355 0.1464-0.09377 0.0938-0.14645 0.221-0.14645 0.3536s0.05268 0.2598 0.14645 0.3536c0.09376 0.0937 0.22094 0.1464 0.35355 0.1464h6c0.1326 0 0.2598-0.0527 0.3536-0.1464 0.0937-0.0938 0.1464-0.221 0.1464-0.3536s-0.0527-0.2598-0.1464-0.3536c-0.0938-0.0937-0.221-0.1464-0.3536-0.1464zm-2.5-9.25c0-0.46413 0.18437-0.90925 0.51256-1.2374s0.77331-0.51256 1.2374-0.51256h7.5c0.4641 0 0.9092 0.18437 1.2374 0.51256s0.5126 0.77331 0.5126 1.2374v10.5c0 0.4641-0.1844 0.9092-0.5126 1.2374s-0.7733 0.5126-1.2374 0.5126h-7.5c-0.46413 0-0.90925-0.1844-1.2374-0.5126s-0.51256-0.7733-0.51256-1.2374zm1.75-0.75c-0.19891 0-0.38968 0.07902-0.53033 0.21967s-0.21967 0.33142-0.21967 0.53033v7.25h9v-7.25c0-0.19891-0.079-0.38968-0.2197-0.53033-0.1406-0.14065-0.3314-0.21967-0.5303-0.21967zm-0.75 11.25c0 0.1989 0.07902 0.3897 0.21967 0.5303 0.14065 0.1407 0.33142 0.2197 0.53033 0.2197h7.5c0.1989 0 0.3897-0.079 0.5303-0.2197 0.1407-0.1406 0.2197-0.3314 0.2197-0.5303v-2.25h-9z" fill="#6e6e6e"/>
 <g>
  <path d="M 10,5 C 10,5.53043 9.78929,6.03914 9.41421,6.41421 9.03914,6.78929 8.53043,7 8,7 7.46957,7 6.96086,6.78929 6.58579,6.41421 6.21071,6.03914 6,5.53043 6,5 6,4.46957 6.21071,3.96086 6.58579,3.58579 6.96086,3.21071 7.46957,3 8,3 8.53043,3 9.03914,3.21071 9.41421,3.58579 9.78929,3.96086 10,4.46957 10,5 Z M 5,10 V 8.5 C 5,8.23478 5.10536,7.98043 5.29289,7.79289 5.48043,7.60536 5.73478,7.5 6,7.5 h 4 c 0.2652,0 0.5196,0.10536 0.7071,0.29289 C 10.8946,7.98043 11,8.23478 11,8.5 V 10" fill="#389FD6"/>
 </g>
</svg>
