<?xml version="1.0" encoding="UTF-8"?>
<svg width="16" height="16" version="1.1" viewBox="0 0 16 16" xmlns="http://www.w3.org/2000/svg">
 <rect width="16" height="16" fill="#f0f" opacity="0"/>
 <g transform="matrix(.94564 0 0 1.0402 9.0797 -.86613)" fill="#389fd6" stroke-width=".67296">
  <path d="m-7.8717 2.4669h13.459v9.4215h-13.459z" opacity=".3"/>
  <path d="m-3.8339 13.907h5.3837v1.3459h-5.3837z"/>
  <path d="m-2.4879 11.888h2.6919v2.6919h-2.6919z"/>
  <path d="m4.9147 1.794h-12.113c-0.74363 0-1.3459 0.6023-1.3459 1.3459v8.0756c0 0.74363 0.6023 1.3459 1.3459 1.3459h12.113c0.74363 0 1.3459-0.6023 1.3459-1.3459v-8.0756c0-0.74363-0.6023-1.3459-1.3459-1.3459zm0 9.4215h-12.113v-8.0756h12.113z"/>
 </g>
</svg>
