<?xml version="1.0" encoding="UTF-8"?>
<svg width="16" height="16" version="1.1" viewBox="0 0 16 16" xmlns="http://www.w3.org/2000/svg">
 <path d="m15 8c0 3.8654-3.1346 7-7 7s-7-3.1346-7-7 3.1346-7 7-7 7 3.1346 7 7z" fill="#eda200" stroke-width=".35"/>
 <path d="m10.141 7.9948h3.8087c0-2.2218-1.19-4.0859-2.975-5.1968l-1.9432 3.2928c0.6741 0.4753 1.1095 1.1508 1.1095 1.904zm-3.1731-1.8641-1.9432-3.2924c-1.785 0.99155-2.975 2.975-2.975 5.1566h3.8087c0-0.7532 0.4354-1.4287 1.1095-1.8641zm1.0318 4.0054c-0.4368 0-0.7532-0.0791-1.0318-0.23695l-1.9432 3.2924c0.8337 0.5145 1.8641 0.7532 2.975 0.7532s2.1413-0.2387 2.975-0.7532l-1.9432-3.2928c-0.2786 0.1582-0.595 0.2373-1.0318 0.2373zm1.05-2.136c0 0.5796-0.4704 1.05-1.05 1.05s-1.05-0.4704-1.05-1.05 0.4704-1.05 1.05-1.05 1.05 0.4704 1.05 1.05z" stroke-width=".35"/>
</svg>
