<?xml version="1.0" encoding="UTF-8"?>
<!-- Copyright 2000-2021 JetBrains s.r.o. Use of this source code is governed by the Apache 2.0 license that can be found in the LICENSE file. -->
<svg width="16" height="16" version="1.1" viewBox="0 0 16 16" xml:space="preserve" xmlns="http://www.w3.org/2000/svg"><g><path transform="matrix(1.1477 0 0 1.1477 3.8324 -.24445)" d="m-1.1671 5.7753c-0.10928-0.33458 0.07306-1.0701 0.31466-1.6515s0.54246-1.0086 0.81481-1.3175 0.51618-0.49939 0.70427-0.62643c0.18809-0.12704 0.32043-0.19061 0.50696-0.22956 0.18653-0.038949 0.42724-0.053279 0.56252-0.06294 0.13528-0.00966 0.16512-0.014652 0.25776 0.041481s0.24806 0.17338 0.34457 0.26928c0.09651 0.095894 0.1341 0.17043 0.22536 0.34426 0.091263 0.17383 0.23619 0.44695 0.34846 0.70537 0.11226 0.25842 0.19186 0.50211 0.2427 0.7718 0.050842 0.26969 0.072929 0.56536 0.089479 0.74858s0.027561 0.254-0.13002 0.36668c-0.15758 0.11267-0.48374 0.26724-0.86704 0.39202s-0.82371 0.21977-1.2505 0.28986-0.83984 0.11527-1.2468 0.17105c-0.407 0.055778-0.80791 0.12214-0.91719-0.21244z" fill="#eda200"/><g fill-rule="evenodd"><path transform="matrix(1.1477 0 0 1.1477 3.8324 -.24445)" d="m-1.0976 6.4027c-0.18985 0.084729-0.3256 0.21564-0.40108 0.43991-0.075486 0.22427-0.090707 0.54189-0.16625 0.85017-0.075539 0.30828-0.21139 0.6072-0.34761 1.0532-0.13622 0.44605-0.27281 1.0392-0.39172 1.5357-0.11891 0.49645-0.22014 0.89617-0.22513 1.0498-0.00499 0.15362 0.086259 0.06116 0.2232-0.05559 0.13694-0.11675 0.31956-0.25777 0.7551-0.40692 0.43554-0.14915 1.124-0.30641 1.7727-0.19061 0.6488 0.1158 1.2579 0.50466 1.6647 0.81686s0.61123 0.54774 0.77841 0.32369c0.16718-0.22406 0.29709-0.90767 0.44951-1.566 0.15242-0.65829 0.32733-1.2912 0.40145-1.9613 0.074129-0.67014 0.047476-1.3775-0.0037634-1.8953s-0.12706-0.84609-0.20206-0.96932c-0.074997-0.12324-0.14916-0.041425-0.38624 0.077204s-0.63703 0.27407-0.94312 0.37951c-0.30608 0.10544-0.51827 0.16088-0.88604 0.21207-0.36776 0.051194-0.89108 0.098141-1.2747 0.14089s-0.62759 0.081296-0.81744 0.16602z" fill="#389fd6"/><path transform="matrix(1.1477 0 0 1.1477 3.8324 -.24445)" d="m4.4249 3.8566c-0.021936-0.34562 0.12654-0.70492 0.26513-0.97483s0.26727-0.45039 0.38313-0.60777c0.11586-0.15738 0.21889-0.29165 0.47159-0.30897s0.65504 0.082313 1.0214 0.27556c0.36635 0.19325 0.69668 0.48009 0.96811 0.89742 0.27143 0.41733 0.48393 0.96511 0.60816 1.2641 0.12423 0.29902 0.16018 0.34928 0.16103 0.44784 8.444e-4 0.098566-0.033419 0.24544-0.050001 0.35441-0.016582 0.10897-0.015482 0.18004 0.023639 0.30099s0.11626 0.29177 0.14425 0.45279c0.027986 0.16101 0.0068203 0.31221-0.1158 0.35321-0.12262 0.041006-0.34668-0.028178-0.64452-0.16463-0.29784-0.13645-0.66943-0.34015-1.0626-0.55469-0.39318-0.21454-0.80793-0.43991-1.0625-0.57167-0.25453-0.13175-0.34882-0.16989-0.43952-0.18-0.090694-0.010114-0.17778 0.0077908-0.3175-0.14923-0.13972-0.15702-0.33207-0.48894-0.35401-0.83456z" fill="#db5860"/><path transform="matrix(1.1477 0 0 1.1477 3.8324 -.24445)" d="m9.6141 12.59c-0.14594-0.12786-0.43783-0.38357-0.8647-0.61813-0.42688-0.23456-0.98872-0.44796-1.5819-0.46706-0.59314-0.0191-1.2175 0.15609-1.6187 0.24015-0.40115 0.08406-0.57903 0.07697-0.6726-0.0452-0.093572-0.12217-0.10283-0.35942-0.078555-0.80071s0.082086-1.0866 0.12626-1.6044 0.074703-0.90787 0.092858-1.3935 0.023936-1.0667 0.019718-1.5109c-0.004217-0.44414-0.01843-0.75129-0.037367-0.93586-0.018937-0.18457-0.042596-0.24654 0.0027696-0.26781 0.045365-0.021271 0.15975-0.00184 0.42053 0.10479 0.26078 0.10663 0.66795 0.30045 1.0151 0.48477s0.63438 0.35911 0.88256 0.4719c0.24818 0.11278 0.45733 0.16355 0.66314 0.23792 0.2058 0.07437 0.40824 0.17234 0.55895 0.30527 0.15072 0.13293 0.24971 0.30081 0.33173 0.56719 0.082026 0.26638 0.14708 0.63124 0.22691 0.91877 0.079824 0.28753 0.17441 0.49773 0.24253 0.66166 0.068119 0.16393 0.10977 0.28158 0.12532 0.45648 0.015549 0.1749 5e-3 0.40704 0.057389 0.65521 0.052391 0.24818 0.16772 0.51238 0.2264 0.83963 0.058682 0.32725 0.060716 0.71754 0.052532 1.0326-0.00818 0.31511-0.026582 0.55503-0.035781 0.67499-0.0092 0.11996-0.0092 0.11996-0.15515-0.0079z" fill="#59a869"/></g></g></svg>
