<?xml version="1.0" encoding="UTF-8"?>
<svg width="16" height="16" version="1.1" viewBox="0 0 16 16" xmlns="http://www.w3.org/2000/svg">
 <circle cx="8" cy="8" r="6.5" fill="#db5860" stroke-width=".36111"/>
 <path d="m9.0185 8 1.4021 1.4022a0.36091 0.36091 0 0 1 0 0.51069l-0.5078 0.5078a0.36091 0.36091 0 0 1-0.51069 0l-1.4022-1.4021-1.4022 1.4021a0.36091 0.36091 0 0 1-0.51069 0l-0.50781-0.5078a0.36091 0.36091 0 0 1 0-0.51069l1.4022-1.4022-1.4022-1.4022a0.36091 0.36091 0 0 1 0-0.51069l0.50781-0.50781a0.36091 0.36091 0 0 1 0.51069 0l1.4022 1.4022 1.4022-1.4022a0.36091 0.36091 0 0 1 0.51069 0l0.5078 0.50781a0.36091 0.36091 0 0 1 0 0.51069z" fill="#fff" stroke-width=".36091"/>
</svg>
