<?xml version="1.0" encoding="UTF-8"?>
<svg width="16" height="16" version="1.1" viewBox="0 0 16 16" xmlns="http://www.w3.org/2000/svg">
 <circle cx="8" cy="8" r="6.5" fill="#59a869" stroke-width=".36111"/>
 <path d="m6.3827 11.25a0.79878 0.79878 0 0 1-0.56405-0.23364l-1.3134-1.3134a0.39903 0.39903 0 0 1 0-0.56406l0.56406-0.56406a0.39903 0.39903 0 0 1 0.56406 0l0.70417 0.70417 3.9661-4.3897a0.39722 0.39722 0 0 1 0.56225-0.04333l0.60558 0.51783a0.39722 0.39722 0 0 1 0.04334 0.56225l-4.5262 5.0454a0.79444 0.79444 0 0 1-0.60594 0.27842z" fill="#fff" stroke-width=".36111"/>
</svg>
