<?xml version="1.0" encoding="UTF-8"?>
<svg width="16" height="16" fill="none" version="1.1" viewBox="0 0 16 16" xmlns="http://www.w3.org/2000/svg">
 <path d="m8.1911 14.361c0.24647-0.16066 0.94644-1.4861 1.1446-2.1673 0.16894-0.58083 0.16735-0.5801 0.88188-0.40337 0.80733 0.19969 1.6234 0.63151 2.2926 1.2131 0.34569 0.30044 0.68334 0.54626 0.75034 0.54626 0.06701 0 0.17818-0.06156 0.24707-0.13677 0.13415-0.14647 0.99237-1.9825 0.99237-2.123 0-0.2427-1.126-1.1524-1.9376-1.5655-0.45175-0.22991-0.45175-0.22991 0.10809-0.47372 0.3262-0.14205 0.76345-0.26227 1.0477-0.28804 0.54426-0.049332 0.78178-0.19127 0.78178-0.46718 0-0.47131-1.0356-0.41666-2.2137 0.1168-0.37578 0.17016-0.75464 0.36037-0.84192 0.4227-0.14108 0.10076-0.24591 0.077792-0.96564-0.11671-0.28255-0.076357-0.79468-0.17036-0.90015-0.26824 0 0-0.34736-0.23155-0.47249-0.55104-0.096963-0.24759 0.12759 0.41503-0.17833-0.48019-0.63761-1.8658-0.63744-1.8246-0.01118-2.7087 0.42017-0.59315 0.61246-0.70133 1.2494-0.70289 0.60647-0.00148 0.93949 0.10628 1.4784 0.47839 0.51237 0.3538 0.64405 0.3707 0.83002 0.10655 0.12749-0.18108 0.12741-0.20976-0.0011-0.39228-0.30439-0.43228-1.4084-0.97526-1.9831-0.97526-0.13681 0-0.24862-0.026374-0.24844-0.058611 3.67e-4 -0.069433 0.79929-0.6704 1.3642-1.0262 0.44174-0.2782 0.51583-0.51167 0.23694-0.74656-0.21744-0.18313-0.37799-0.12508-1.1748 0.42477-0.87503 0.6038-1.806 1.4946-2.2739 2.1758-0.20782 0.30255-0.4021 0.55215-0.43173 0.55467-0.014809 0.001245-0.21267-0.80939-0.45317-1.5009-0.24396-0.70149-0.37952-1.5896-0.37952-1.5896 0 0.00861-0.50098 0.24961-0.82126 0.26271-0.31822 0.060406-1.4065 0.15946-1.8475 0.156-0.081395 0.24434 0.4965 2.4437 0.70522 2.8897 0.54141 1.3469 0.82598 3.1257 0.7998 3.3523-0.021744 0.18827 0.011456 0.21237-0.39009 0.34399-0.24117 0.079059-0.64631 0.24203-0.90031 0.36216-0.68327 0.32314-1.4341 0.42088-2.0153 0.26234-0.85085-0.23213-0.99093-0.23339-1.1004-0.0097679-0.14209 0.29022-0.047018 0.42611 0.44821 0.64068 0.34156 0.148 0.58196 0.19178 1.056 0.19237 0.33755 3.89e-4 0.59436 0.02993 0.57069 0.06558-0.023675 0.03565-0.084011 0.30352-0.1341 0.59528-0.10503 0.61186 0.1581 1.9067 0.51307 1.9067 0.27454 0 0.21055-1.1287 0.27394-1.6544 0.063736-0.52839 0.29092-0.98643 0.60239-1.2144 0.26027-0.19053 1.1287-0.50571 1.203-0.43658 0.028569 0.026602 0.047769 0.49378 0.042673 1.0382-0.011221 1.196-0.18912 1.8926-0.74581 2.9198-0.20818 0.38415-0.3785 0.74682-0.3785 0.80594 0 0.05911 0.083975 0.16222 0.18662 0.22913 0.2782 0.18134 2.7134 0.17737 2.993-0.0049z" fill="#6e6e6e" stroke-width=".081005"/>
</svg>
