<?xml version="1.0" encoding="UTF-8"?>
<svg width="16" height="16" version="1.1" viewBox="0 0 16 16" xmlns="http://www.w3.org/2000/svg">
 <path d="m11.6 13c0.5523 0 1-0.4477 1-1s-0.4477-1-1-1-1 0.4477-1 1 0.4477 1 1 1z" fill="#59a869"/>
 <path d="m15.488 11.739c-0.309-0.787-0.8422-1.466-1.5334-1.9528-0.6912-0.48687-1.51-0.76022-2.3551-0.78617-0.8451 0.02595-1.6639 0.2993-2.3551 0.78617-0.6912 0.48683-1.2243 1.1658-1.5334 1.9528l-0.1115 0.261 0.1115 0.2605c0.30894 0.7871 0.84205 1.4662 1.5333 1.9531 0.69121 0.487 1.5101 0.7604 2.3552 0.7864 0.8451-0.026 1.664-0.2994 2.3552-0.7864 0.6912-0.4869 1.2244-1.166 1.5333-1.9531l0.1115-0.2605zm-3.8885 2.261c-0.3956 0-0.7822-0.1173-1.1111-0.3371-0.3289-0.2197-0.58528-0.5321-0.73666-0.8975-0.15137-0.3655-0.19098-0.7676-0.11381-1.1556 0.07717-0.3879 0.26765-0.7443 0.54737-1.024 0.2797-0.2797 0.6361-0.4702 1.024-0.5474 0.388-0.07714 0.7901-0.0375 1.1556 0.1138 0.3654 0.1514 0.6778 0.4078 0.8975 0.7367 0.2198 0.3289 0.3371 0.7155 0.3371 1.1111-7e-4 0.5302-0.2116 1.0386-0.5865 1.4135s-0.8833 0.5858-1.4135 0.5865z" fill="#59a869"/>
 <path d="m6.1995 10.4c-0.409-0.3069-0.73277-0.71321-0.94058-1.1804-0.2078-0.46719-0.29275-0.97975-0.24676-1.489 0.04598-0.50925 0.22137-0.9983 0.5095-1.4207 0.28814-0.42241 0.67946-0.76417 1.1368-0.99282 0.45736-0.22866 0.96556-0.33662 1.4764-0.31363 0.51081 0.02298 1.0073 0.17614 1.4422 0.44495 0.43501 0.2688 0.79401 0.64432 1.043 1.0909 0.2491 0.44659 0.3798 0.94941 0.3799 1.4607h-1c0-0.34091-0.08714-0.67617-0.25316-0.97393-0.16601-0.29776-0.40538-0.54814-0.69538-0.72737s-0.62099-0.28136-0.96156-0.29668-0.6794 0.05666-0.98433 0.20913c-0.30492 0.15246-0.56581 0.38033-0.75789 0.66198s-0.30898 0.60772-0.3396 0.94726c-0.03061 0.33953 0.02607 0.68126 0.16467 0.99273 0.1386 0.31146 0.35452 0.58233 0.62725 0.78688z" fill="#6e6e6e" stroke-width="1.1"/>
 <path d="m14.652 5.522-1.18-2.044c-0.1154-0.2005-0.2969-0.35472-0.5134-0.43633-0.2164-0.08162-0.4545-0.08556-0.6736-0.01117l-1.217 0.412c-0.2097-0.14138-0.4289-0.26818-0.656-0.3795l-0.252-1.259c-0.0453-0.22669-0.16777-0.43069-0.34653-0.57727-0.17877-0.14659-0.40279-0.22671-0.63397-0.22673h-2.36c-0.23118 2e-5 -0.45521 0.08014-0.63397 0.22673-0.17877 0.14658-0.30122 0.35058-0.34653 0.57727l-0.252 1.259c-0.22965 0.11011-0.45136 0.23608-0.6635 0.377l-1.21-0.4095c-0.21894-0.07413-0.45681-0.07005-0.67307 0.01155s-0.39754 0.23567-0.51293 0.43595l-1.18 2.044c-0.1156 0.20015-0.15829 0.43415-0.12083 0.66223 0.03747 0.22807 0.15278 0.43612 0.32633 0.58877l0.9655 0.8485c-0.0085 0.126-0.019 0.251-0.019 0.3785 0 0.129 5e-3 0.2565 0.014 0.383l-0.96 0.844c-0.17371 0.15252-0.28921 0.36051-0.32686 0.58859-0.03765 0.22811 0.00488 0.46211 0.12036 0.66241l1.18 2.044c0.11551 0.2004 0.29698 0.3545 0.51346 0.436 0.21647 0.0816 0.45453 0.0854 0.67354 0.011l1.217-0.4115c0.20967 0.1413 0.42886 0.2679 0.656 0.379l0.2515 1.2595c0.04533 0.2268 0.16785 0.4308 0.34672 0.5774s0.40301 0.2267 0.63428 0.2266h0.68v-1h-0.68l-0.355-1.775c-0.49109-0.1824-0.94696-0.4483-1.3475-0.786l-1.7235 0.583-1.18-2.044 1.3625-1.1975c-0.09322-0.51706-0.0944-1.0465-0.0035-1.564l-1.359-1.195 1.18-2.0435 1.7135 0.58c0.4034-0.33813 0.86282-0.60313 1.3575-0.783l0.355-1.775h2.36l0.355 1.775c0.4911 0.18245 0.9469 0.44836 1.3475 0.786l1.7235-0.583 1.18 2.044-1.399 1.226 0.659 0.752 1.4-1.227c0.1737-0.15252 0.2892-0.36051 0.3269-0.58859 0.0376-0.22808-0.0049-0.46216-0.1204-0.66241z" fill="none" stroke="#6e6e6e" stroke-width="1.1"/>
</svg>
