<?xml version="1.0" encoding="UTF-8"?>
<svg width="16" height="16" fill="none" version="1.1" viewBox="0 0 16 16" xmlns="http://www.w3.org/2000/svg">
 <g fill="#6e6e6e">
  <path d="m8.0003 0.777c0.22308 2.9e-5 0.44396 0.044004 0.65004 0.12941 0.20608 0.085408 0.39332 0.21058 0.55102 0.36836s0.28277 0.34508 0.36807 0.55121c0.085313 0.20612 0.12912 0.42703 0.12912 0.65011 0 0.22304-0.043886 0.44392-0.12919 0.65001-0.08531 0.20609-0.21039 0.39335-0.36809 0.55109-0.1577 0.15773-0.34493 0.28287-0.55099 0.36824-0.20607 0.085372-0.42693 0.12931-0.64998 0.12931-0.45057 0-0.88268-0.17899-1.2013-0.49759-0.3186-0.3186-0.49759-0.75072-0.49759-1.2013 0-0.45057 0.17899-0.88269 0.49759-1.2013 0.3186-0.3186 0.75071-0.49759 1.2013-0.49759z" stroke-width=".87967"/>
  <path d="m15 15h-14v-8.5817h14zm-2-7.9059h-10v7.2413h10z" stroke-width="1.2744"/>
  <path d="m8.5594 10.955v0.76636h2.1063c0.08765 0 0.21633 0.08379 0.21633 0.22851 0 1.3052-0.15394 1.92-0.80116 1.92-0.67134 0-0.80913-1.5438-1.5214-1.6454v1.4776h-1.1257v-1.4805c-0.74751 0.06024-0.86807 1.6484-1.5658 1.6484-0.64684 0-0.76588-0.61477-0.76588-1.92 0-0.14475 0.12899-0.22851 0.21625-0.22851h2.1151v-0.76636h-2.1897c-0.060354 0-0.11822-0.02548-0.16089-0.07093-0.042671-0.04528-0.066642-0.10685-0.066642-0.17092 0-0.06414 0.023979-0.12556 0.066642-0.17094 0.042671-0.04528 0.10054-0.07085 0.16089-0.07085h2.1897v-0.76641h-2.4645c-0.060437 0-0.11842-0.02546-0.16117-0.07095-0.042742-0.04534-0.066751-0.10702-0.066751-0.17121 0-0.06424 0.02401-0.12575 0.066751-0.17121 0.042742-0.04534 0.10072-0.07099 0.16117-0.07099h2.4645v-0.76546h-2.3133c-0.029958 4.4e-5 -0.059652-0.0056-0.087353-0.01829-0.0277-0.01263-0.052861-0.03004-0.074049-0.05247-0.021189-0.02256-0.037999-0.049301-0.049439-0.078661-0.011485-0.029398-0.017315-0.06094-0.017272-0.0928 0-0.13255 0.1022-0.24274 0.22812-0.24274h2.3133v-0.56575l1.1257 1.9e-6v0.56527h2.3202c0.06048 3.248e-4 0.11846 0.026005 0.16122 0.071446 0.04279 0.045452 0.06708 0.10702 0.06735 0.17129 0 0.031887-0.0054 0.063482-0.01728 0.092895-0.01189 0.029426-0.02834 0.056205-0.04964 0.078714-0.02132 0.02259-0.04645 0.04043-0.07423 0.05244-0.02771 0.01263-0.0574 0.01829-0.08743 0.01818h-2.3202v0.76565h2.4722c0.06034 0 0.11829 0.02547 0.16106 0.07098 0.04265 0.04532 0.06679 0.107 0.06679 0.17122 0 0.06423-0.02399 0.12574-0.06679 0.17121-0.04267 0.04534-0.10075 0.07096-0.16106 0.07096h-2.4722v0.76643h2.1901c0.03064-0.0012 0.06117 0.0034 0.09008 0.01552 0.02864 0.01212 0.05481 0.0291 0.07704 0.05172 0.02218 0.02262 0.03986 0.0497 0.05178 0.07973 0.01256 0.03002 0.01825 0.06227 0.01825 0.09485 0 0.03257-0.0056 0.06481-0.01825 0.09485-0.01242 0.03003-0.02961 0.0571-0.05178 0.07971-0.02217 0.02266-0.04842 0.04018-0.07704 0.05175-0.02877 0.01212-0.05931 0.0167-0.09008 0.01551l-2.1901 4.72e-4z" fill="#389fd6" stroke-width="1.5779"/>
  <path d="m9.9799 4.5904h-3.9029c-0.70616 0-1.3595 0.37672-1.727 0.93861h7.3c-0.1747-0.28639-0.42004-0.5231-0.71245-0.68745-0.29248-0.16436-0.62219-0.25084-0.9576-0.25116z" stroke-width=".87967"/>
 </g>
</svg>
