<svg width="16" height="16" viewBox="0 0 16 16" fill="none" xmlns="http://www.w3.org/2000/svg">
<path d="M12.6447 14.155C12.6447 14.3532 12.566 14.5434 12.4258 14.6836C12.2856 14.8237 12.0955 14.9025 11.8973 14.9025C11.699 14.9025 11.5089 14.8237 11.3687 14.6836C11.2285 14.5434 11.1497 14.3532 11.1497 14.155V13.503H12.6445L12.6447 14.155Z" fill="#6E6E6E"/>
<path d="M10.6725 15.9307H8.54675L8.55 14.8817H7.83775L7.83675 15.9307H5.707V13.503H10.6725V15.9307Z" fill="#6E6E6E"/>
<path d="M5.213 14.155C5.213 14.3532 5.13426 14.5433 4.9941 14.6835C4.85394 14.8236 4.66384 14.9024 4.46562 14.9024C4.26741 14.9024 4.07731 14.8236 3.93715 14.6835C3.79699 14.5433 3.71825 14.3532 3.71825 14.155V13.503H5.213V14.155Z" fill="#6E6E6E"/>
<path d="M8.18225 0.175995C8.43584 0.176028 8.68694 0.226017 8.92121 0.323108C9.15548 0.420199 9.36833 0.562489 9.5476 0.741852C9.72687 0.921215 9.86905 1.13414 9.96602 1.36846C10.063 1.60278 10.1128 1.8539 10.1128 2.1075C10.1128 2.36105 10.0629 2.61214 9.96594 2.84642C9.86896 3.0807 9.72677 3.29357 9.5475 3.47289C9.36823 3.6522 9.15539 3.79445 8.92114 3.8915C8.68688 3.98855 8.43581 4.0385 8.18225 4.0385C7.67005 4.0385 7.17883 3.83503 6.81665 3.47285C6.45447 3.11067 6.251 2.61944 6.251 2.10725C6.251 1.59505 6.45447 1.10382 6.81665 0.741645C7.17883 0.379465 7.67005 0.175995 8.18225 0.175995V0.175995Z" fill="#6E6E6E"/>
<path d="M13.6742 12.7503H2.68925V6.33051H13.6742V12.7503ZM11.9585 6.86076H4.44675V12.2288H11.9585V6.86076V6.86076Z" fill="#6E6E6E"/>
<path d="M8.54675 10.0338V10.505H9.9225C9.97975 10.505 10.0638 10.5565 10.0638 10.6455C10.0638 11.448 9.96325 11.826 9.5405 11.826C9.102 11.826 9.012 10.8768 8.54675 10.8143V11.7228H7.8115V10.8125C7.32325 10.8495 7.2445 11.826 6.78875 11.826C6.36625 11.826 6.2885 11.448 6.2885 10.6455C6.2885 10.5565 6.37275 10.505 6.42975 10.505H7.81125V10.0338H6.381C6.34158 10.0338 6.30378 10.0181 6.27591 9.99022C6.24804 9.96235 6.23238 9.92454 6.23238 9.88513C6.23238 9.84571 6.24804 9.8079 6.27591 9.78003C6.30378 9.75216 6.34158 9.7365 6.381 9.7365H7.81125V9.26525H6.2015C6.16202 9.26525 6.12415 9.24957 6.09623 9.22165C6.06831 9.19373 6.05263 9.15586 6.05263 9.11638C6.05263 9.07689 6.06831 9.03902 6.09623 9.01111C6.12415 8.98319 6.16202 8.9675 6.2015 8.9675H7.81125V8.49675H6.30025C6.28068 8.49678 6.26129 8.49295 6.24319 8.48548C6.2251 8.478 6.20866 8.46703 6.19482 8.45318C6.18098 8.43934 6.17 8.4229 6.16253 8.40481C6.15505 8.38672 6.15122 8.36733 6.15125 8.34775C6.15125 8.26625 6.218 8.1985 6.30025 8.1985H7.81125V7.728H6.6275C6.58792 7.728 6.54996 7.71228 6.52197 7.68429C6.49398 7.6563 6.47825 7.61833 6.47825 7.57875C6.47825 7.53917 6.49398 7.5012 6.52197 7.47321C6.54996 7.44522 6.58792 7.4295 6.6275 7.4295H7.81125V7.16925H8.5465V7.4295H9.73025C9.76984 7.4295 9.8078 7.44522 9.83579 7.47321C9.86378 7.5012 9.8795 7.53917 9.8795 7.57875C9.8795 7.61833 9.86378 7.6563 9.83579 7.68429C9.8078 7.71228 9.76984 7.728 9.73025 7.728H8.5465V8.19825H10.062C10.1015 8.19845 10.1394 8.21424 10.1673 8.24218C10.1953 8.27013 10.2111 8.30798 10.2113 8.3475C10.2113 8.3671 10.2074 8.38651 10.2 8.40462C10.1925 8.42273 10.1815 8.43918 10.1676 8.45302C10.1537 8.46687 10.1373 8.47784 10.1191 8.4853C10.101 8.49276 10.0816 8.49657 10.062 8.4965H8.5465V8.96725H10.1613C10.2007 8.96725 10.2386 8.98294 10.2665 9.01086C10.2944 9.03877 10.3101 9.07664 10.3101 9.11613C10.3101 9.15561 10.2944 9.19348 10.2665 9.2214C10.2386 9.24932 10.2007 9.265 10.1613 9.265H8.5465V9.73625H9.977C9.99703 9.73543 10.017 9.73866 10.0358 9.74576C10.0545 9.75286 10.0716 9.76368 10.0861 9.77756C10.1006 9.79144 10.1121 9.8081 10.1199 9.82655C10.1278 9.84499 10.1318 9.86483 10.1318 9.88488C10.1318 9.90492 10.1278 9.92476 10.1199 9.94321C10.1121 9.96165 10.1006 9.97831 10.0861 9.99219C10.0716 10.0061 10.0545 10.0169 10.0358 10.024C10.017 10.0311 9.99703 10.0343 9.977 10.0335L8.5465 10.0338H8.54675Z" fill="#6E6E6E"/>
<path d="M10.4323 4.511H5.9955C5.19275 4.511 4.45 4.93925 4.03225 5.578H12.3308C12.1322 5.25244 11.8533 4.98335 11.5209 4.79651C11.1884 4.60967 10.8136 4.51136 10.4323 4.511V4.511Z" fill="#6E6E6E"/>
</svg>
